<?xml version="1.0" encoding="utf-8"?>
<!-- Generator: Adobe Illustrator 22.1.0, SVG Export Plug-In . SVG Version: 6.00 Build 0)  -->
<svg version="1.1" id="logo" xmlns="http://www.w3.org/2000/svg" xmlns:xlink="http://www.w3.org/1999/xlink" x="0px" y="0px"
	 viewBox="0 0 1011.9 207.8" style="enable-background:new 0 0 1011.9 207.8;" xml:space="preserve">
<style type="text/css">
	.st0{fill:#FFFFFF;}
</style>
<path id="by-cornerstone" class="st0" d="M59.7,48.4L35.6,9.3H6v101h27.6V52.5l25.6,39.3h0.6l25.7-39.6v58h27.9V9.3H83.8L59.7,48.4z
	 M189.2,40.6c-3.1-3.1-7.1-5.4-11.9-7.1c-4.9-1.6-10.8-2.4-17.8-2.4c-6.7,0-12.6,0.5-17.5,1.6c-5,1.1-9.7,2.6-14.1,4.4l5.6,19.3
	c3.5-1.4,6.9-2.4,10.3-3.2c3.4-0.8,7.1-1.1,11.3-1.1c5.3,0,9.2,1.1,11.8,3.3s3.8,5.3,3.8,9.4v1.3c-2.2-0.8-5-1.5-8.3-2.1
	s-6.8-0.9-10.5-0.9c-4.6,0-8.8,0.5-12.5,1.6c-3.7,1-6.9,2.6-9.6,4.6c-2.6,2-4.7,4.6-6.2,7.6c-1.5,3.1-2.2,6.6-2.2,10.7v0.3
	c0,4,0.7,7.4,2,10.4c1.4,3,3.2,5.5,5.6,7.5c2.4,2,5.1,3.6,8.3,4.6s6.6,1.6,10.4,1.6c5.2,0,9.6-0.9,13.3-2.6c3.7-1.8,6.9-4.2,9.6-7.2
	v8.1h27.1V65.4c0-5.5-0.7-10.3-1.9-14.4C194.3,47,192.1,43.5,189.2,40.6z M170.8,82c0,3.9-1.3,7.1-3.8,9.4s-5.8,3.5-9.8,3.5
	c-2.8,0-5.1-0.8-6.9-2.3c-1.8-1.5-2.7-3.6-2.7-6.3V86c0-2.9,1.1-5.2,3.2-7c2.2-1.8,5.3-2.7,9.3-2.7c2,0,4,0.2,5.8,0.6
	c1.9,0.4,3.5,0.9,4.9,1.4V82L170.8,82z M261.2,41.4c-3-3.1-6.3-5.7-10.1-7.8c-3.7-2.1-8.6-3.2-14.4-3.2c-4.5,0-8.8,0.9-12.9,2.6
	c-4.1,1.7-7.7,4.1-10.8,7.2c-3.1,3.1-5.5,6.9-7.3,11.5c-1.8,4.5-2.7,9.6-2.7,15.2v0.3c0,5.6,0.9,10.6,2.7,15.1s4.3,8.3,7.5,11.4
	c3.1,3.1,6.8,5.5,11,7.2s8.7,2.5,13.5,2.5c5.8,0,10.6-1.2,14.3-3.5s7-5,9.8-8.2v3c0,6.2-1.7,11-5,14.3c-3.4,3.3-8.5,4.9-15.5,4.9
	c-5.3,0-10.1-0.7-14.4-2c-4.3-1.3-8.6-3.1-12.8-5.4l-8.8,18.2c5.7,2.9,11.7,5.1,18.1,6.6c6.4,1.6,13.4,2.3,21,2.3
	c8.2,0,15.1-0.9,20.7-2.8c5.6-1.9,10.1-4.6,13.7-8.2c3.4-3.4,6-7.7,7.6-12.8c1.6-5.1,2.5-11.2,2.5-18.4V32.2h-27.4L261.2,41.4
	L261.2,41.4z M261.6,67.1c0,4.3-1.5,7.9-4.5,10.8s-6.8,4.3-11.4,4.3c-4.7,0-8.6-1.4-11.6-4.3c-3-2.8-4.5-6.4-4.5-10.8V67
	c0-4.3,1.5-7.9,4.5-10.8c3-2.9,6.8-4.3,11.6-4.3c4.6,0,8.4,1.4,11.4,4.3C260.1,59.1,261.6,62.6,261.6,67.1L261.6,67.1z M351.8,30.5
	c-2.7,0-5.3,0.4-7.5,1.1c-2.3,0.7-4.4,1.6-6.3,2.8s-3.6,2.5-5.1,4s-2.9,3.1-4.1,4.8v-11h-27.6v78.1h27.6V68c0-4.3,1.1-7.6,3.2-9.8
	s4.9-3.3,8.2-3.3c3.2,0,5.9,1.1,7.8,3.3c2,2.2,3,5.5,3,9.8v42.3h27.6V59.2c0-8.9-2.3-16-7-21.1C366.8,33,360.3,30.5,351.8,30.5z
	 M437,74.5c0,4.3-1.1,7.6-3.2,9.8c-2.2,2.2-4.8,3.3-8.1,3.3c-3.3,0-6-1.1-8-3.3c-2-2.2-3-5.5-3-9.8V32.2h-27.6v51.1
	c0,9,2.4,16,7,21.1c4.7,5.1,11.3,7.6,19.7,7.6c5.5,0,10.1-1.2,13.8-3.7c3.7-2.5,6.8-5.4,9.3-8.7v10.7h27.5V32.2H437V74.5L437,74.5z
	 M573.7,30.5c-5.8,0-10.7,1.1-14.9,3.4c-4.1,2.3-7.9,5.3-11.2,9.3c-2.1-4-5.1-7.1-9-9.4c-3.8-2.2-8.4-3.4-13.6-3.4
	c-5.5,0-10.1,1.3-13.9,3.8c-3.7,2.5-6.9,5.4-9.4,8.7V32.2h-27.6v78.1h27.6V67.9c0-4.3,1-7.6,3.1-9.7c2-2.2,4.7-3.3,8-3.3
	c3.2,0,5.8,1.1,7.7,3.3s2.9,5.4,2.9,9.7v42.4H551V67.9c0-4.3,1.1-7.6,3.1-9.7c2.1-2.2,4.8-3.3,8.1-3.3s5.8,1.1,7.7,3.3
	s2.9,5.4,2.9,9.7v42.4h27.6V59.1c0-9.2-2.4-16.2-7.1-21.2C588.6,33,582.1,30.5,573.7,30.5z M684.7,58c-3.3-2.4-7.2-4.4-11.9-6.1
	c-4.7-1.7-9.9-3.1-15.7-4.4c-3.5-0.8-6.3-1.5-8.6-2.2s-4-1.4-5.3-2.2c-1.3-0.7-2.2-1.5-2.7-2.4s-0.8-1.9-0.8-3v-0.3
	c0-1.8,0.8-3.4,2.5-4.6c1.7-1.3,4.2-1.9,7.6-1.9c4.5,0,9.2,0.8,14.1,2.5c4.8,1.7,9.6,4.2,14.2,7.4L692,21
	c-5.5-4.4-11.6-7.8-18.4-10.1c-6.8-2.3-14.5-3.4-23.2-3.4c-6.1,0-11.5,0.8-16.3,2.4s-8.9,3.8-12.4,6.7c-3.4,2.9-6,6.3-7.8,10.2
	s-2.7,8.3-2.7,13v0.3c0,5.2,1,9.5,2.9,13c2,3.5,4.7,6.4,8.1,8.8c3.4,2.3,7.4,4.3,12.1,5.8c4.6,1.5,9.6,2.8,15,4.1
	c3.5,0.8,6.3,1.5,8.4,2.2c2.2,0.7,3.9,1.4,5.2,2.2c1.3,0.8,2.2,1.5,2.6,2.4l0.7,2.8v0.3c0,2.2-1,3.9-3,5.1s-4.8,1.8-8.6,1.8
	c-11.7,0-22.6-4-32.8-12.1l-15.6,18.7c6.2,5.6,13.5,9.8,21.6,12.6c8.1,2.8,16.7,4.2,25.8,4.2c6.2,0,11.8-0.7,16.7-2.2
	c5-1.5,9.3-3.7,12.9-6.5c3.5-2.8,6.3-6.3,8.3-10.3s2.9-8.7,2.9-13.9v-0.3c0-4.7-0.8-8.8-2.6-12.2C690.5,63.3,688,60.4,684.7,58z
	 M729.2,12.4h-27.6v19.8h-9.3v22.1h9.3V86c0,9.4,2.3,16,7,19.9c4.6,3.9,11.1,5.9,19.4,5.9c3.9,0,7.4-0.4,10.6-1.2
	c3.2-0.8,6-1.9,8.5-3.3V85.9c-1.7,0.7-3.3,1.4-5,1.9s-3.5,0.7-5.4,0.7c-2.5,0-4.4-0.6-5.6-1.8c-1.3-1.2-1.9-3.2-1.9-6V54.3h18.2
	V32.2h-18.2V12.4L729.2,12.4z M822.3,42.5c-3.8-3.7-8.4-6.6-13.6-8.7c-5.3-2.1-11-3.3-17.2-3.3c-6.3,0-12,1.1-17.3,3.3
	s-9.9,5.1-13.7,8.8c-3.9,3.7-6.8,8.1-9,13c-2.2,5-3.2,10.2-3.2,15.8v0.3c0,5.6,1.1,10.8,3.2,15.7c2.1,4.9,5.1,9.2,9,12.9
	c3.8,3.7,8.4,6.6,13.6,8.7c5.2,2.1,11,3.2,17.3,3.2s12-1.1,17.3-3.2c5.3-2.2,9.9-5.1,13.7-8.8c3.8-3.7,6.9-8.1,9-13
	c2.2-5,3.2-10.2,3.2-15.8V71c0-5.6-1-10.8-3.2-15.7C829.1,50.4,826.1,46.1,822.3,42.5z M807.7,71.6c0,2.3-0.4,4.5-1.1,6.6
	c-0.8,2.1-1.8,4-3.2,5.5c-1.4,1.6-3.1,2.8-5.1,3.7c-2,0.9-4.3,1.4-6.8,1.4c-2.4,0-4.6-0.5-6.7-1.4c-2-1-3.8-2.2-5.3-3.8
	c-1.5-1.6-2.6-3.4-3.5-5.5c-0.8-2.1-1.2-4.4-1.2-6.7V71c0-2.3,0.4-4.5,1.2-6.6s1.9-3.9,3.2-5.5c1.4-1.6,3.1-2.8,5.1-3.7
	s4.2-1.4,6.8-1.4c2.4,0,4.6,0.5,6.6,1.4c2,1,3.8,2.2,5.3,3.8s2.7,3.4,3.5,5.5s1.2,4.3,1.2,6.7V71.6L807.7,71.6z M887.9,30.5
	c-2.7,0-5.3,0.4-7.5,1.1c-2.3,0.7-4.4,1.6-6.3,2.8c-1.9,1.2-3.6,2.5-5.1,4s-2.9,3.1-4.1,4.8v-11h-27.6v78.1h27.6V68
	c0-4.3,1.1-7.6,3.2-9.8c2.1-2.2,4.9-3.3,8.2-3.3c3.2,0,5.8,1.1,7.8,3.3s3,5.5,3,9.8v42.3h27.6V59.2c0-8.9-2.3-16-7-21.1
	C902.9,33,896.3,30.5,887.9,30.5z M989.4,43.2c-3.2-3.9-7.3-7-12.3-9.3s-10.8-3.5-17.5-3.5c-5.8,0-11.1,1.1-15.9,3.2
	c-4.8,2.1-9,5-12.5,8.7s-6.2,8-8.2,13c-1.9,5-2.9,10.3-2.9,15.9v0.3c0,6,1,11.6,3.1,16.6s5,9.3,8.7,12.8s8.1,6.3,13.2,8.2
	c5.1,2,10.7,3,16.9,3c7.8,0,14.5-1.4,20-4.3s10.2-6.7,13.9-11.5l-15.1-12.6c-2.8,2.8-5.5,4.8-8.3,6.1c-2.7,1.2-5.8,1.9-9,1.9
	c-4.3,0-8-1.1-10.9-3.2s-4.9-5.3-6-9.7h52.3l0.1-2.9v-2.7c0-5.8-0.8-11.2-2.4-16.4C995,51.7,992.6,47.1,989.4,43.2z M946.1,64.8
	c0.8-4.4,2.3-7.8,4.6-10.3s5.3-3.8,8.9-3.8c3.8,0,6.8,1.3,9.2,3.8s3.9,6,4.4,10.3H946.1z M968,26.9h3.5V9.4h6.3V6.2h-16v3.2h6.2
	V26.9L968,26.9z M1000.6,6.2l-6.3,13l-6.2-13h-5.4v20.7h3.5V10.7l7.2,14.3h1.9l7.2-14.3v16.1h3.5V6.2H1000.6z"/>
<path id="magnumstone" class="st0" d="M25.1,154.8c-4,0-7.3,1.4-9.9,4.3v-16.3H6v45.8h9.2v-4.4c2.6,3.2,5.9,4.9,9.8,4.9
	s7.4-1.7,10.5-5s4.6-7.4,4.6-12.4c0-4.9-1.5-9-4.5-12.1C32.6,156.4,29.1,154.8,25.1,154.8z M28.4,178.6c-1.6,1.7-3.5,2.6-5.6,2.6
	s-4-0.9-5.5-2.6c-1.5-1.7-2.3-3.9-2.3-6.6c0-2.7,0.7-4.9,2.3-6.7c1.5-1.8,3.4-2.7,5.5-2.7c2.2,0,4,0.9,5.6,2.7s2.3,4.1,2.3,6.7
	C30.8,174.7,30,176.9,28.4,178.6z M58.9,176.1l-8.1-20.7H41c8.5,21.6,12.8,32.8,12.8,33.8l-0.9,2.7l-2.2,1.3c-1.7,0-3.3-0.8-4.8-2.3
	l-4.2,6.8c2.9,2.7,5.9,4,9.2,4c2.4,0,4.5-0.6,6.4-1.9c1.9-1.3,3.3-3,4.2-5.3l15.4-39.1H67L58.9,176.1z M116.7,153.7
	c4.5,0,8.3,1.9,11.3,5.7l6-6.8c-4.8-5.4-10.7-8.1-17.8-8.1c-6.3,0-11.7,2.1-16.1,6.4c-4.4,4.3-6.6,9.6-6.6,16s2.1,11.7,6.4,15.9
	s9.8,6.3,16.4,6.3s12.4-2.7,17.3-8.3l-6.2-6.3c-3,3.7-6.8,5.6-11.6,5.6c-3.5,0-6.4-1.2-8.8-3.6c-2.4-2.4-3.6-5.6-3.6-9.6
	s1.3-7.2,3.8-9.6C110,154.8,113.1,153.7,116.7,153.7z M159.4,144.5c-6.4,0-11.7,2.1-16.1,6.4c-4.4,4.3-6.5,9.5-6.5,15.9
	c0,6.3,2.2,11.6,6.5,15.9c4.3,4.3,9.7,6.4,16.1,6.4c6.4,0,11.7-2.1,16.1-6.4c4.4-4.3,6.5-9.6,6.5-15.9c0-6.3-2.2-11.6-6.5-15.9
	C171.1,146.6,165.7,144.5,159.4,144.5z M168.5,176.6c-2.5,2.7-5.5,4-9.1,4s-6.6-1.3-9.1-4s-3.7-6-3.7-9.8s1.2-7.1,3.7-9.8
	s5.5-4.1,9.1-4.1s6.6,1.4,9.1,4.1c2.5,2.7,3.7,6,3.7,9.8S170.9,173.9,168.5,176.6z M223.8,159.8c0-5-1.4-8.7-4.3-10.9
	c-2.9-2.3-7.6-3.4-14.3-3.4h-16.3v43.1h9.6v-13.7h6.6l9.6,13.7h11.8l-10.9-15.4C221.1,171.1,223.8,166.7,223.8,159.8z M212.3,164.9
	c-1.2,1.1-3.4,1.6-6.7,1.6h-7v-12.8h7.2c3.1,0,5.2,0.4,6.5,1.3c1.3,0.9,1.9,2.5,1.9,4.8C214,162.1,213.5,163.8,212.3,164.9z
	 M262.6,173.2l-21.2-27.7h-9v43.1h9.6v-27l20.5,27h9.6v-43.1h-9.6L262.6,173.2L262.6,173.2z M291.2,171.1h19.3v-8.2h-19.3V154h21.5
	v-8.6h-31.1v43.1h31.7V180h-22.1V171.1L291.2,171.1z M355.7,159.8c0-5-1.4-8.7-4.3-10.9c-2.9-2.3-7.6-3.4-14.4-3.4h-16.3v43.1h9.6
	v-13.7h6.7l9.5,13.7h11.8l-10.9-15.4C352.9,171.1,355.7,166.7,355.7,159.8z M344.1,164.9c-1.2,1.1-3.4,1.6-6.7,1.6h-7v-12.8h7.2
	c3.1,0,5.2,0.4,6.5,1.3c1.2,0.9,1.9,2.5,1.9,4.8C345.9,162.1,345.3,163.8,344.1,164.9z M382.5,162.7c-4.1-1-6.7-1.9-7.8-2.6
	c-1.1-0.7-1.7-1.7-1.7-3s0.5-2.3,1.4-3s2.2-1.1,3.8-1.1c4,0,7.9,1.4,11.6,4.3l4.9-7c-2.2-1.8-4.6-3.2-7.5-4.2s-5.8-1.5-8.6-1.5
	c-4.4,0-8.1,1.1-11,3.3s-4.4,5.4-4.4,9.5s1.1,7.1,3.5,9c2.3,1.9,6,3.5,11,4.7c3.2,0.8,5.3,1.6,6.4,2.3c1,0.8,1.6,1.8,1.6,3.1
	s-0.5,2.3-1.5,3.1s-2.4,1.1-4.2,1.1c-3.9,0-8.3-2-12.9-6.1l-5.7,7c5.5,5,11.6,7.6,18.4,7.6c4.7,0,8.5-1.2,11.4-3.6
	c2.9-2.4,4.4-5.5,4.4-9.4s-1.1-6.8-3.4-8.8C389.8,165.2,386.6,163.7,382.5,162.7z M398.5,153.8h12.2v34.8h9.6v-34.8h12.2v-8.3h-34
	L398.5,153.8L398.5,153.8z M457.3,144.5c-6.4,0-11.7,2.1-16.1,6.4c-4.4,4.3-6.5,9.5-6.5,15.9c0,6.3,2.2,11.6,6.5,15.9
	c4.4,4.3,9.7,6.4,16.1,6.4s11.7-2.1,16.1-6.4c4.4-4.3,6.5-9.6,6.5-15.9c0-6.3-2.2-11.6-6.5-15.9C469,146.6,463.6,144.5,457.3,144.5z
	 M466.4,176.6c-2.5,2.7-5.5,4-9.1,4s-6.6-1.3-9.1-4c-2.4-2.7-3.7-6-3.7-9.8s1.3-7.1,3.7-9.8c2.5-2.7,5.5-4.1,9.1-4.1
	s6.6,1.4,9.1,4.1c2.5,2.7,3.7,6,3.7,9.8S468.9,173.9,466.4,176.6z M517,173.2l-21.2-27.7h-9v43.1h9.6v-27l20.5,27h9.6v-43.1H517
	V173.2L517,173.2z M545.6,171.1h19.3v-8.2h-19.3V154H567v-8.6h-31v43.1h31.7V180h-22.1L545.6,171.1L545.6,171.1z M596,147.9
	c-2.6-2.6-5.8-4-9.6-4c-3.7,0-6.9,1.3-9.6,4c-2.6,2.7-4,5.9-4,9.6c0,3.7,1.3,6.9,3.9,9.5c2.6,2.6,5.8,4,9.6,4s7-1.3,9.6-4
	s4-5.9,4-9.6C600,153.7,598.7,150.5,596,147.9z M594.2,164.9l-3.8-5.3c2-0.9,3-2.4,3-4.7c0-1.8-0.5-3.1-1.5-4
	c-1-0.8-2.7-1.2-5.1-1.2h-6V165h4.1v-4.7h1.7l3.3,4.7L594.2,164.9c-2.2,2.3-4.7,3.3-7.8,3.3c-3,0-5.6-1-7.7-3.2
	c-2.1-2.1-3.1-4.6-3.1-7.6s1.1-5.5,3.2-7.6c2.1-2.2,4.7-3.2,7.6-3.2c3,0,5.5,1,7.6,3.1s3.1,4.6,3.1,7.6
	C597.2,160.4,596.2,162.9,594.2,164.9z M589.4,155l-0.5,1.5l-2,0.5h-2v-3.8h2.1l1.9,0.4L589.4,155z"/>
</svg>
