<svg id="svg" version="1.1" xmlns="http://www.w3.org/2000/svg" xmlns:xlink="http://www.w3.org/1999/xlink" width="400" height="83.87096774193549" viewBox="0, 0, 400,83.87096774193549"><g id="svgg"><path id="path0" d="M48.914 7.624 C 41.673 10.209,43.034 20.771,50.656 21.135 C 57.154 21.446,60.511 13.980,55.932 9.401 C 54.034 7.503,51.237 6.795,48.914 7.624 M290.167 35.417 L 290.167 59.667 306.253 59.667 L 322.339 59.667 322.294 55.125 L 322.250 50.583 312.125 50.540 L 302.000 50.497 302.000 30.832 L 302.000 11.167 296.083 11.167 L 290.167 11.167 290.167 35.417 M337.500 23.259 C 335.801 23.521,333.441 24.327,332.125 25.096 C 331.598 25.404,331.164 25.602,331.161 25.536 C 331.158 25.471,331.046 25.562,330.911 25.740 C 330.777 25.918,330.667 25.998,330.667 25.917 C 330.667 25.837,330.460 25.958,330.208 26.187 C 329.956 26.415,329.462 26.814,329.109 27.072 C 328.756 27.330,328.024 28.151,327.483 28.896 C 326.941 29.641,326.420 30.344,326.325 30.458 C 326.231 30.573,326.213 30.669,326.285 30.672 C 326.357 30.675,326.284 30.754,326.121 30.849 C 325.959 30.943,325.870 31.091,325.923 31.177 C 325.976 31.263,325.936 31.333,325.833 31.333 C 325.731 31.333,325.693 31.408,325.750 31.500 C 325.807 31.592,325.769 31.667,325.667 31.667 C 325.564 31.667,325.527 31.742,325.583 31.833 C 325.640 31.925,325.602 32.000,325.500 32.000 C 325.398 32.000,325.350 32.060,325.395 32.132 C 325.440 32.205,325.332 32.589,325.155 32.985 C 322.934 37.945,323.069 46.375,325.444 51.082 C 325.676 51.541,325.891 52.047,325.923 52.206 C 325.954 52.366,326.172 52.747,326.406 53.054 C 326.640 53.361,326.782 53.662,326.721 53.723 C 326.661 53.784,326.696 53.833,326.800 53.833 C 326.904 53.833,327.303 54.249,327.687 54.757 C 328.707 56.108,332.568 59.043,332.895 58.716 C 332.953 58.658,333.000 58.703,333.000 58.815 C 333.000 58.928,333.075 58.973,333.167 58.917 C 333.258 58.860,333.333 58.899,333.333 59.004 C 333.333 59.109,333.425 59.164,333.537 59.126 C 333.650 59.089,334.231 59.224,334.829 59.426 C 338.474 60.657,344.338 60.596,347.583 59.292 C 348.042 59.108,348.583 58.937,348.786 58.911 C 349.149 58.865,350.865 57.901,351.644 57.306 C 352.709 56.493,354.333 54.934,354.333 54.725 C 354.333 54.596,354.446 54.446,354.583 54.394 C 354.721 54.341,354.833 54.219,354.833 54.123 C 354.833 54.027,355.023 53.699,355.255 53.395 C 359.363 48.009,359.519 36.724,355.570 30.551 C 355.256 30.061,355.000 29.614,355.000 29.557 C 355.000 29.500,354.869 29.346,354.708 29.214 C 354.544 29.080,354.526 29.033,354.667 29.106 C 354.804 29.178,354.512 28.771,354.017 28.202 C 353.522 27.633,353.072 27.167,353.017 27.166 C 352.962 27.166,352.717 26.998,352.472 26.791 C 352.228 26.585,351.878 26.292,351.695 26.139 C 351.511 25.986,351.318 25.905,351.264 25.958 C 351.211 26.012,351.167 25.968,351.167 25.861 C 351.167 25.754,351.054 25.667,350.917 25.667 C 350.779 25.667,350.667 25.592,350.667 25.500 C 350.667 25.408,350.554 25.333,350.417 25.333 C 350.279 25.333,350.167 25.246,350.167 25.139 C 350.167 25.032,350.120 24.991,350.063 25.048 C 350.006 25.105,349.576 24.958,349.108 24.720 C 346.196 23.245,341.460 22.648,337.500 23.259 M372.917 23.121 C 371.798 23.272,370.341 23.729,369.038 24.338 C 368.279 24.692,367.604 24.992,367.538 25.003 C 367.471 25.014,367.357 25.131,367.283 25.262 C 367.210 25.393,367.041 25.500,366.908 25.500 C 366.775 25.500,366.667 25.587,366.667 25.694 C 366.667 25.801,366.622 25.844,366.567 25.789 C 365.890 25.112,360.715 33.302,361.262 34.186 C 361.312 34.267,361.266 34.333,361.159 34.333 C 361.052 34.333,361.007 34.443,361.058 34.578 C 361.110 34.713,361.077 34.869,360.986 34.925 C 360.895 34.982,360.865 35.172,360.921 35.347 C 360.982 35.539,360.944 35.667,360.825 35.667 C 360.710 35.667,360.664 35.805,360.715 36.000 C 360.770 36.209,360.736 36.293,360.626 36.225 C 360.506 36.151,360.485 36.338,360.560 36.808 C 360.624 37.210,360.604 37.500,360.513 37.500 C 360.418 37.500,360.358 39.157,360.361 41.667 C 360.363 43.958,360.426 45.833,360.500 45.833 C 360.574 45.833,360.593 46.145,360.542 46.526 C 360.474 47.037,360.501 47.186,360.648 47.095 C 360.793 47.006,360.816 47.096,360.732 47.428 C 360.646 47.770,360.670 47.851,360.827 47.754 C 360.979 47.660,361.006 47.718,360.928 47.965 C 360.868 48.152,360.895 48.351,360.986 48.408 C 361.077 48.464,361.110 48.621,361.058 48.755 C 361.007 48.890,361.035 49.000,361.121 49.000 C 361.207 49.000,361.265 49.169,361.249 49.375 C 361.233 49.581,361.274 49.862,361.341 50.000 C 361.408 50.137,361.782 50.922,362.173 51.743 C 363.210 53.922,365.853 57.457,366.468 57.489 C 366.588 57.495,366.640 57.575,366.583 57.667 C 366.527 57.758,366.597 57.833,366.740 57.833 C 366.883 57.833,367.000 57.921,367.000 58.028 C 367.000 58.135,367.044 58.178,367.097 58.125 C 367.151 58.072,367.341 58.174,367.520 58.353 C 367.699 58.532,367.918 58.634,368.006 58.580 C 368.094 58.525,368.167 58.541,368.167 58.616 C 368.167 58.757,368.278 58.803,370.737 59.672 C 373.413 60.617,377.099 60.544,379.303 59.501 C 379.854 59.241,380.349 59.071,380.403 59.125 C 380.456 59.178,380.500 59.130,380.500 59.018 C 380.500 58.906,380.567 58.855,380.649 58.906 C 380.731 58.957,380.843 58.881,380.898 58.738 C 380.953 58.596,381.068 58.522,381.154 58.576 C 381.240 58.629,381.428 58.504,381.572 58.299 C 381.716 58.094,381.833 57.995,381.833 58.079 C 381.833 58.163,382.088 57.985,382.399 57.683 L 382.966 57.135 383.033 58.026 C 383.154 59.627,382.473 62.096,381.674 62.954 C 381.487 63.155,381.333 63.389,381.333 63.473 C 381.333 63.691,380.229 64.507,380.104 64.382 C 380.047 64.325,380.000 64.370,380.000 64.482 C 380.000 64.594,379.925 64.640,379.833 64.583 C 379.742 64.527,379.667 64.564,379.667 64.667 C 379.667 64.769,379.592 64.807,379.500 64.750 C 379.408 64.693,379.333 64.724,379.333 64.818 C 379.333 64.912,379.221 64.946,379.083 64.894 C 378.946 64.841,378.833 64.878,378.833 64.977 C 378.833 65.076,378.728 65.116,378.600 65.067 C 378.472 65.018,378.324 65.047,378.271 65.133 C 378.218 65.219,377.985 65.252,377.754 65.208 C 377.523 65.164,377.333 65.193,377.333 65.272 C 377.333 65.352,376.583 65.417,375.666 65.417 C 374.750 65.417,374.000 65.352,374.000 65.272 C 374.000 65.193,373.811 65.164,373.579 65.208 C 373.348 65.252,373.115 65.219,373.062 65.133 C 373.010 65.047,372.864 65.017,372.738 65.065 C 372.613 65.113,372.466 65.079,372.410 64.990 C 372.355 64.901,372.246 64.868,372.167 64.917 C 372.088 64.965,371.975 64.928,371.917 64.833 C 371.858 64.739,371.740 64.704,371.655 64.757 C 371.570 64.810,371.500 64.769,371.500 64.667 C 371.500 64.564,371.433 64.522,371.352 64.572 C 371.170 64.685,369.667 63.864,369.667 63.652 C 369.667 63.569,369.610 63.518,369.542 63.540 C 369.473 63.562,369.004 63.188,368.500 62.710 C 367.996 62.231,367.508 61.839,367.417 61.839 C 367.232 61.837,366.500 62.897,366.500 63.164 C 366.500 63.257,366.425 63.333,366.333 63.333 C 366.242 63.333,366.167 63.448,366.167 63.589 C 366.167 63.729,366.054 63.887,365.917 63.940 C 365.779 63.992,365.667 64.140,365.667 64.268 C 365.667 64.396,365.592 64.500,365.500 64.500 C 365.408 64.500,365.332 64.594,365.331 64.708 C 365.329 64.823,365.104 65.171,364.831 65.481 C 364.557 65.791,364.333 66.091,364.333 66.148 C 364.333 66.204,364.126 66.492,363.873 66.788 C 363.620 67.083,363.266 67.599,363.086 67.934 L 362.758 68.543 363.670 69.384 C 365.179 70.773,368.357 72.639,369.342 72.713 C 369.521 72.727,369.667 72.805,369.667 72.887 C 369.667 72.969,369.779 72.992,369.917 72.940 C 370.054 72.887,370.167 72.924,370.167 73.023 C 370.167 73.122,370.277 73.160,370.411 73.108 C 370.546 73.057,370.703 73.091,370.762 73.185 C 370.820 73.279,370.972 73.316,371.100 73.267 C 371.228 73.217,371.333 73.258,371.333 73.357 C 371.333 73.465,371.499 73.495,371.750 73.432 C 372.013 73.366,372.167 73.397,372.167 73.518 C 372.167 73.641,372.344 73.673,372.667 73.608 C 372.980 73.546,373.167 73.577,373.167 73.692 C 373.167 73.813,373.394 73.840,373.833 73.769 C 374.242 73.704,374.500 73.728,374.500 73.831 C 374.500 73.935,375.208 74.000,376.333 74.000 C 377.485 74.000,378.167 73.936,378.167 73.828 C 378.167 73.717,378.466 73.695,379.000 73.766 C 379.563 73.840,379.833 73.817,379.833 73.692 C 379.833 73.577,380.019 73.546,380.333 73.608 C 380.656 73.673,380.833 73.641,380.833 73.518 C 380.833 73.397,380.987 73.366,381.250 73.432 C 381.501 73.495,381.667 73.465,381.667 73.357 C 381.667 73.258,381.776 73.219,381.909 73.270 C 382.042 73.321,382.245 73.305,382.360 73.234 C 382.475 73.162,382.722 73.082,382.910 73.056 C 383.587 72.959,383.691 72.923,385.552 72.134 C 386.561 71.706,388.376 70.629,388.879 70.159 C 389.072 69.980,389.281 69.833,389.345 69.833 C 389.542 69.833,391.167 68.215,391.167 68.019 C 391.167 67.917,391.229 67.833,391.306 67.833 C 391.818 67.833,394.189 63.107,393.906 62.649 C 393.855 62.567,393.902 62.500,394.010 62.500 C 394.123 62.500,394.169 62.360,394.118 62.167 C 394.070 61.984,394.105 61.788,394.196 61.732 C 394.286 61.676,394.316 61.456,394.263 61.242 C 394.209 61.028,394.246 60.804,394.344 60.743 C 394.461 60.671,394.484 60.268,394.411 59.587 C 394.336 58.890,394.360 58.503,394.483 58.427 C 394.615 58.346,394.667 53.441,394.667 40.990 L 394.667 23.667 389.438 23.667 L 384.210 23.667 384.099 24.542 C 384.038 25.023,383.947 25.649,383.897 25.932 L 383.806 26.447 383.302 25.991 C 382.446 25.217,382.167 24.996,382.167 25.095 C 382.167 25.147,381.960 25.044,381.708 24.866 C 379.673 23.432,376.004 22.704,372.917 23.121 M343.639 32.403 C 344.330 32.760,345.703 34.139,345.575 34.347 C 345.522 34.432,345.596 34.547,345.738 34.602 C 345.881 34.657,345.957 34.769,345.906 34.851 C 345.855 34.933,345.891 35.000,345.985 35.000 C 346.079 35.000,346.113 35.112,346.060 35.250 C 346.006 35.392,346.056 35.500,346.177 35.500 C 346.293 35.500,346.345 35.544,346.290 35.599 C 346.236 35.653,346.296 36.044,346.424 36.469 C 347.107 38.737,347.162 44.091,346.527 46.500 C 346.346 47.188,346.172 47.862,346.141 47.999 C 346.109 48.137,345.978 48.332,345.849 48.433 C 345.720 48.534,345.604 48.766,345.590 48.949 C 345.561 49.342,344.948 50.167,344.684 50.167 C 344.583 50.167,344.500 50.228,344.500 50.303 C 344.500 50.520,343.207 51.187,342.360 51.406 C 341.042 51.746,338.513 51.368,338.003 50.754 C 337.889 50.616,337.724 50.548,337.637 50.602 C 337.549 50.656,337.436 50.543,337.386 50.350 C 337.336 50.158,337.231 50.000,337.154 50.000 C 334.727 50.000,334.056 36.611,336.366 34.300 C 336.532 34.135,336.610 34.000,336.542 34.000 C 336.323 34.000,337.722 32.821,338.454 32.389 C 339.746 31.626,342.151 31.633,343.639 32.403 M380.117 32.068 C 381.037 32.313,381.679 32.704,382.488 33.514 L 382.987 34.012 382.997 41.527 C 383.002 45.661,383.043 49.101,383.087 49.172 C 383.168 49.303,381.940 50.379,381.167 50.855 C 379.590 51.826,375.850 51.723,375.000 50.685 C 374.954 50.629,374.804 50.583,374.667 50.583 C 374.529 50.583,374.435 50.490,374.458 50.375 C 374.481 50.260,374.406 50.185,374.292 50.208 C 374.177 50.231,374.102 50.156,374.125 50.042 C 374.148 49.927,374.062 49.833,373.935 49.833 C 372.997 49.833,371.651 45.170,371.651 41.917 C 371.651 38.609,372.993 33.668,373.891 33.667 C 373.969 33.667,374.272 33.398,374.564 33.070 C 375.553 31.959,378.028 31.512,380.117 32.068 " stroke="none" fill="#049bdb" fill-rule="evenodd"></path><path id="path1" d="M184.003 18.792 C 184.001 21.710,184.060 23.333,184.167 23.333 C 184.388 23.333,184.388 14.842,184.167 14.500 C 184.060 14.335,184.004 15.798,184.003 18.792 M172.739 19.000 C 172.739 21.429,172.763 22.423,172.791 21.208 C 172.820 19.994,172.820 18.006,172.791 16.792 C 172.763 15.577,172.739 16.571,172.739 19.000 M266.250 22.833 C 266.040 22.924,266.009 22.977,266.167 22.977 C 266.304 22.977,266.567 22.912,266.750 22.833 C 266.960 22.743,266.991 22.690,266.833 22.690 C 266.696 22.690,266.433 22.755,266.250 22.833 M45.580 41.333 C 45.580 51.279,45.600 55.348,45.625 50.375 C 45.649 45.402,45.649 37.265,45.625 32.292 C 45.600 27.319,45.580 31.387,45.580 41.333 M168.239 27.333 C 168.239 29.579,168.262 30.498,168.291 29.375 C 168.320 28.252,168.320 26.415,168.291 25.292 C 168.262 24.169,168.239 25.087,168.239 27.333 M213.707 35.925 C 213.681 44.038,213.607 48.672,213.501 48.801 C 213.407 48.913,213.444 48.907,213.585 48.785 C 213.804 48.596,213.830 47.003,213.792 35.910 L 213.748 23.250 213.707 35.925 M225.080 41.333 C 225.080 51.279,225.100 55.348,225.125 50.375 C 225.149 45.402,225.149 37.265,225.125 32.292 C 225.100 27.319,225.080 31.387,225.080 41.333 M229.580 41.333 C 229.580 51.279,229.600 55.348,229.625 50.375 C 229.649 45.402,229.649 37.265,229.625 32.292 C 229.600 27.319,229.580 31.387,229.580 41.333 M16.205 24.000 C 16.205 24.321,16.240 24.452,16.282 24.292 C 16.323 24.131,16.323 23.869,16.282 23.708 C 16.240 23.548,16.205 23.679,16.205 24.000 M143.333 24.083 C 142.789 24.394,142.979 24.398,143.689 24.090 C 143.998 23.956,144.137 23.846,144.000 23.846 C 143.862 23.845,143.563 23.952,143.333 24.083 M82.083 24.402 C 82.358 24.638,82.652 24.832,82.736 24.833 C 82.917 24.833,82.915 24.832,82.167 24.349 L 81.583 23.972 82.083 24.402 M128.787 25.846 C 128.991 26.058,129.199 26.190,129.251 26.138 C 129.302 26.087,129.135 25.913,128.880 25.752 L 128.417 25.460 128.787 25.846 M255.000 29.667 C 254.804 29.942,254.681 30.167,254.727 30.167 C 254.773 30.167,254.971 29.942,255.167 29.667 C 255.362 29.392,255.485 29.167,255.439 29.167 C 255.394 29.167,255.196 29.392,255.000 29.667 M5.872 29.833 C 5.987 30.017,6.138 30.167,6.208 30.167 C 6.279 30.167,6.242 30.017,6.128 29.833 C 6.013 29.650,5.862 29.500,5.792 29.500 C 5.721 29.500,5.758 29.650,5.872 29.833 M24.387 30.118 C 24.529 30.349,25.167 30.512,25.167 30.318 C 25.167 30.235,25.098 30.167,25.014 30.167 C 24.929 30.167,24.730 30.116,24.570 30.055 C 24.387 29.985,24.319 30.008,24.387 30.118 M170.540 31.291 L 172.664 31.343 172.708 40.463 L 172.753 49.583 172.793 40.375 L 172.833 31.167 170.625 31.203 L 168.417 31.239 170.540 31.291 M184.012 39.792 C 184.018 44.760,184.084 48.275,184.167 48.083 C 184.245 47.900,184.315 44.058,184.322 39.546 L 184.333 31.341 187.208 31.291 L 190.083 31.242 187.042 31.204 L 184.000 31.167 184.012 39.792 M251.381 32.750 C 251.382 33.208,251.415 33.376,251.453 33.123 C 251.491 32.869,251.490 32.494,251.451 32.289 C 251.411 32.084,251.380 32.292,251.381 32.750 M135.705 33.667 C 135.705 33.987,135.740 34.119,135.782 33.958 C 135.823 33.798,135.823 33.535,135.782 33.375 C 135.740 33.215,135.705 33.346,135.705 33.667 M146.980 33.964 C 146.925 34.295,146.950 34.450,147.042 34.358 C 147.126 34.274,147.167 34.028,147.133 33.811 C 147.080 33.477,147.057 33.501,146.980 33.964 M155.167 36.328 L 155.167 37.155 153.458 37.209 L 151.750 37.263 153.542 37.298 L 155.333 37.333 155.333 36.417 C 155.333 35.912,155.296 35.500,155.250 35.500 C 155.204 35.500,155.167 35.872,155.167 36.328 M120.579 48.000 C 120.579 54.279,120.600 56.848,120.625 53.708 C 120.650 50.569,120.650 45.431,120.625 42.292 C 120.600 39.152,120.579 41.721,120.579 48.000 M266.125 37.791 C 267.706 37.819,270.294 37.819,271.875 37.791 C 273.456 37.764,272.162 37.742,269.000 37.742 C 265.837 37.742,264.544 37.764,266.125 37.791 M39.440 39.662 C 39.601 39.934,39.754 40.135,39.781 40.108 C 39.870 40.019,39.419 39.169,39.282 39.168 C 39.208 39.167,39.279 39.389,39.440 39.662 M60.820 39.292 C 60.744 39.990,60.761 40.333,60.869 40.333 C 60.941 40.333,61.000 40.071,61.000 39.750 C 61.000 39.256,60.862 38.905,60.820 39.292 M140.167 39.682 C 139.890 39.908,139.862 39.965,140.083 39.850 C 140.627 39.569,140.928 39.338,140.750 39.340 C 140.658 39.340,140.396 39.494,140.167 39.682 M251.879 42.000 C 251.879 42.412,251.911 42.581,251.951 42.375 C 251.991 42.169,251.991 41.831,251.951 41.625 C 251.911 41.419,251.879 41.587,251.879 42.000 M60.821 42.208 C 60.731 42.506,60.765 43.500,60.866 43.500 C 60.940 43.500,61.000 43.200,61.000 42.833 C 61.000 42.307,60.898 41.952,60.821 42.208 M150.833 43.500 C 151.156 43.709,151.333 43.709,151.333 43.500 C 151.333 43.408,151.165 43.334,150.958 43.336 C 150.655 43.338,150.631 43.369,150.833 43.500 M3.000 43.625 C 3.000 43.739,7.745 43.736,13.000 43.619 C 14.146 43.593,12.365 43.556,9.042 43.536 C 5.719 43.516,3.000 43.556,3.000 43.625 M155.235 46.250 C 155.235 47.808,155.260 48.468,155.291 47.717 C 155.321 46.965,155.321 45.690,155.291 44.883 C 155.260 44.077,155.235 44.692,155.235 46.250 M74.167 49.384 C 74.167 49.414,74.401 49.658,74.688 49.927 C 75.052 50.270,75.145 50.312,74.996 50.066 C 74.813 49.764,74.167 49.232,74.167 49.384 M66.000 56.250 C 66.311 56.571,66.603 56.833,66.649 56.833 C 66.695 56.833,66.478 56.571,66.167 56.250 C 65.856 55.929,65.564 55.667,65.518 55.667 C 65.472 55.667,65.689 55.929,66.000 56.250 " stroke="none" fill="#3c3c3c" fill-rule="evenodd"></path><path id="path2" d="M19.288 10.299 C 18.943 10.329,18.700 10.420,18.750 10.500 C 18.800 10.581,18.565 10.602,18.228 10.547 C 17.848 10.486,17.653 10.510,17.715 10.610 C 17.776 10.708,17.610 10.743,17.301 10.697 C 16.911 10.640,16.818 10.674,16.919 10.837 C 17.010 10.985,16.986 11.011,16.840 10.921 C 16.718 10.845,16.569 10.887,16.484 11.020 C 16.370 11.201,16.338 11.203,16.336 11.032 C 16.334 10.899,16.252 10.865,16.125 10.944 C 16.010 11.016,15.729 11.101,15.500 11.132 C 15.271 11.163,15.028 11.290,14.959 11.412 C 14.889 11.537,14.687 11.597,14.500 11.548 C 14.301 11.496,14.167 11.543,14.167 11.665 C 14.167 11.777,14.069 11.832,13.950 11.786 C 13.656 11.673,12.667 12.103,12.667 12.343 C 12.667 12.449,12.552 12.492,12.412 12.438 C 12.269 12.383,12.039 12.479,11.888 12.655 C 11.738 12.831,11.505 12.928,11.365 12.874 C 11.211 12.815,11.155 12.846,11.222 12.954 C 11.282 13.052,11.215 13.176,11.074 13.231 C 10.904 13.296,10.852 13.259,10.922 13.123 C 10.981 13.010,10.866 13.104,10.667 13.333 C 10.467 13.563,10.354 13.637,10.415 13.500 C 10.486 13.338,10.440 13.353,10.286 13.542 C 10.154 13.702,9.959 13.833,9.851 13.833 C 9.744 13.833,9.613 13.946,9.560 14.083 C 9.508 14.221,9.365 14.333,9.244 14.333 C 9.122 14.333,8.862 14.559,8.665 14.835 C 8.469 15.111,8.238 15.294,8.154 15.242 C 8.069 15.190,7.926 15.339,7.837 15.573 C 7.748 15.808,7.631 16.000,7.578 16.000 C 7.524 16.000,7.529 15.906,7.588 15.792 C 7.647 15.677,7.461 15.831,7.176 16.133 C 6.891 16.435,6.702 16.756,6.758 16.846 C 6.813 16.935,6.767 16.988,6.655 16.962 C 6.543 16.937,6.385 17.163,6.303 17.464 C 6.221 17.765,6.090 17.972,6.011 17.924 C 5.825 17.808,5.633 18.311,5.775 18.541 C 5.845 18.653,5.804 18.668,5.664 18.582 C 5.504 18.483,5.473 18.521,5.550 18.723 C 5.608 18.875,5.579 19.000,5.485 19.000 C 5.391 19.000,5.357 19.070,5.410 19.155 C 5.462 19.240,5.432 19.355,5.343 19.410 C 5.254 19.466,5.223 19.621,5.275 19.755 C 5.327 19.890,5.282 20.000,5.175 20.000 C 5.068 20.000,5.023 20.070,5.076 20.155 C 5.129 20.240,5.095 20.358,5.000 20.417 C 4.905 20.475,4.868 20.588,4.917 20.667 C 4.965 20.746,4.929 20.858,4.835 20.915 C 4.742 20.973,4.704 21.241,4.752 21.510 C 4.799 21.780,4.767 22.000,4.680 22.000 C 4.586 22.000,4.548 22.793,4.585 23.958 C 4.646 25.840,4.688 26.250,4.921 27.167 C 4.979 27.396,5.033 27.677,5.041 27.792 C 5.049 27.906,5.122 28.000,5.204 28.000 C 5.286 28.000,5.307 28.075,5.250 28.167 C 5.193 28.258,5.231 28.333,5.335 28.333 C 5.450 28.333,5.479 28.469,5.410 28.688 C 5.335 28.924,5.358 29.004,5.480 28.929 C 5.594 28.858,5.626 28.912,5.564 29.073 C 5.505 29.227,5.577 29.373,5.742 29.437 C 5.895 29.495,5.980 29.645,5.932 29.770 C 5.884 29.894,5.899 29.978,5.964 29.956 C 6.030 29.935,6.096 29.983,6.111 30.065 C 6.126 30.146,6.238 30.275,6.361 30.351 C 6.483 30.427,6.587 30.623,6.591 30.786 C 6.595 30.950,6.695 31.063,6.812 31.038 C 6.929 31.012,6.976 31.071,6.916 31.168 C 6.776 31.394,9.325 34.025,9.550 33.886 C 9.643 33.828,9.667 33.864,9.604 33.966 C 9.542 34.067,9.643 34.231,9.829 34.331 C 10.015 34.430,10.168 34.453,10.170 34.381 C 10.172 34.309,10.329 34.438,10.518 34.667 C 10.707 34.896,10.810 34.984,10.747 34.863 C 10.652 34.682,10.693 34.680,10.972 34.854 C 11.159 34.971,11.275 35.127,11.229 35.200 C 11.184 35.273,11.226 35.333,11.323 35.333 C 11.421 35.333,11.537 35.333,11.583 35.333 C 11.629 35.333,11.815 35.482,11.996 35.663 C 12.177 35.844,12.439 35.949,12.578 35.896 C 12.724 35.840,12.874 35.911,12.933 36.065 C 12.989 36.212,13.096 36.294,13.171 36.248 C 13.245 36.201,13.425 36.282,13.570 36.427 C 13.715 36.572,13.833 36.647,13.833 36.593 C 13.833 36.540,14.115 36.672,14.458 36.888 C 14.802 37.104,15.177 37.249,15.292 37.210 C 15.406 37.171,15.500 37.218,15.500 37.315 C 15.500 37.412,15.725 37.608,16.000 37.750 C 16.317 37.914,16.500 37.942,16.500 37.826 C 16.500 37.725,16.620 37.763,16.767 37.909 C 17.170 38.313,18.176 38.684,18.569 38.575 C 18.815 38.507,18.851 38.524,18.692 38.634 C 18.434 38.813,19.229 39.084,19.508 38.912 C 19.595 38.858,19.667 38.884,19.667 38.970 C 19.667 39.192,20.610 39.555,20.831 39.418 C 20.932 39.356,21.201 39.427,21.429 39.576 C 21.656 39.725,21.927 39.795,22.030 39.731 C 22.149 39.658,22.172 39.690,22.092 39.819 C 22.014 39.945,22.052 40.005,22.192 39.977 C 22.315 39.953,22.642 40.050,22.917 40.193 C 23.192 40.337,23.510 40.421,23.625 40.380 C 23.740 40.339,23.833 40.395,23.833 40.504 C 23.833 40.615,23.948 40.659,24.092 40.603 C 24.261 40.538,24.309 40.571,24.231 40.697 C 24.152 40.826,24.204 40.855,24.389 40.784 C 24.542 40.725,24.667 40.750,24.667 40.839 C 24.667 40.927,24.723 40.986,24.792 40.969 C 24.860 40.951,25.216 41.120,25.583 41.343 C 25.949 41.566,26.362 41.723,26.499 41.692 C 26.637 41.660,26.696 41.690,26.631 41.756 C 26.508 41.881,27.707 42.833,27.987 42.833 C 28.074 42.833,28.191 42.982,28.249 43.163 C 28.307 43.345,28.443 43.476,28.552 43.455 C 28.661 43.434,28.726 43.526,28.697 43.660 C 28.667 43.794,28.775 44.001,28.937 44.119 C 29.098 44.237,29.169 44.333,29.095 44.333 C 29.020 44.333,29.039 44.430,29.137 44.547 C 29.234 44.665,29.364 45.134,29.424 45.589 C 29.484 46.044,29.540 46.454,29.548 46.500 C 29.557 46.546,29.504 46.833,29.432 47.138 C 29.360 47.443,29.280 47.885,29.254 48.120 C 29.228 48.355,29.086 48.615,28.937 48.699 C 28.788 48.782,28.667 48.927,28.667 49.020 C 28.667 49.267,28.291 49.605,27.867 49.739 C 27.665 49.803,27.500 49.968,27.500 50.104 C 27.500 50.241,27.432 50.311,27.348 50.259 C 27.134 50.127,26.650 50.338,26.760 50.516 C 26.810 50.597,26.738 50.620,26.600 50.567 C 26.462 50.514,26.252 50.531,26.133 50.605 C 26.014 50.680,25.767 50.763,25.583 50.792 C 25.400 50.820,25.229 50.902,25.204 50.975 C 25.179 51.047,24.777 51.076,24.311 51.039 C 23.687 50.989,23.495 51.024,23.585 51.169 C 23.677 51.319,23.624 51.322,23.364 51.183 C 22.917 50.944,22.785 50.951,22.939 51.208 C 23.037 51.372,23.011 51.374,22.818 51.218 C 22.683 51.109,22.200 51.001,21.744 50.979 C 21.289 50.957,20.479 50.807,19.944 50.647 C 19.409 50.486,18.853 50.400,18.708 50.456 C 18.552 50.516,18.488 50.488,18.551 50.386 C 18.673 50.188,17.884 49.782,17.654 49.924 C 17.569 49.977,17.500 49.938,17.500 49.839 C 17.500 49.740,17.311 49.587,17.080 49.499 C 16.850 49.411,16.593 49.161,16.510 48.942 C 16.427 48.724,16.236 48.498,16.086 48.441 C 15.935 48.383,15.859 48.260,15.917 48.167 C 15.974 48.074,15.900 47.951,15.751 47.894 C 15.602 47.837,15.519 47.690,15.566 47.567 C 15.614 47.444,15.580 47.300,15.493 47.246 C 15.405 47.191,15.333 46.968,15.333 46.750 C 15.333 46.532,15.268 46.312,15.188 46.263 C 15.027 46.164,14.971 45.662,14.985 44.456 L 14.995 43.662 9.041 43.706 L 3.088 43.750 3.105 44.667 C 3.121 45.498,3.268 46.917,3.338 46.917 C 3.363 46.917,3.446 47.439,3.530 48.125 C 3.544 48.240,3.626 48.333,3.712 48.333 C 3.798 48.333,3.826 48.446,3.773 48.583 C 3.720 48.721,3.754 48.833,3.848 48.833 C 3.943 48.833,3.972 48.911,3.913 49.005 C 3.855 49.100,3.970 49.455,4.170 49.794 C 4.370 50.133,4.562 50.558,4.597 50.738 C 4.632 50.919,4.776 51.131,4.917 51.210 C 5.058 51.289,5.130 51.424,5.077 51.510 C 5.024 51.596,5.064 51.667,5.167 51.667 C 5.269 51.667,5.312 51.734,5.261 51.816 C 5.210 51.898,5.285 52.010,5.428 52.065 C 5.571 52.119,5.641 52.240,5.583 52.333 C 5.438 52.569,6.152 53.529,6.372 53.393 C 6.471 53.332,6.504 53.358,6.446 53.452 C 6.329 53.642,6.881 54.215,7.055 54.084 C 7.117 54.038,7.129 54.050,7.083 54.111 C 6.994 54.230,7.477 54.833,7.660 54.833 C 7.720 54.833,8.131 55.171,8.574 55.583 C 9.017 55.996,9.517 56.333,9.684 56.333 C 9.851 56.333,10.059 56.466,10.146 56.627 C 10.384 57.073,11.616 57.724,11.722 57.461 C 11.777 57.324,11.812 57.345,11.820 57.521 C 11.836 57.843,12.716 58.248,13.089 58.104 C 13.235 58.048,13.307 58.074,13.252 58.164 C 13.125 58.368,14.324 58.875,14.702 58.776 C 14.859 58.735,15.079 58.811,15.190 58.945 C 15.312 59.092,15.541 59.151,15.769 59.093 C 15.977 59.041,16.194 59.075,16.251 59.169 C 16.309 59.262,16.429 59.294,16.519 59.238 C 16.608 59.183,16.787 59.226,16.916 59.333 C 17.045 59.440,17.510 59.554,17.950 59.586 C 18.390 59.618,18.750 59.655,18.750 59.669 C 18.750 59.763,22.146 60.061,23.333 60.072 C 24.256 60.080,27.207 59.865,28.000 59.731 C 28.321 59.677,28.715 59.625,28.875 59.614 C 29.035 59.604,29.167 59.543,29.167 59.479 C 29.167 59.415,29.356 59.383,29.587 59.409 C 29.819 59.434,30.048 59.390,30.097 59.311 C 30.146 59.232,30.454 59.167,30.782 59.167 C 31.557 59.167,32.679 58.827,32.781 58.562 C 32.825 58.448,32.960 58.392,33.081 58.439 C 33.202 58.485,33.590 58.375,33.942 58.195 C 34.507 57.905,34.771 57.717,35.618 57.003 C 35.729 56.910,35.897 56.833,35.993 56.833 C 36.089 56.833,36.167 56.758,36.167 56.667 C 36.167 56.575,36.279 56.500,36.417 56.500 C 36.554 56.500,36.667 56.434,36.667 56.353 C 36.667 56.272,36.824 56.164,37.017 56.114 C 37.240 56.056,37.321 55.948,37.241 55.819 C 37.165 55.695,37.185 55.658,37.292 55.724 C 37.525 55.869,39.030 54.188,38.889 53.941 C 38.829 53.836,38.838 53.803,38.910 53.867 C 39.089 54.029,39.546 53.543,39.415 53.330 C 39.356 53.236,39.408 53.179,39.529 53.204 C 39.651 53.230,39.740 53.120,39.727 52.960 C 39.714 52.795,39.780 52.717,39.880 52.779 C 39.990 52.847,40.017 52.784,39.950 52.611 C 39.892 52.458,39.921 52.333,40.015 52.333 C 40.109 52.333,40.140 52.258,40.083 52.167 C 40.027 52.075,40.052 52.000,40.141 52.000 C 40.229 52.000,40.379 51.775,40.475 51.500 C 40.571 51.225,40.607 51.000,40.554 51.000 C 40.502 51.000,40.554 50.886,40.670 50.746 C 40.786 50.606,40.837 50.449,40.784 50.396 C 40.731 50.342,40.768 50.101,40.866 49.858 C 40.964 49.615,41.057 49.227,41.073 48.995 C 41.089 48.763,41.141 48.500,41.189 48.411 C 41.471 47.888,41.131 43.017,40.798 42.812 C 40.699 42.750,40.664 42.580,40.720 42.433 C 40.777 42.287,40.753 42.167,40.667 42.167 C 40.581 42.167,40.554 42.054,40.606 41.917 C 40.659 41.779,40.615 41.667,40.508 41.667 C 40.401 41.667,40.357 41.597,40.410 41.512 C 40.462 41.426,40.428 41.309,40.333 41.250 C 40.239 41.191,40.204 41.074,40.257 40.988 C 40.310 40.903,40.269 40.833,40.167 40.833 C 40.064 40.833,40.027 40.758,40.083 40.667 C 40.140 40.575,40.109 40.500,40.015 40.500 C 39.921 40.500,39.891 40.369,39.948 40.208 C 40.006 40.048,39.991 39.974,39.914 40.043 C 39.751 40.191,39.145 39.336,39.270 39.134 C 39.402 38.921,38.663 37.983,38.462 38.107 C 38.362 38.169,38.329 38.141,38.389 38.045 C 38.534 37.810,37.852 36.969,37.628 37.107 C 37.518 37.175,37.497 37.139,37.574 37.015 C 37.654 36.885,37.573 36.778,37.352 36.720 C 37.160 36.670,37.043 36.566,37.090 36.489 C 37.185 36.336,36.593 35.962,36.462 36.093 C 36.418 36.138,36.276 36.042,36.149 35.879 C 35.935 35.606,35.942 35.601,36.250 35.812 C 36.433 35.938,36.372 35.844,36.113 35.602 C 35.854 35.360,35.561 35.212,35.462 35.273 C 35.358 35.338,35.330 35.307,35.396 35.201 C 35.520 34.999,34.942 34.613,34.772 34.784 C 34.714 34.842,34.667 34.801,34.667 34.694 C 34.667 34.587,34.554 34.500,34.417 34.500 C 34.279 34.500,34.167 34.441,34.167 34.369 C 34.167 34.297,33.942 34.106,33.667 33.943 C 33.392 33.781,33.167 33.704,33.167 33.772 C 33.167 33.841,33.057 33.751,32.922 33.574 C 32.787 33.396,32.675 33.312,32.672 33.387 C 32.669 33.462,32.548 33.405,32.403 33.260 C 32.258 33.115,32.066 33.043,31.975 33.098 C 31.885 33.154,31.715 33.068,31.597 32.907 C 31.479 32.746,31.228 32.603,31.039 32.589 C 30.849 32.575,30.576 32.465,30.431 32.345 C 30.285 32.224,30.166 32.191,30.164 32.271 C 30.163 32.351,30.106 32.336,30.039 32.239 C 29.793 31.880,28.347 31.307,27.963 31.415 C 27.697 31.490,27.652 31.475,27.812 31.364 C 28.096 31.167,26.949 30.742,26.644 30.931 C 26.513 31.011,26.493 30.979,26.584 30.833 C 26.684 30.670,26.627 30.638,26.359 30.708 C 26.161 30.760,26.042 30.734,26.093 30.651 C 26.189 30.496,26.148 30.485,25.195 30.407 C 24.890 30.382,24.509 30.242,24.348 30.097 C 24.188 29.952,24.006 29.883,23.945 29.944 C 23.838 30.050,23.469 29.913,22.474 29.396 C 22.231 29.270,21.875 29.167,21.683 29.167 C 21.491 29.167,21.333 29.084,21.333 28.982 C 21.333 28.881,21.221 28.841,21.083 28.894 C 20.946 28.946,20.833 28.912,20.833 28.818 C 20.833 28.724,20.758 28.693,20.667 28.750 C 20.575 28.807,20.500 28.790,20.500 28.712 C 20.500 28.635,20.275 28.439,20.000 28.277 C 19.725 28.114,19.500 28.028,19.500 28.086 C 19.500 28.143,19.381 28.072,19.237 27.927 C 19.092 27.782,18.909 27.703,18.831 27.751 C 18.753 27.799,18.635 27.751,18.569 27.644 C 18.489 27.514,18.527 27.489,18.683 27.570 C 18.811 27.637,18.771 27.573,18.593 27.429 C 18.415 27.285,18.167 27.167,18.042 27.167 C 17.916 27.167,17.853 27.103,17.901 27.026 C 18.021 26.831,17.091 25.964,16.933 26.123 C 16.863 26.193,16.827 26.175,16.852 26.083 C 16.927 25.819,16.661 25.167,16.479 25.167 C 16.388 25.167,16.360 25.092,16.417 25.000 C 16.473 24.908,16.450 24.833,16.365 24.833 C 16.281 24.833,16.211 24.458,16.211 24.000 C 16.211 23.542,16.260 23.167,16.319 23.167 C 16.379 23.167,16.443 22.977,16.462 22.745 C 16.481 22.512,16.645 22.164,16.826 21.969 C 17.007 21.775,17.108 21.534,17.051 21.433 C 16.993 21.332,17.001 21.299,17.067 21.358 C 17.134 21.417,17.496 21.155,17.872 20.774 C 18.248 20.394,18.581 20.102,18.612 20.125 C 18.781 20.253,19.002 20.137,18.901 19.974 C 18.827 19.855,18.855 19.827,18.976 19.902 C 19.082 19.967,19.280 19.911,19.415 19.775 C 19.550 19.640,19.812 19.569,19.997 19.618 C 20.182 19.666,20.333 19.637,20.333 19.553 C 20.333 19.469,20.615 19.428,20.958 19.461 C 21.310 19.495,21.499 19.462,21.390 19.386 C 21.284 19.311,21.903 19.250,22.765 19.250 C 23.627 19.250,24.333 19.315,24.333 19.394 C 24.333 19.474,24.519 19.503,24.745 19.460 C 24.994 19.413,25.116 19.447,25.053 19.548 C 24.989 19.653,25.114 19.674,25.392 19.604 C 25.665 19.536,25.833 19.562,25.833 19.673 C 25.833 19.772,25.900 19.812,25.981 19.762 C 26.062 19.711,26.221 19.781,26.333 19.917 C 26.446 20.052,26.604 20.122,26.686 20.072 C 26.767 20.021,26.833 20.064,26.833 20.167 C 26.833 20.269,26.900 20.312,26.983 20.261 C 27.065 20.210,27.175 20.281,27.228 20.419 C 27.281 20.557,27.416 20.650,27.529 20.627 C 27.642 20.603,27.738 20.671,27.742 20.778 C 27.752 21.030,27.976 21.250,28.222 21.250 C 28.329 21.250,28.441 21.423,28.471 21.635 C 28.501 21.847,28.632 22.061,28.762 22.111 C 28.892 22.161,28.957 22.269,28.906 22.351 C 28.855 22.433,28.899 22.500,29.004 22.500 C 29.109 22.500,29.161 22.594,29.121 22.708 C 29.081 22.823,29.121 23.104,29.210 23.333 C 29.390 23.795,29.538 24.591,29.527 25.044 C 29.521 25.320,29.876 25.335,35.385 25.294 L 41.250 25.250 41.271 24.292 C 41.283 23.765,41.245 23.333,41.188 23.333 C 41.097 23.333,41.036 22.852,40.991 21.792 C 40.985 21.631,40.904 21.500,40.812 21.500 C 40.720 21.500,40.692 21.350,40.750 21.167 C 40.811 20.975,40.780 20.833,40.678 20.833 C 40.580 20.833,40.513 20.777,40.529 20.708 C 40.545 20.640,40.415 20.246,40.241 19.833 C 40.067 19.421,39.946 18.982,39.973 18.858 C 40.000 18.734,39.953 18.676,39.869 18.728 C 39.784 18.780,39.629 18.633,39.523 18.401 C 39.413 18.160,39.402 18.023,39.497 18.081 C 39.593 18.141,39.621 18.075,39.564 17.925 C 39.509 17.783,39.364 17.667,39.242 17.667 C 39.120 17.667,38.966 17.580,38.901 17.474 C 38.827 17.355,38.855 17.327,38.974 17.401 C 39.080 17.466,39.167 17.440,39.167 17.343 C 39.167 17.246,39.050 17.167,38.907 17.167 C 38.764 17.167,38.684 17.107,38.729 17.034 C 38.846 16.844,38.552 16.418,38.298 16.409 C 38.180 16.405,38.106 16.301,38.133 16.178 C 38.191 15.914,37.510 15.141,37.322 15.257 C 37.251 15.301,36.992 15.092,36.746 14.793 C 36.501 14.494,36.350 14.362,36.412 14.500 C 36.474 14.637,36.363 14.544,36.165 14.292 C 35.967 14.040,35.730 13.833,35.638 13.833 C 35.546 13.833,35.321 13.665,35.139 13.458 C 34.957 13.252,34.858 13.196,34.918 13.333 C 34.979 13.471,34.891 13.427,34.723 13.235 C 34.390 12.857,32.754 11.968,32.626 12.096 C 32.583 12.139,32.453 12.060,32.337 11.921 C 32.221 11.781,31.989 11.667,31.823 11.667 C 31.656 11.667,31.469 11.585,31.407 11.484 C 31.345 11.384,31.116 11.336,30.897 11.378 C 30.679 11.420,30.500 11.381,30.500 11.292 C 30.500 11.204,30.384 11.176,30.241 11.230 C 30.074 11.295,30.024 11.262,30.101 11.139 C 30.181 11.009,30.104 10.978,29.859 11.042 C 29.633 11.101,29.539 11.071,29.607 10.962 C 29.676 10.851,29.530 10.816,29.199 10.864 C 28.893 10.909,28.725 10.874,28.784 10.779 C 28.844 10.681,28.706 10.663,28.428 10.732 C 28.100 10.815,28.006 10.792,28.093 10.651 C 28.179 10.512,28.065 10.477,27.699 10.531 C 27.416 10.572,27.222 10.545,27.269 10.470 C 27.315 10.395,27.142 10.322,26.885 10.307 C 25.912 10.254,19.890 10.247,19.288 10.299 M172.799 18.833 L 172.849 23.333 170.591 23.333 L 168.333 23.333 168.333 27.292 L 168.333 31.250 170.588 31.199 L 172.843 31.149 172.852 40.783 C 172.861 49.783,172.883 51.624,172.987 51.833 C 173.010 51.879,173.061 52.250,173.102 52.658 C 173.142 53.066,173.293 53.530,173.437 53.690 C 173.581 53.849,173.650 54.059,173.590 54.156 C 173.530 54.254,173.564 54.333,173.667 54.333 C 173.769 54.333,173.810 54.402,173.758 54.487 C 173.706 54.571,173.758 54.741,173.873 54.866 C 173.989 54.990,174.108 55.202,174.138 55.337 C 174.168 55.473,174.300 55.702,174.430 55.846 C 174.560 55.991,174.667 56.195,174.667 56.299 C 174.667 56.403,174.817 56.569,175.000 56.667 C 175.183 56.765,175.333 56.923,175.333 57.018 C 175.333 57.280,175.776 57.667,175.924 57.534 C 175.995 57.469,176.003 57.505,175.941 57.612 C 175.877 57.724,176.037 57.956,176.315 58.154 C 176.857 58.540,177.080 58.598,176.901 58.308 C 176.827 58.188,176.855 58.160,176.974 58.234 C 177.080 58.299,177.167 58.452,177.167 58.573 C 177.167 58.849,178.074 59.238,178.414 59.108 C 178.553 59.054,178.667 59.075,178.667 59.153 C 178.667 59.295,179.722 59.584,180.125 59.553 C 180.240 59.544,180.333 59.593,180.333 59.662 C 180.333 59.731,180.521 59.767,180.750 59.742 C 180.979 59.717,181.167 59.746,181.167 59.807 C 181.167 60.023,184.068 60.101,186.000 59.937 C 187.867 59.777,188.811 59.609,189.708 59.275 C 189.869 59.215,190.112 59.132,190.250 59.089 C 190.463 59.022,190.500 58.410,190.500 54.922 C 190.500 51.257,190.405 50.311,190.110 51.042 C 190.046 51.202,190.023 51.203,190.013 51.046 C 190.004 50.909,189.876 50.883,189.625 50.966 C 189.128 51.130,186.622 51.095,186.338 50.920 C 186.176 50.819,186.153 50.845,186.256 51.016 C 186.375 51.213,186.354 51.215,186.123 51.027 C 185.972 50.905,185.758 50.860,185.648 50.928 C 185.515 51.011,185.492 50.981,185.581 50.837 C 185.669 50.695,185.636 50.649,185.483 50.700 C 185.356 50.742,185.171 50.621,185.071 50.430 C 184.971 50.239,184.804 50.101,184.701 50.123 C 184.589 50.146,184.555 50.050,184.618 49.887 C 184.688 49.704,184.659 49.652,184.530 49.731 C 184.404 49.809,184.372 49.761,184.436 49.592 C 184.491 49.450,184.471 49.333,184.392 49.333 C 184.312 49.333,184.266 48.977,184.289 48.542 C 184.320 47.951,184.292 47.835,184.177 48.083 C 184.081 48.292,184.019 45.200,184.012 39.792 L 184.000 31.167 187.000 31.167 L 190.000 31.167 190.000 27.250 L 190.000 23.333 187.000 23.333 L 184.000 23.333 184.000 18.833 L 184.000 14.333 178.375 14.333 L 172.750 14.333 172.799 18.833 M75.296 22.592 C 75.229 22.659,74.558 22.742,73.804 22.776 C 73.051 22.809,72.393 22.900,72.342 22.978 C 72.291 23.056,72.119 23.099,71.958 23.074 C 71.798 23.050,71.667 23.091,71.667 23.166 C 71.667 23.241,71.505 23.260,71.307 23.208 C 71.038 23.138,70.982 23.169,71.085 23.335 C 71.184 23.496,71.146 23.528,70.944 23.450 C 70.791 23.392,70.667 23.416,70.667 23.505 C 70.667 23.594,70.513 23.667,70.325 23.667 C 69.933 23.667,68.976 24.124,68.794 24.398 C 68.727 24.500,68.671 24.527,68.669 24.458 C 68.668 24.390,68.517 24.483,68.333 24.667 C 68.150 24.850,67.885 25.000,67.744 25.000 C 67.419 25.000,66.647 25.499,66.739 25.650 C 66.778 25.712,66.580 25.864,66.300 25.988 C 66.020 26.112,65.669 26.437,65.521 26.711 C 65.372 26.985,65.081 27.383,64.875 27.597 C 64.669 27.810,64.500 28.063,64.500 28.159 C 64.500 28.255,64.425 28.333,64.333 28.333 C 64.242 28.333,64.184 28.390,64.205 28.458 C 64.227 28.527,64.095 28.755,63.914 28.964 C 63.732 29.173,63.602 29.379,63.625 29.422 C 63.648 29.465,63.518 29.648,63.337 29.830 C 63.135 30.031,63.049 30.268,63.115 30.440 C 63.183 30.617,63.158 30.681,63.046 30.612 C 62.834 30.481,62.619 30.954,62.775 31.207 C 62.836 31.306,62.807 31.337,62.708 31.275 C 62.509 31.152,61.782 33.115,61.935 33.362 C 61.986 33.446,61.941 33.621,61.833 33.750 C 61.726 33.879,61.694 34.075,61.761 34.185 C 61.835 34.305,61.814 34.341,61.709 34.276 C 61.602 34.210,61.456 34.487,61.338 34.979 C 61.049 36.187,60.872 37.662,61.029 37.565 C 61.105 37.519,61.167 37.560,61.167 37.657 C 61.167 37.754,61.090 37.833,60.997 37.833 C 60.904 37.833,60.842 38.040,60.859 38.292 C 60.876 38.544,60.835 38.938,60.768 39.167 C 60.675 39.482,60.687 39.523,60.820 39.333 C 60.956 39.139,60.995 39.224,60.997 39.708 C 60.999 40.052,60.925 40.333,60.833 40.333 C 60.741 40.333,60.667 40.781,60.667 41.343 C 60.667 42.024,60.725 42.317,60.847 42.242 C 60.973 42.164,60.999 42.618,60.933 43.774 C 60.871 44.856,60.892 45.303,60.995 45.083 C 61.108 44.844,61.125 44.949,61.055 45.458 C 60.990 45.930,61.020 46.167,61.145 46.167 C 61.249 46.167,61.333 46.246,61.333 46.343 C 61.333 46.442,61.241 46.463,61.125 46.391 C 61.010 46.321,61.050 46.466,61.212 46.715 C 61.378 46.968,61.428 47.167,61.327 47.167 C 61.228 47.167,61.200 47.252,61.264 47.356 C 61.370 47.527,61.407 47.724,61.481 48.500 C 61.502 48.722,61.524 48.722,61.674 48.500 C 61.802 48.311,61.819 48.355,61.744 48.679 C 61.680 48.958,61.733 49.181,61.896 49.316 C 62.034 49.431,62.107 49.629,62.058 49.756 C 62.009 49.883,62.089 50.227,62.235 50.519 C 62.381 50.812,62.500 51.157,62.500 51.285 C 62.500 51.414,62.580 51.470,62.678 51.410 C 62.776 51.349,62.842 51.401,62.825 51.525 C 62.765 51.960,62.835 52.185,62.998 52.085 C 63.092 52.027,63.121 52.092,63.066 52.235 C 63.008 52.386,63.160 52.668,63.443 52.938 C 63.703 53.185,63.824 53.334,63.710 53.269 C 63.320 53.043,63.682 53.638,64.103 53.914 C 64.327 54.061,64.469 54.249,64.417 54.332 C 64.366 54.415,64.483 54.568,64.676 54.672 C 64.870 54.776,64.989 54.900,64.941 54.948 C 64.749 55.140,67.075 57.577,67.310 57.431 C 67.401 57.375,67.500 57.460,67.531 57.620 C 67.566 57.802,67.741 57.911,68.001 57.913 C 68.255 57.915,68.417 58.014,68.420 58.167 C 68.423 58.304,68.553 58.406,68.711 58.394 C 68.873 58.381,68.949 58.447,68.888 58.547 C 68.819 58.658,68.885 58.683,69.065 58.614 C 69.222 58.553,69.308 58.572,69.256 58.657 C 69.172 58.793,69.645 59.045,70.083 59.096 C 70.175 59.107,70.375 59.170,70.529 59.237 C 70.682 59.304,70.907 59.374,71.029 59.393 C 71.150 59.411,71.344 59.485,71.458 59.556 C 71.573 59.628,71.736 59.643,71.822 59.590 C 71.907 59.538,72.021 59.566,72.075 59.653 C 72.129 59.741,72.303 59.816,72.462 59.820 C 72.620 59.825,73.275 59.878,73.917 59.939 C 75.802 60.119,78.400 59.957,78.787 59.636 C 78.904 59.539,79.000 59.515,79.000 59.583 C 79.000 59.652,79.101 59.624,79.224 59.522 C 79.347 59.420,79.497 59.386,79.557 59.446 C 79.617 59.506,79.667 59.456,79.667 59.333 C 79.667 59.211,79.716 59.160,79.776 59.220 C 79.835 59.280,80.149 59.166,80.472 58.966 C 80.795 58.766,81.004 58.692,80.936 58.802 C 80.869 58.911,81.087 58.839,81.422 58.642 C 81.756 58.444,82.068 58.182,82.116 58.059 C 82.163 57.936,82.258 57.870,82.327 57.913 C 82.495 58.017,83.339 57.061,83.201 56.923 C 83.142 56.864,83.223 56.865,83.381 56.926 C 83.675 57.039,83.755 59.499,83.464 59.500 C 83.398 59.500,83.384 59.605,83.433 59.733 C 83.482 59.861,83.442 60.016,83.344 60.077 C 83.246 60.137,83.211 60.369,83.267 60.592 C 83.338 60.875,83.289 61.027,83.106 61.098 C 82.961 61.153,82.794 61.458,82.735 61.774 C 82.675 62.090,82.588 62.310,82.541 62.263 C 82.494 62.216,82.238 62.479,81.971 62.847 C 81.705 63.215,81.378 63.557,81.244 63.609 C 81.111 63.660,81.034 63.754,81.074 63.817 C 81.113 63.881,80.992 64.029,80.805 64.146 C 80.526 64.320,80.485 64.318,80.578 64.137 C 80.640 64.016,80.585 64.047,80.454 64.206 C 80.324 64.365,80.173 64.451,80.120 64.397 C 79.982 64.260,78.833 64.660,78.833 64.846 C 78.833 64.931,78.754 65.000,78.657 65.000 C 78.560 65.000,78.520 64.935,78.569 64.857 C 78.618 64.777,78.343 64.779,77.954 64.860 C 77.126 65.032,74.455 65.131,74.699 64.980 C 74.828 64.900,73.646 64.634,73.167 64.634 C 73.121 64.634,72.943 64.559,72.772 64.467 C 72.527 64.336,72.489 64.348,72.595 64.525 C 72.706 64.709,72.680 64.709,72.449 64.521 C 72.294 64.395,72.167 64.341,72.167 64.401 C 72.167 64.564,71.161 64.016,70.482 63.482 C 70.151 63.222,69.826 63.063,69.759 63.129 C 69.693 63.196,69.664 63.175,69.694 63.083 C 69.725 62.992,69.687 62.903,69.610 62.886 C 69.533 62.869,69.358 62.719,69.222 62.553 C 69.087 62.386,69.033 62.362,69.103 62.500 C 69.213 62.715,69.191 62.718,68.950 62.523 C 68.796 62.398,68.712 62.228,68.763 62.146 C 68.813 62.064,68.694 61.938,68.498 61.865 C 68.302 61.793,68.148 61.662,68.154 61.575 C 68.178 61.267,67.754 61.422,67.692 61.744 C 67.657 61.924,67.378 62.322,67.073 62.627 C 66.705 62.995,66.551 63.279,66.618 63.467 C 66.674 63.622,66.658 63.694,66.584 63.626 C 66.410 63.469,65.973 63.821,66.095 64.019 C 66.145 64.100,66.117 64.167,66.032 64.167 C 65.947 64.167,65.673 64.475,65.424 64.852 C 65.174 65.230,65.070 65.476,65.192 65.401 C 65.314 65.326,65.128 65.549,64.779 65.899 C 64.430 66.248,64.184 66.573,64.232 66.621 C 64.280 66.669,64.168 66.830,63.984 66.979 C 63.800 67.128,63.629 67.388,63.605 67.555 C 63.580 67.723,63.455 67.925,63.326 68.005 C 63.072 68.162,63.701 69.000,64.073 69.000 C 64.172 69.000,64.440 69.225,64.667 69.500 C 64.894 69.775,65.179 70.000,65.300 70.000 C 65.425 70.000,65.468 70.084,65.399 70.195 C 65.319 70.325,65.369 70.355,65.551 70.286 C 65.700 70.228,65.874 70.265,65.937 70.366 C 66.011 70.486,65.968 70.507,65.817 70.428 C 65.689 70.360,65.766 70.453,65.990 70.635 C 66.213 70.817,66.507 70.923,66.642 70.871 C 66.794 70.813,66.845 70.847,66.775 70.960 C 66.683 71.109,67.064 71.347,67.500 71.413 C 67.546 71.420,67.786 71.561,68.033 71.726 C 68.280 71.892,68.580 72.042,68.700 72.060 C 68.819 72.078,69.010 72.151,69.125 72.223 C 69.240 72.294,69.413 72.304,69.511 72.243 C 69.609 72.183,69.778 72.246,69.886 72.383 C 70.157 72.727,70.918 72.953,70.759 72.643 C 70.694 72.518,70.756 72.557,70.896 72.729 C 71.084 72.959,71.271 73.012,71.616 72.932 C 71.926 72.860,72.006 72.875,71.853 72.977 C 71.554 73.176,72.822 73.407,73.368 73.253 C 73.670 73.167,73.697 73.183,73.500 73.325 C 73.302 73.467,73.371 73.507,73.833 73.519 C 74.154 73.527,75.354 73.564,76.500 73.603 C 78.997 73.686,82.609 73.312,82.411 72.990 C 82.363 72.914,82.495 72.884,82.703 72.924 C 83.184 73.016,83.701 72.857,83.576 72.655 C 83.523 72.570,83.560 72.500,83.657 72.500 C 83.754 72.500,83.833 72.568,83.833 72.651 C 83.833 72.734,83.982 72.763,84.165 72.715 C 84.347 72.668,84.448 72.551,84.389 72.455 C 84.324 72.350,84.364 72.332,84.490 72.411 C 84.605 72.481,84.860 72.462,85.058 72.366 C 85.255 72.271,85.844 72.000,86.365 71.763 C 86.887 71.526,87.361 71.257,87.419 71.164 C 87.476 71.071,87.588 71.035,87.668 71.084 C 87.748 71.133,87.877 71.058,87.956 70.917 C 88.035 70.776,88.278 70.626,88.496 70.584 C 88.714 70.542,88.973 70.420,89.071 70.313 C 89.203 70.169,89.189 70.153,89.016 70.251 C 88.854 70.344,88.821 70.322,88.908 70.181 C 88.977 70.069,89.073 70.018,89.122 70.066 C 89.281 70.225,89.846 69.822,89.729 69.633 C 89.662 69.524,89.691 69.495,89.799 69.562 C 89.900 69.625,90.065 69.524,90.164 69.338 C 90.264 69.152,90.459 69.000,90.599 69.000 C 90.739 69.000,90.807 68.925,90.750 68.833 C 90.693 68.742,90.750 68.667,90.877 68.667 C 91.170 68.667,91.917 67.829,91.917 67.500 C 91.917 67.362,92.013 67.250,92.131 67.250 C 92.400 67.250,92.678 66.819,92.547 66.607 C 92.493 66.520,92.520 66.493,92.608 66.547 C 92.695 66.601,92.862 66.492,92.979 66.305 C 93.153 66.026,93.152 65.987,92.971 66.090 C 92.849 66.159,92.919 66.052,93.125 65.851 C 93.461 65.525,93.586 65.183,93.516 64.779 C 93.502 64.704,93.561 64.685,93.645 64.737 C 93.819 64.844,94.045 64.374,93.918 64.169 C 93.873 64.095,93.937 63.996,94.061 63.948 C 94.352 63.837,94.534 63.168,94.276 63.161 C 94.170 63.158,94.224 63.050,94.396 62.919 C 94.607 62.759,94.683 62.547,94.628 62.263 C 94.584 62.032,94.603 61.877,94.670 61.919 C 94.958 62.097,94.992 60.056,94.998 42.166 L 95.004 23.333 89.930 23.333 C 85.242 23.333,84.849 23.356,84.768 23.625 C 84.647 24.024,84.445 25.518,84.464 25.872 C 84.472 26.030,84.390 26.211,84.281 26.273 C 84.172 26.336,84.133 26.331,84.195 26.263 C 84.350 26.090,83.811 25.494,83.611 25.618 C 83.522 25.673,83.497 25.640,83.556 25.545 C 83.615 25.449,83.537 25.269,83.383 25.144 C 83.195 24.992,83.144 24.985,83.227 25.123 C 83.311 25.263,83.268 25.298,83.093 25.231 C 82.951 25.176,82.877 25.065,82.927 24.983 C 82.978 24.900,82.929 24.833,82.817 24.833 C 82.706 24.833,82.345 24.628,82.016 24.376 C 81.686 24.125,81.395 23.940,81.369 23.966 C 81.343 23.991,81.206 23.897,81.065 23.756 C 80.925 23.615,80.669 23.500,80.498 23.500 C 80.327 23.500,80.137 23.420,80.076 23.322 C 80.016 23.224,79.864 23.183,79.738 23.231 C 79.613 23.279,79.463 23.242,79.405 23.148 C 79.347 23.054,79.195 23.018,79.066 23.067 C 78.938 23.116,78.833 23.090,78.833 23.010 C 78.833 22.929,78.702 22.884,78.542 22.910 C 78.381 22.936,78.175 22.912,78.083 22.858 C 77.992 22.803,77.617 22.744,77.250 22.727 C 76.883 22.710,76.321 22.645,76.000 22.583 C 75.679 22.521,75.362 22.526,75.296 22.592 M119.833 22.653 C 119.604 22.717,119.154 22.755,118.833 22.737 C 118.513 22.720,118.159 22.778,118.047 22.868 C 117.936 22.958,117.750 23.000,117.635 22.962 C 117.520 22.923,117.241 22.987,117.016 23.104 C 116.791 23.221,116.541 23.275,116.460 23.225 C 116.379 23.175,116.154 23.273,115.961 23.442 C 115.768 23.611,115.664 23.657,115.730 23.544 C 115.812 23.404,115.767 23.369,115.592 23.436 C 115.450 23.491,115.333 23.615,115.333 23.712 C 115.333 23.809,115.283 23.839,115.222 23.777 C 115.161 23.716,114.965 23.797,114.788 23.958 C 114.610 24.119,114.417 24.232,114.358 24.210 C 114.161 24.138,113.667 24.353,113.667 24.511 C 113.667 24.597,113.560 24.667,113.431 24.667 C 113.301 24.667,113.163 24.760,113.125 24.874 C 113.087 24.988,112.912 25.082,112.736 25.083 C 112.561 25.083,112.435 25.177,112.458 25.292 C 112.481 25.406,112.364 25.500,112.198 25.500 C 111.825 25.500,110.966 26.369,111.034 26.677 C 111.061 26.800,110.978 26.905,110.850 26.909 C 110.722 26.913,110.559 27.067,110.489 27.250 C 110.384 27.522,110.362 27.491,110.367 27.083 C 110.376 26.449,110.188 24.394,110.066 23.792 L 109.974 23.333 104.737 23.333 L 99.500 23.333 99.500 41.333 L 99.500 59.333 105.167 59.333 L 110.833 59.333 110.833 46.677 C 110.833 38.418,110.891 33.984,111.000 33.917 C 111.092 33.860,111.167 33.664,111.167 33.480 C 111.167 33.297,111.232 33.187,111.311 33.236 C 111.506 33.357,112.034 32.757,111.875 32.596 C 111.806 32.526,111.900 32.494,112.083 32.526 C 112.310 32.565,112.399 32.504,112.361 32.333 C 112.331 32.196,112.362 32.140,112.431 32.209 C 112.500 32.278,112.707 32.203,112.890 32.042 C 113.132 31.831,113.186 31.819,113.088 32.000 C 112.977 32.203,112.993 32.211,113.176 32.042 C 113.299 31.927,113.539 31.833,113.710 31.833 C 113.880 31.833,113.979 31.767,113.929 31.686 C 113.879 31.605,114.043 31.535,114.294 31.529 C 114.545 31.524,115.181 31.483,115.708 31.440 C 116.235 31.396,116.667 31.417,116.667 31.488 C 116.667 31.558,116.910 31.631,117.208 31.650 C 118.128 31.708,118.167 31.718,118.167 31.879 C 118.167 31.965,118.282 31.991,118.423 31.937 C 118.567 31.882,118.720 31.944,118.772 32.080 C 118.823 32.212,118.988 32.361,119.140 32.410 C 119.369 32.484,120.027 33.368,120.075 33.667 C 120.082 33.712,120.155 33.855,120.236 33.983 C 120.491 34.386,120.524 35.628,120.603 47.625 L 120.679 59.333 126.346 59.333 L 132.012 59.333 131.946 46.208 C 131.882 33.624,131.856 32.467,131.628 32.239 C 131.573 32.184,131.561 31.951,131.603 31.722 C 131.649 31.466,131.613 31.347,131.508 31.412 C 131.409 31.473,131.376 31.415,131.430 31.276 C 131.554 30.952,131.198 29.667,130.984 29.667 C 130.890 29.667,130.855 29.600,130.905 29.519 C 131.036 29.307,130.667 28.333,130.456 28.333 C 130.358 28.333,130.326 28.286,130.384 28.227 C 130.442 28.169,130.353 27.925,130.186 27.685 C 130.018 27.446,129.915 27.154,129.956 27.036 C 129.997 26.919,129.930 26.844,129.807 26.870 C 129.674 26.898,129.603 26.798,129.633 26.624 C 129.663 26.443,129.533 26.274,129.292 26.183 C 129.078 26.101,128.794 25.901,128.660 25.738 C 128.438 25.467,128.460 25.469,128.917 25.754 L 129.417 26.066 129.000 25.595 C 128.771 25.336,128.340 25.020,128.042 24.893 C 127.744 24.766,127.500 24.588,127.500 24.498 C 127.500 24.407,127.388 24.333,127.250 24.333 C 127.112 24.333,127.000 24.254,127.000 24.157 C 127.000 24.060,126.925 24.027,126.833 24.083 C 126.742 24.140,126.667 24.102,126.667 24.000 C 126.667 23.898,126.592 23.860,126.500 23.917 C 126.408 23.973,126.333 23.936,126.333 23.833 C 126.333 23.731,126.258 23.693,126.167 23.750 C 126.075 23.807,126.000 23.783,126.000 23.697 C 126.000 23.554,125.080 23.260,124.792 23.311 C 124.723 23.323,124.667 23.265,124.667 23.181 C 124.667 23.098,124.535 23.051,124.375 23.077 C 124.215 23.103,123.997 23.056,123.893 22.973 C 123.788 22.890,123.638 22.833,123.559 22.847 C 123.481 22.861,123.342 22.855,123.250 22.833 C 123.158 22.811,122.746 22.773,122.333 22.750 C 121.921 22.726,121.283 22.668,120.917 22.621 C 120.550 22.575,120.063 22.589,119.833 22.653 M150.833 22.673 C 150.237 22.741,149.469 22.773,149.125 22.743 C 148.781 22.713,148.500 22.751,148.500 22.827 C 148.500 22.903,148.231 22.953,147.903 22.938 C 147.575 22.922,147.276 22.957,147.240 23.016 C 147.204 23.074,146.985 23.086,146.754 23.042 C 146.490 22.991,146.333 23.037,146.333 23.165 C 146.333 23.283,146.222 23.326,146.070 23.268 C 145.925 23.212,145.654 23.274,145.467 23.404 C 145.281 23.535,145.025 23.602,144.898 23.553 C 144.771 23.504,144.667 23.552,144.667 23.659 C 144.667 23.766,144.583 23.801,144.481 23.738 C 144.379 23.675,144.248 23.691,144.190 23.774 C 144.021 24.011,143.158 24.347,142.988 24.242 C 142.903 24.190,142.833 24.239,142.833 24.351 C 142.833 24.464,142.787 24.509,142.729 24.452 C 142.672 24.395,142.357 24.551,142.029 24.799 C 141.702 25.047,141.497 25.145,141.575 25.017 C 141.757 24.718,140.386 25.480,140.116 25.828 C 139.938 26.056,139.952 26.057,140.250 25.833 C 140.559 25.602,140.567 25.605,140.356 25.873 C 140.231 26.033,140.066 26.124,139.988 26.076 C 139.857 25.995,137.879 27.853,137.330 28.574 C 137.112 28.860,137.112 28.882,137.333 28.768 C 137.471 28.696,137.396 28.793,137.167 28.982 C 136.938 29.171,136.812 29.328,136.887 29.330 C 136.962 29.332,136.905 29.452,136.760 29.597 C 136.615 29.742,136.536 29.923,136.583 29.999 C 136.630 30.076,136.599 30.163,136.514 30.194 C 136.428 30.225,136.334 30.363,136.304 30.500 C 136.274 30.637,136.175 30.805,136.083 30.872 C 135.980 30.948,135.996 30.996,136.125 30.997 C 136.240 30.999,136.333 31.079,136.333 31.177 C 136.333 31.274,136.266 31.312,136.184 31.261 C 135.996 31.145,135.784 31.952,135.937 32.200 C 136.010 32.318,135.975 32.337,135.840 32.254 C 135.675 32.152,135.649 32.354,135.722 33.187 C 135.783 33.886,135.768 34.079,135.677 33.750 L 135.539 33.250 135.520 33.879 L 135.500 34.508 141.292 34.496 L 147.083 34.484 147.118 33.909 C 147.172 33.004,147.231 32.667,147.333 32.667 C 147.485 32.667,148.033 31.667,147.884 31.660 C 147.810 31.657,147.994 31.548,148.292 31.418 C 148.590 31.289,148.833 31.100,148.833 30.998 C 148.833 30.897,148.912 30.862,149.007 30.921 C 149.103 30.980,149.272 30.954,149.382 30.863 C 149.629 30.660,151.834 30.530,151.834 30.719 C 151.833 30.793,151.965 30.833,152.125 30.806 C 152.285 30.780,152.510 30.817,152.625 30.889 C 152.740 30.961,152.833 30.981,152.833 30.934 C 152.833 30.888,153.030 31.032,153.271 31.255 C 153.512 31.478,153.776 31.619,153.858 31.568 C 153.941 31.517,153.988 31.575,153.962 31.696 C 153.937 31.817,154.016 31.896,154.137 31.871 C 154.259 31.846,154.311 31.902,154.253 31.996 C 154.194 32.090,154.231 32.167,154.333 32.167 C 154.436 32.167,154.482 32.228,154.435 32.303 C 154.389 32.379,154.492 32.673,154.665 32.956 C 154.979 33.474,155.333 35.448,155.333 36.684 L 155.333 37.345 152.542 37.331 C 149.283 37.315,147.994 37.373,147.718 37.549 C 147.608 37.618,147.294 37.635,147.020 37.587 C 146.745 37.538,146.478 37.567,146.426 37.651 C 146.374 37.735,146.145 37.783,145.916 37.758 C 145.687 37.733,145.500 37.769,145.500 37.839 C 145.500 37.908,145.219 38.002,144.875 38.047 C 144.087 38.150,143.323 38.313,143.000 38.447 C 142.862 38.504,142.650 38.571,142.529 38.596 C 142.407 38.621,142.182 38.696,142.029 38.762 C 141.875 38.829,141.645 38.905,141.517 38.931 C 141.388 38.957,141.221 39.077,141.144 39.197 C 141.068 39.318,141.004 39.357,141.003 39.285 C 141.001 39.213,140.836 39.307,140.635 39.494 C 140.267 39.837,140.101 39.898,139.692 39.842 C 139.552 39.823,139.515 39.890,139.594 40.017 C 139.678 40.154,139.642 40.193,139.485 40.133 C 139.223 40.032,138.789 40.400,138.963 40.574 C 139.024 40.635,138.956 40.639,138.813 40.585 C 138.667 40.528,138.451 40.612,138.318 40.774 C 138.118 41.022,138.118 41.043,138.317 40.923 C 138.478 40.826,138.513 40.844,138.431 40.977 C 138.365 41.084,138.252 41.136,138.182 41.093 C 137.995 40.977,136.970 42.081,137.122 42.233 C 137.192 42.304,137.144 42.336,137.014 42.306 C 136.884 42.275,136.686 42.425,136.575 42.639 C 136.463 42.853,136.294 43.106,136.199 43.201 C 136.104 43.296,136.070 43.490,136.125 43.631 C 136.183 43.783,136.153 43.845,136.053 43.783 C 135.959 43.725,135.792 43.875,135.682 44.117 C 135.495 44.527,135.501 44.541,135.782 44.325 C 135.955 44.192,135.920 44.278,135.701 44.524 C 135.490 44.761,135.330 45.021,135.345 45.102 C 135.361 45.183,135.358 45.288,135.339 45.333 C 135.321 45.379,135.280 45.567,135.248 45.750 C 135.216 45.933,135.120 46.354,135.035 46.684 C 134.826 47.491,134.936 51.673,135.174 51.958 C 135.193 51.981,135.227 52.075,135.250 52.167 C 135.273 52.258,135.310 52.390,135.332 52.458 C 135.354 52.527,135.357 52.723,135.339 52.893 C 135.317 53.101,135.374 53.161,135.512 53.076 C 135.647 52.992,135.676 53.017,135.595 53.148 C 135.527 53.258,135.546 53.438,135.638 53.549 C 135.730 53.660,135.830 53.825,135.861 53.917 C 135.892 54.008,135.970 54.065,136.036 54.044 C 136.101 54.022,136.107 54.128,136.049 54.279 C 135.972 54.479,136.004 54.517,136.164 54.418 C 136.308 54.329,136.345 54.346,136.270 54.468 C 136.206 54.571,136.307 54.807,136.494 54.994 C 136.681 55.181,136.781 55.333,136.716 55.333 C 136.652 55.333,136.892 55.633,137.250 56.000 C 137.608 56.367,137.998 56.667,138.117 56.667 C 138.236 56.667,138.333 56.770,138.333 56.897 C 138.333 57.196,139.451 58.050,139.668 57.916 C 139.759 57.860,139.833 57.943,139.833 58.101 C 139.833 58.259,139.877 58.345,139.931 58.291 C 139.984 58.238,140.174 58.319,140.353 58.472 C 140.531 58.625,140.723 58.725,140.778 58.694 C 140.834 58.663,140.938 58.734,141.011 58.850 C 141.083 58.967,141.363 59.078,141.634 59.097 C 141.905 59.115,142.380 59.213,142.688 59.314 C 142.997 59.415,143.587 59.599,144.000 59.724 C 145.598 60.205,148.593 60.150,150.583 59.601 C 150.769 59.550,151.540 59.223,152.150 58.938 C 152.370 58.834,152.670 58.744,152.817 58.736 C 153.342 58.707,153.715 58.467,153.472 58.313 C 153.312 58.211,153.350 58.171,153.612 58.169 C 154.027 58.166,154.938 57.458,155.073 57.034 C 155.293 56.341,155.750 56.348,155.759 57.045 C 155.765 57.494,155.869 57.780,156.082 57.937 C 156.312 58.104,156.332 58.168,156.157 58.172 C 155.984 58.176,156.007 58.246,156.240 58.422 C 156.418 58.557,156.477 58.667,156.370 58.667 C 156.263 58.667,156.222 58.783,156.278 58.931 C 156.360 59.143,156.407 59.151,156.521 58.972 C 156.629 58.802,156.662 58.818,156.664 59.042 C 156.666 59.314,157.053 59.333,162.417 59.333 C 167.945 59.333,168.167 59.321,168.167 59.018 C 168.167 58.631,167.587 57.302,167.469 57.420 C 167.422 57.466,167.378 57.280,167.370 57.005 C 167.362 56.730,167.296 56.410,167.224 56.294 C 167.151 56.178,167.088 56.008,167.083 55.917 C 167.068 55.663,166.758 54.144,166.666 53.875 C 166.586 53.643,166.559 51.621,166.513 42.458 C 166.487 37.440,166.411 33.333,166.343 33.333 C 166.276 33.333,166.211 33.090,166.200 32.792 C 166.166 31.885,166.118 31.667,165.954 31.667 C 165.868 31.667,165.839 31.559,165.890 31.427 C 165.997 31.148,165.517 29.833,165.308 29.833 C 165.230 29.833,165.167 29.721,165.167 29.583 C 165.167 29.446,165.093 29.333,165.002 29.333 C 164.911 29.333,164.855 29.165,164.877 28.958 C 164.900 28.738,164.833 28.600,164.714 28.623 C 164.597 28.646,164.552 28.558,164.607 28.415 C 164.667 28.260,164.604 28.167,164.440 28.167 C 164.295 28.167,164.213 28.072,164.258 27.957 C 164.302 27.842,164.168 27.670,163.961 27.576 C 163.753 27.482,163.599 27.324,163.617 27.226 C 163.652 27.043,162.778 26.121,162.599 26.150 C 162.545 26.159,162.494 26.110,162.486 26.042 C 162.461 25.823,162.133 25.500,161.938 25.503 C 161.835 25.504,161.862 25.585,162.000 25.682 C 162.222 25.839,162.222 25.850,162.000 25.784 C 161.862 25.742,161.768 25.626,161.790 25.526 C 161.812 25.425,161.672 25.259,161.478 25.155 C 161.211 25.012,161.156 25.014,161.247 25.162 C 161.328 25.292,161.251 25.285,161.017 25.139 C 160.825 25.018,160.667 24.869,160.667 24.806 C 160.667 24.744,160.437 24.643,160.155 24.581 C 159.874 24.519,159.606 24.368,159.558 24.245 C 159.510 24.120,159.356 24.066,159.209 24.122 C 159.049 24.184,158.988 24.155,159.053 24.049 C 159.117 23.945,158.986 23.875,158.728 23.875 C 158.490 23.875,158.237 23.781,158.166 23.666 C 158.095 23.551,157.954 23.509,157.852 23.572 C 157.750 23.635,157.667 23.598,157.667 23.490 C 157.667 23.377,157.527 23.331,157.333 23.382 C 157.150 23.430,157.000 23.405,157.000 23.327 C 157.000 23.249,156.850 23.215,156.667 23.250 C 156.483 23.285,156.333 23.259,156.333 23.190 C 156.333 23.122,156.165 23.058,155.958 23.047 C 155.390 23.016,154.755 22.906,154.576 22.807 C 154.488 22.758,153.981 22.710,153.448 22.700 C 152.915 22.690,152.352 22.652,152.198 22.616 C 152.043 22.580,151.429 22.605,150.833 22.673 M247.292 22.616 C 246.856 22.654,246.500 22.749,246.500 22.827 C 246.500 22.905,246.338 22.927,246.141 22.875 C 245.871 22.804,245.815 22.836,245.918 23.002 C 246.018 23.165,245.978 23.194,245.765 23.112 C 245.440 22.988,244.968 23.198,244.481 23.685 C 244.302 23.865,244.082 23.967,243.993 23.912 C 243.904 23.857,243.786 23.929,243.731 24.073 C 243.676 24.216,243.564 24.333,243.482 24.333 C 243.292 24.333,242.837 24.714,241.816 25.727 C 241.041 26.497,240.755 26.977,241.208 26.747 C 241.323 26.689,241.287 26.749,241.128 26.879 C 240.969 27.010,240.882 27.159,240.935 27.212 C 240.987 27.265,240.905 27.290,240.751 27.267 C 240.530 27.235,240.457 27.000,240.406 26.155 C 240.371 25.565,240.309 24.708,240.270 24.250 L 240.198 23.417 234.933 23.373 L 229.667 23.329 229.667 41.331 L 229.667 59.333 235.333 59.333 L 241.000 59.333 241.000 47.992 C 241.000 37.823,241.028 36.595,241.272 36.117 C 241.650 35.378,242.522 34.504,242.885 34.502 C 243.070 34.501,243.140 34.426,243.067 34.308 C 242.998 34.196,243.021 34.160,243.122 34.222 C 243.328 34.350,244.333 34.026,244.333 33.833 C 244.333 33.759,244.483 33.737,244.667 33.785 C 244.850 33.833,245.000 33.795,245.000 33.702 C 245.000 33.608,245.169 33.568,245.375 33.613 C 245.675 33.679,245.700 33.660,245.500 33.518 C 245.318 33.389,245.526 33.368,246.270 33.439 C 246.939 33.503,247.330 33.473,247.405 33.352 C 247.468 33.250,247.632 33.167,247.770 33.167 C 247.907 33.167,247.974 33.240,247.919 33.330 C 247.859 33.426,248.078 33.491,248.450 33.489 C 248.799 33.486,249.608 33.532,250.250 33.592 L 251.417 33.699 251.444 30.058 C 251.459 28.055,251.499 25.653,251.534 24.720 C 251.569 23.787,251.538 23.060,251.465 23.105 C 251.393 23.150,251.333 23.098,251.333 22.990 C 251.333 22.877,251.194 22.831,251.000 22.882 C 250.817 22.930,250.667 22.920,250.667 22.859 C 250.667 22.799,250.385 22.743,250.042 22.734 C 249.698 22.726,249.117 22.680,248.750 22.632 C 248.383 22.585,247.727 22.578,247.292 22.616 M268.771 22.618 C 268.669 22.720,267.193 22.849,266.083 22.854 C 265.808 22.855,265.302 22.962,264.958 23.093 C 264.615 23.224,264.333 23.285,264.333 23.228 C 264.333 23.172,264.222 23.218,264.085 23.332 C 263.949 23.445,263.724 23.494,263.585 23.441 C 263.447 23.387,263.333 23.420,263.333 23.513 C 263.333 23.605,263.240 23.669,263.125 23.654 C 262.669 23.595,262.346 23.678,262.108 23.916 C 261.971 24.053,261.722 24.191,261.554 24.224 C 260.988 24.333,260.333 24.658,260.333 24.829 C 260.333 24.923,260.165 25.002,259.958 25.005 C 259.560 25.011,259.076 25.306,259.011 25.583 C 258.990 25.675,258.929 25.787,258.876 25.833 C 258.823 25.879,258.834 25.823,258.900 25.708 C 259.107 25.348,258.832 25.479,258.071 26.102 C 257.667 26.433,257.385 26.782,257.444 26.878 C 257.503 26.973,257.477 27.006,257.387 26.950 C 257.169 26.815,255.801 28.216,255.866 28.508 C 255.894 28.633,255.804 28.738,255.667 28.743 C 255.529 28.747,255.413 28.863,255.409 29.000 C 255.396 29.425,254.993 30.016,254.799 29.896 C 254.688 29.827,254.662 29.858,254.734 29.974 C 254.799 30.080,254.782 30.167,254.694 30.167 C 254.607 30.167,254.491 30.283,254.436 30.425 C 254.376 30.583,254.406 30.641,254.514 30.575 C 254.612 30.514,254.593 30.623,254.472 30.816 C 254.352 31.009,254.194 31.167,254.122 31.167 C 253.953 31.167,253.618 31.998,253.634 32.379 C 253.641 32.541,253.584 32.635,253.508 32.588 C 253.378 32.508,253.073 33.591,253.143 33.887 C 253.160 33.963,253.098 33.977,253.004 33.919 C 252.843 33.820,252.786 34.029,252.789 34.708 C 252.789 34.869,252.737 35.000,252.673 35.000 C 252.551 35.000,252.513 35.178,252.468 35.958 C 252.453 36.210,252.360 36.472,252.262 36.539 C 252.149 36.617,252.175 36.663,252.333 36.667 C 252.528 36.671,252.536 36.702,252.368 36.809 C 252.249 36.884,252.123 37.331,252.089 37.801 C 252.054 38.272,251.981 38.729,251.927 38.817 C 251.872 38.905,251.904 39.024,251.998 39.082 C 252.101 39.146,252.111 39.297,252.023 39.468 C 251.908 39.691,251.875 44.583,251.988 44.583 C 252.005 44.583,252.048 45.027,252.085 45.569 C 252.121 46.111,252.211 46.598,252.284 46.652 C 252.357 46.706,252.412 46.900,252.406 47.083 C 252.400 47.267,252.436 47.492,252.487 47.583 C 252.537 47.675,252.584 47.788,252.590 47.833 C 252.675 48.425,252.897 49.000,253.041 49.000 C 253.141 49.000,253.172 49.050,253.111 49.111 C 253.049 49.173,253.115 49.351,253.257 49.507 C 253.398 49.664,253.496 49.857,253.474 49.937 C 253.413 50.159,253.672 50.833,253.817 50.833 C 253.887 50.833,253.944 50.934,253.944 51.057 C 253.944 51.389,255.371 53.496,255.530 53.398 C 255.605 53.352,255.667 53.455,255.667 53.628 C 255.667 54.005,256.383 54.722,256.581 54.543 C 256.657 54.474,256.669 54.506,256.607 54.614 C 256.540 54.731,256.750 55.003,257.122 55.281 C 257.467 55.539,257.775 55.806,257.806 55.875 C 257.836 55.944,257.962 56.000,258.086 56.000 C 258.209 56.000,258.471 56.225,258.667 56.500 C 258.862 56.775,259.168 57.000,259.345 57.000 C 259.522 57.000,259.667 57.079,259.667 57.177 C 259.667 57.274,259.738 57.309,259.825 57.255 C 259.912 57.201,260.068 57.315,260.171 57.508 C 260.283 57.717,260.458 57.821,260.605 57.765 C 260.740 57.713,260.807 57.741,260.754 57.827 C 260.701 57.913,260.809 58.065,260.995 58.164 C 261.253 58.302,261.334 58.294,261.336 58.131 C 261.338 57.980,261.386 57.991,261.500 58.167 C 261.589 58.304,261.663 58.360,261.664 58.292 C 261.666 58.223,261.831 58.331,262.031 58.531 C 262.279 58.779,262.418 58.830,262.465 58.689 C 262.513 58.545,262.608 58.573,262.779 58.783 C 262.929 58.966,262.983 58.986,262.917 58.833 C 262.841 58.659,262.879 58.670,263.042 58.867 C 263.170 59.023,263.419 59.148,263.596 59.146 C 264.074 59.140,265.043 59.345,265.375 59.522 C 265.535 59.608,265.667 59.640,265.667 59.593 C 265.667 59.547,265.861 59.582,266.098 59.672 C 267.058 60.037,272.805 60.181,273.411 59.855 C 273.500 59.808,273.763 59.756,273.995 59.740 C 274.227 59.724,274.615 59.631,274.858 59.533 C 275.101 59.435,275.341 59.397,275.392 59.448 C 275.444 59.499,275.620 59.483,275.784 59.412 C 276.263 59.205,276.557 59.141,276.971 59.154 C 277.184 59.160,277.521 59.075,277.721 58.966 C 277.920 58.856,278.183 58.749,278.306 58.729 C 278.428 58.709,278.640 58.555,278.776 58.388 C 278.913 58.220,278.976 58.179,278.917 58.296 C 278.801 58.522,279.900 57.962,280.347 57.566 C 280.492 57.438,280.659 57.381,280.718 57.440 C 280.777 57.499,280.873 57.425,280.930 57.275 C 280.988 57.125,281.101 57.043,281.183 57.093 C 281.264 57.144,281.522 56.993,281.756 56.759 C 281.990 56.525,282.237 56.333,282.305 56.333 C 282.548 56.333,284.173 54.561,284.046 54.435 C 283.975 54.364,284.029 54.331,284.167 54.361 C 284.305 54.392,284.396 54.318,284.371 54.196 C 284.346 54.075,284.397 54.020,284.484 54.074 C 284.572 54.128,284.691 54.095,284.749 54.001 C 284.935 53.701,284.683 53.259,284.156 52.960 C 283.875 52.800,283.694 52.591,283.753 52.495 C 283.812 52.399,283.614 52.080,283.313 51.785 C 283.012 51.491,282.874 51.400,283.008 51.583 C 283.231 51.891,283.228 51.899,282.960 51.689 C 282.801 51.564,282.715 51.390,282.770 51.302 C 282.894 51.100,282.248 50.479,282.074 50.635 C 282.004 50.698,281.996 50.664,282.056 50.559 C 282.116 50.454,282.010 50.191,281.820 49.976 C 281.630 49.760,281.531 49.696,281.599 49.833 C 281.684 50.003,281.608 49.982,281.366 49.769 C 281.169 49.597,281.044 49.396,281.089 49.324 C 281.133 49.252,280.965 49.032,280.715 48.836 C 280.465 48.639,280.168 48.257,280.054 47.987 C 279.800 47.383,279.588 47.417,278.929 48.167 C 278.647 48.487,278.347 48.780,278.262 48.816 C 278.176 48.852,277.943 49.058,277.742 49.274 C 277.542 49.490,277.253 49.667,277.101 49.667 C 276.948 49.667,276.782 49.774,276.731 49.906 C 276.678 50.044,276.527 50.103,276.376 50.044 C 276.187 49.972,276.151 50.006,276.248 50.164 C 276.345 50.320,276.321 50.345,276.167 50.250 C 276.030 50.166,275.866 50.230,275.725 50.423 C 275.601 50.592,275.500 50.643,275.500 50.537 C 275.500 50.431,275.388 50.387,275.251 50.439 C 275.114 50.492,275.051 50.614,275.110 50.710 C 275.174 50.813,275.138 50.835,275.022 50.763 C 274.793 50.622,273.797 50.807,273.899 50.972 C 273.937 51.033,273.618 51.098,273.192 51.116 C 272.766 51.134,271.929 51.176,271.333 51.209 C 270.737 51.242,270.123 51.209,269.969 51.134 C 269.814 51.060,269.477 50.976,269.219 50.947 C 268.961 50.917,268.572 50.798,268.355 50.680 C 268.027 50.503,267.983 50.505,268.095 50.692 C 268.205 50.874,268.183 50.878,267.975 50.710 C 267.834 50.596,267.658 50.558,267.583 50.626 C 267.508 50.694,267.501 50.656,267.566 50.542 C 267.673 50.357,267.574 50.301,267.223 50.348 C 267.163 50.356,267.048 50.247,266.969 50.105 C 266.889 49.963,266.725 49.885,266.604 49.932 C 266.482 49.979,266.256 49.823,266.101 49.586 C 265.946 49.350,265.747 49.200,265.659 49.255 C 265.572 49.309,265.500 49.253,265.500 49.130 C 265.500 49.007,265.357 48.804,265.182 48.678 C 265.007 48.551,264.899 48.355,264.943 48.241 C 264.987 48.127,264.931 47.977,264.819 47.908 C 264.680 47.822,264.658 47.851,264.750 48.000 C 264.837 48.141,264.820 48.178,264.700 48.104 C 264.598 48.041,264.562 47.867,264.619 47.717 C 264.694 47.521,264.662 47.483,264.503 47.582 C 264.362 47.668,264.322 47.653,264.391 47.541 C 264.569 47.254,264.322 46.753,264.138 47.028 C 264.042 47.172,264.025 47.097,264.090 46.816 C 264.157 46.525,264.099 46.289,263.913 46.103 C 263.760 45.950,263.674 45.720,263.723 45.593 C 263.772 45.465,263.705 45.320,263.573 45.269 C 263.441 45.218,263.339 45.081,263.346 44.964 C 263.354 44.846,263.391 44.825,263.430 44.917 C 263.476 45.026,267.316 45.068,274.600 45.039 L 285.700 44.995 285.612 41.039 C 285.564 38.864,285.483 36.821,285.433 36.500 C 285.382 36.179,285.310 35.729,285.274 35.500 C 285.237 35.271,285.124 34.874,285.022 34.619 C 284.920 34.364,284.845 34.101,284.855 34.036 C 284.865 33.970,284.858 33.879,284.840 33.833 C 284.775 33.667,284.661 33.074,284.622 32.702 C 284.600 32.492,284.472 32.252,284.337 32.169 C 284.203 32.086,284.146 31.965,284.212 31.899 C 284.277 31.834,284.247 31.680,284.145 31.557 C 284.043 31.434,284.011 31.333,284.074 31.333 C 284.137 31.333,284.019 31.033,283.813 30.667 C 283.607 30.300,283.377 30.000,283.303 30.000 C 283.228 30.000,283.167 29.893,283.167 29.763 C 283.167 29.632,282.923 29.280,282.625 28.980 C 282.327 28.680,282.196 28.499,282.333 28.577 C 282.604 28.732,282.145 28.164,281.094 27.042 C 280.729 26.652,280.334 26.333,280.215 26.333 C 280.097 26.333,280.019 26.261,280.042 26.172 C 280.096 25.962,278.497 24.815,278.310 24.931 C 278.231 24.980,278.167 24.936,278.167 24.833 C 278.167 24.731,278.092 24.693,278.000 24.750 C 277.908 24.807,277.833 24.785,277.833 24.702 C 277.833 24.552,276.581 23.924,276.253 23.909 C 276.160 23.905,275.924 23.814,275.730 23.706 C 275.536 23.599,275.330 23.559,275.272 23.617 C 275.214 23.675,275.167 23.622,275.167 23.500 C 275.167 23.378,275.117 23.327,275.057 23.387 C 274.997 23.448,274.848 23.414,274.726 23.313 C 274.604 23.212,274.391 23.173,274.252 23.226 C 274.113 23.279,274.000 23.242,274.000 23.143 C 274.000 23.035,273.835 23.005,273.583 23.068 C 273.354 23.126,273.167 23.115,273.167 23.044 C 273.167 22.974,272.960 22.899,272.708 22.879 C 271.193 22.756,270.490 22.692,269.731 22.606 C 269.263 22.553,268.830 22.558,268.771 22.618 M45.667 41.333 L 45.667 59.333 51.333 59.333 L 57.000 59.333 57.000 41.333 L 57.000 23.333 51.333 23.333 L 45.667 23.333 45.667 41.333 M192.558 36.458 C 192.646 51.692,192.627 50.500,192.789 50.500 C 192.903 50.500,192.959 50.810,193.006 51.708 C 193.014 51.869,193.099 52.000,193.195 52.000 C 193.291 52.000,193.326 52.112,193.273 52.250 C 193.220 52.387,193.258 52.500,193.356 52.500 C 193.455 52.500,193.491 52.616,193.436 52.759 C 193.374 52.921,193.405 52.975,193.520 52.904 C 193.640 52.830,193.666 52.906,193.596 53.128 C 193.531 53.330,193.588 53.564,193.736 53.713 C 193.873 53.849,193.938 54.007,193.881 54.063 C 193.824 54.120,193.865 54.167,193.972 54.167 C 194.079 54.167,194.152 54.223,194.134 54.292 C 194.065 54.552,194.356 55.140,194.600 55.233 C 194.740 55.287,194.810 55.403,194.756 55.490 C 194.702 55.578,194.812 55.732,195.000 55.833 C 195.188 55.934,195.294 56.095,195.236 56.190 C 195.093 56.422,197.125 58.385,197.399 58.280 C 197.517 58.235,197.719 58.264,197.848 58.346 C 198.047 58.472,198.044 58.496,197.833 58.504 C 197.357 58.522,198.587 59.060,199.403 59.191 C 199.854 59.263,200.277 59.409,200.343 59.516 C 200.409 59.622,200.541 59.661,200.637 59.602 C 200.732 59.543,200.854 59.566,200.908 59.653 C 200.962 59.741,201.136 59.814,201.295 59.815 C 201.454 59.817,202.108 59.869,202.750 59.931 C 204.684 60.118,207.405 59.985,207.982 59.676 C 208.150 59.586,208.542 59.468,208.852 59.414 C 209.163 59.360,209.442 59.244,209.473 59.157 C 209.503 59.069,209.591 59.037,209.668 59.084 C 209.867 59.207,210.674 58.813,210.569 58.644 C 210.522 58.567,210.611 58.553,210.769 58.614 C 210.949 58.683,211.014 58.658,210.946 58.547 C 210.884 58.447,210.962 58.381,211.127 58.394 C 211.286 58.406,211.399 58.326,211.377 58.214 C 211.355 58.103,211.432 58.048,211.548 58.093 C 211.789 58.185,213.870 56.360,213.748 56.164 C 213.704 56.093,213.781 55.992,213.918 55.939 C 214.076 55.878,214.173 55.948,214.185 56.130 C 214.205 56.459,214.295 57.610,214.376 58.583 L 214.432 59.250 219.716 59.294 L 225.000 59.338 225.000 41.336 L 225.000 23.333 219.417 23.333 L 213.833 23.333 213.833 35.991 L 213.833 48.648 213.458 48.910 C 213.252 49.055,213.109 49.228,213.141 49.295 C 213.173 49.362,212.948 49.555,212.641 49.724 C 212.334 49.892,212.008 50.110,211.917 50.206 C 211.802 50.328,211.827 50.341,212.000 50.248 C 212.137 50.174,212.192 50.177,212.121 50.255 C 212.050 50.334,211.841 50.420,211.658 50.448 C 211.474 50.476,211.045 50.622,210.704 50.773 C 210.363 50.923,209.858 51.075,209.583 51.110 C 208.508 51.246,207.333 51.248,207.333 51.114 C 207.333 51.037,207.099 51.025,206.812 51.088 C 206.450 51.167,206.326 51.146,206.406 51.018 C 206.516 50.840,206.311 50.764,205.875 50.821 C 205.760 50.836,205.667 50.770,205.667 50.674 C 205.667 50.578,205.573 50.519,205.458 50.542 C 205.344 50.565,205.265 50.500,205.284 50.397 C 205.303 50.295,205.122 50.032,204.882 49.814 C 204.643 49.595,204.507 49.522,204.582 49.651 C 204.675 49.811,204.656 49.846,204.519 49.762 C 204.409 49.694,204.362 49.506,204.414 49.343 C 204.465 49.180,204.408 48.964,204.285 48.863 C 204.163 48.761,204.079 48.451,204.098 48.173 C 204.118 47.894,204.085 47.667,204.025 47.667 C 203.965 47.667,203.936 42.192,203.960 35.500 L 204.004 23.333 198.244 23.333 L 192.483 23.333 192.558 36.458 M79.750 31.532 C 80.025 31.556,80.287 31.615,80.333 31.663 C 80.428 31.761,81.476 32.169,81.788 32.229 C 81.901 32.251,82.169 32.434,82.384 32.636 C 82.599 32.838,82.832 32.946,82.901 32.877 C 82.971 32.807,83.003 32.859,82.972 32.992 C 82.942 33.126,83.029 33.240,83.167 33.246 C 83.304 33.252,83.396 33.381,83.371 33.533 C 83.345 33.684,83.401 33.856,83.496 33.914 C 83.609 33.984,83.667 36.591,83.667 41.584 L 83.667 49.148 83.167 49.443 C 82.892 49.606,82.667 49.833,82.667 49.947 C 82.667 50.065,82.557 50.114,82.417 50.060 C 82.279 50.008,82.167 50.031,82.167 50.112 C 82.167 50.193,81.796 50.404,81.344 50.579 C 80.891 50.755,80.552 50.949,80.590 51.011 C 80.628 51.072,80.417 51.127,80.121 51.131 C 79.825 51.136,79.208 51.156,78.750 51.176 C 77.983 51.209,77.241 51.069,76.431 50.740 C 76.183 50.639,76.142 50.663,76.248 50.847 C 76.323 50.977,76.154 50.869,75.873 50.607 C 75.591 50.345,75.291 50.173,75.206 50.226 C 75.121 50.278,74.833 50.083,74.567 49.792 C 74.301 49.501,74.230 49.372,74.409 49.506 C 74.732 49.748,74.732 49.746,74.409 49.309 C 74.230 49.066,74.035 48.897,73.976 48.933 C 73.917 48.969,73.824 48.882,73.769 48.740 C 73.713 48.593,73.741 48.526,73.836 48.585 C 73.926 48.641,73.834 48.404,73.630 48.059 C 73.426 47.713,73.244 47.352,73.225 47.257 C 73.206 47.161,73.098 46.821,72.986 46.500 C 72.698 45.672,72.628 45.450,72.567 45.167 C 72.537 45.029,72.464 44.692,72.404 44.417 C 72.274 43.816,72.257 39.823,72.381 39.000 C 72.430 38.679,72.523 38.192,72.589 37.917 C 72.655 37.642,72.722 37.303,72.737 37.164 C 72.753 37.025,72.809 36.837,72.861 36.747 C 72.955 36.585,73.393 35.328,73.412 35.167 C 73.417 35.121,73.488 34.978,73.570 34.849 C 73.680 34.675,73.659 34.651,73.484 34.754 C 73.355 34.831,73.499 34.657,73.804 34.368 C 74.133 34.057,74.309 33.762,74.237 33.646 C 74.162 33.525,74.187 33.493,74.299 33.562 C 74.514 33.695,74.879 33.107,74.702 32.912 C 74.637 32.839,74.671 32.830,74.778 32.892 C 74.886 32.953,75.112 32.834,75.282 32.627 C 75.452 32.419,75.702 32.226,75.837 32.196 C 75.973 32.166,76.108 32.072,76.139 31.986 C 76.170 31.901,76.264 31.874,76.348 31.925 C 76.431 31.977,76.500 31.956,76.500 31.879 C 76.500 31.801,76.631 31.728,76.792 31.716 C 77.224 31.684,77.645 31.577,77.747 31.475 C 77.830 31.393,78.361 31.408,79.750 31.532 M270.500 31.540 C 270.729 31.564,270.961 31.643,271.015 31.717 C 271.069 31.790,271.275 31.862,271.473 31.877 C 271.671 31.892,271.833 31.968,271.833 32.047 C 271.833 32.125,271.983 32.142,272.167 32.083 C 272.350 32.025,272.500 32.046,272.500 32.131 C 272.500 32.352,273.557 33.425,273.720 33.371 C 273.796 33.346,273.818 33.391,273.768 33.471 C 273.719 33.551,273.821 33.770,273.996 33.957 C 274.170 34.144,274.278 34.333,274.235 34.376 C 274.192 34.419,274.241 34.670,274.342 34.935 C 274.444 35.200,274.559 35.960,274.598 36.625 L 274.669 37.833 268.960 37.831 C 265.615 37.829,263.346 37.768,263.481 37.682 C 263.623 37.592,263.680 37.368,263.629 37.101 C 263.584 36.862,263.617 36.667,263.704 36.667 C 263.790 36.667,263.830 36.574,263.792 36.460 C 263.754 36.346,263.819 36.158,263.935 36.041 C 264.051 35.925,264.118 35.678,264.082 35.494 C 264.041 35.280,264.084 35.199,264.202 35.272 C 264.323 35.347,264.354 35.264,264.292 35.026 C 264.240 34.828,264.258 34.703,264.331 34.749 C 264.500 34.853,264.700 34.356,264.573 34.150 C 264.521 34.066,264.596 33.953,264.739 33.898 C 264.883 33.843,265.000 33.651,265.000 33.472 C 265.000 33.293,265.059 33.184,265.131 33.228 C 265.204 33.273,265.562 33.034,265.927 32.696 C 266.292 32.359,266.646 32.066,266.713 32.045 C 266.780 32.023,267.022 31.959,267.251 31.902 C 267.480 31.844,267.667 31.735,267.667 31.660 C 267.667 31.584,267.893 31.529,268.169 31.537 C 268.445 31.544,268.704 31.519,268.743 31.479 C 268.810 31.413,269.523 31.437,270.500 31.540 M151.333 43.458 C 151.333 43.527,152.233 43.558,153.333 43.528 L 155.333 43.472 155.333 46.145 C 155.333 48.718,155.186 49.667,154.785 49.667 C 154.566 49.667,153.240 50.878,153.290 51.032 C 153.311 51.099,153.227 51.116,153.103 51.068 C 152.978 51.020,152.773 51.079,152.646 51.199 C 152.520 51.319,152.267 51.442,152.083 51.474 C 151.900 51.505,151.725 51.599,151.694 51.683 C 151.663 51.767,151.570 51.793,151.486 51.741 C 151.402 51.689,151.255 51.696,151.158 51.755 C 150.890 51.921,149.000 51.936,149.000 51.772 C 149.000 51.693,148.815 51.663,148.588 51.706 C 148.333 51.755,148.217 51.720,148.282 51.614 C 148.347 51.509,148.278 51.486,148.102 51.553 C 147.932 51.618,147.857 51.596,147.918 51.498 C 147.974 51.407,147.940 51.324,147.843 51.313 C 147.746 51.301,147.598 51.282,147.514 51.271 C 147.430 51.259,147.299 51.182,147.222 51.098 C 147.140 51.009,147.186 51.000,147.333 51.077 C 147.471 51.148,147.294 50.940,146.941 50.615 C 146.588 50.290,146.349 49.943,146.409 49.845 C 146.470 49.747,146.450 49.667,146.365 49.667 C 146.277 49.667,146.235 49.068,146.268 48.292 C 146.337 46.636,146.355 46.500,146.508 46.500 C 146.573 46.500,146.725 46.256,146.845 45.958 C 147.083 45.371,148.121 44.260,148.458 44.233 C 148.947 44.194,149.014 44.157,148.906 43.982 C 148.830 43.859,148.904 43.833,149.128 43.904 C 149.336 43.970,149.567 43.909,149.732 43.744 C 149.880 43.597,150.000 43.544,150.000 43.626 C 150.000 43.708,150.233 43.741,150.517 43.700 C 150.884 43.646,150.968 43.582,150.809 43.481 C 150.645 43.377,150.686 43.338,150.958 43.336 C 151.165 43.334,151.333 43.390,151.333 43.458 M66.167 56.250 C 66.478 56.571,66.695 56.833,66.649 56.833 C 66.603 56.833,66.311 56.571,66.000 56.250 C 65.689 55.929,65.472 55.667,65.518 55.667 C 65.564 55.667,65.856 55.929,66.167 56.250 " stroke="none" fill="#343434" fill-rule="evenodd"></path><path id="path3" d="M348.514 24.396 C 348.684 24.550,350.000 25.165,350.000 25.090 C 350.000 24.995,348.742 24.333,348.562 24.333 C 348.497 24.333,348.476 24.362,348.514 24.396 M331.875 25.027 C 331.485 25.216,331.167 25.432,331.167 25.507 C 331.167 25.582,331.504 25.455,331.917 25.224 C 332.329 24.993,332.667 24.774,332.667 24.736 C 332.667 24.642,332.676 24.638,331.875 25.027 M367.167 25.147 C 367.167 25.228,367.017 25.334,366.833 25.382 C 366.650 25.430,366.501 25.570,366.503 25.693 C 366.504 25.839,366.547 25.855,366.628 25.738 C 366.695 25.639,366.881 25.511,367.042 25.451 C 367.300 25.356,367.465 25.000,367.250 25.000 C 367.204 25.000,367.167 25.066,367.167 25.147 M329.750 26.442 C 329.248 26.890,329.211 26.952,329.598 26.693 C 330.059 26.385,330.638 25.824,330.479 25.840 C 330.445 25.843,330.117 26.114,329.750 26.442 M365.729 26.208 C 365.178 26.838,364.900 27.287,365.343 26.833 C 365.567 26.604,365.900 26.287,366.083 26.129 C 366.267 25.970,366.336 25.839,366.237 25.837 C 366.139 25.835,365.910 26.002,365.729 26.208 M326.500 30.000 C 326.304 30.275,326.205 30.500,326.280 30.499 C 326.355 30.498,326.544 30.273,326.701 29.999 C 327.066 29.357,326.958 29.357,326.500 30.000 M355.513 30.470 C 355.808 30.945,356.078 31.333,356.112 31.333 C 356.246 31.333,355.507 30.047,355.250 29.833 C 355.099 29.708,355.218 29.995,355.513 30.470 M362.874 29.875 C 362.632 30.176,361.801 31.857,361.864 31.919 C 361.893 31.948,362.194 31.453,362.534 30.819 C 363.128 29.708,363.226 29.436,362.874 29.875 M381.223 32.667 C 382.247 33.316,382.477 33.316,381.500 32.667 C 381.087 32.392,380.679 32.168,380.592 32.167 C 380.506 32.167,380.790 32.392,381.223 32.667 M373.364 34.376 C 373.012 35.020,373.009 35.046,373.327 34.667 C 373.797 34.106,374.041 33.666,373.881 33.668 C 373.809 33.669,373.576 33.987,373.364 34.376 M323.539 39.667 C 323.539 39.987,323.573 40.119,323.615 39.958 C 323.657 39.798,323.657 39.535,323.615 39.375 C 323.573 39.215,323.539 39.346,323.539 39.667 M358.375 39.917 C 358.377 40.283,358.411 40.414,358.451 40.206 C 358.491 39.999,358.490 39.699,358.448 39.540 C 358.406 39.380,358.374 39.550,358.375 39.917 M334.881 40.250 C 334.882 40.708,334.915 40.876,334.953 40.623 C 334.991 40.369,334.990 39.994,334.951 39.789 C 334.911 39.584,334.880 39.792,334.881 40.250 M346.872 40.000 C 346.872 40.321,346.906 40.452,346.948 40.292 C 346.990 40.131,346.990 39.869,346.948 39.708 C 346.906 39.548,346.872 39.679,346.872 40.000 M334.879 43.333 C 334.879 43.746,334.911 43.915,334.951 43.708 C 334.991 43.502,334.991 43.165,334.951 42.958 C 334.911 42.752,334.879 42.921,334.879 43.333 M346.872 43.667 C 346.872 43.987,346.906 44.119,346.948 43.958 C 346.990 43.798,346.990 43.535,346.948 43.375 C 346.906 43.215,346.872 43.346,346.872 43.667 M358.375 43.750 C 358.377 44.117,358.411 44.247,358.451 44.040 C 358.491 43.832,358.490 43.532,358.448 43.373 C 358.406 43.214,358.374 43.383,358.375 43.750 M374.250 50.333 C 374.416 50.517,374.629 50.667,374.724 50.667 C 374.819 50.667,374.735 50.517,374.538 50.333 C 374.342 50.150,374.128 50.000,374.064 50.000 C 374.001 50.000,374.084 50.150,374.250 50.333 M325.333 51.242 C 325.333 51.459,325.740 52.167,325.864 52.167 C 325.944 52.167,325.892 51.942,325.750 51.667 C 325.519 51.221,325.333 51.031,325.333 51.242 M362.500 52.795 C 362.500 52.971,363.322 54.167,363.443 54.167 C 363.497 54.167,363.418 53.998,363.269 53.792 C 363.119 53.585,362.924 53.248,362.836 53.042 C 362.678 52.673,362.500 52.543,362.500 52.795 M355.178 53.484 C 354.988 53.750,354.833 54.027,354.833 54.100 C 354.833 54.172,355.021 53.977,355.250 53.667 C 355.479 53.356,355.667 53.079,355.667 53.051 C 355.667 52.893,355.482 53.057,355.178 53.484 M327.333 54.500 C 327.624 54.867,327.899 55.167,327.945 55.167 C 327.991 55.167,327.790 54.867,327.500 54.500 C 327.210 54.133,326.934 53.833,326.889 53.833 C 326.843 53.833,327.043 54.133,327.333 54.500 M365.417 56.667 C 365.775 57.033,366.105 57.333,366.151 57.333 C 366.197 57.333,365.941 57.033,365.583 56.667 C 365.225 56.300,364.895 56.000,364.849 56.000 C 364.803 56.000,365.059 56.300,365.417 56.667 M329.985 57.053 C 330.242 57.376,331.167 58.072,331.167 57.942 C 331.167 57.898,330.848 57.613,330.458 57.309 C 330.069 57.005,329.856 56.890,329.985 57.053 M394.444 58.444 C 394.268 58.621,394.316 59.667,394.500 59.667 C 394.592 59.667,394.667 59.367,394.667 59.000 C 394.667 58.319,394.639 58.250,394.444 58.444 M368.500 58.985 C 368.637 59.063,368.938 59.176,369.167 59.237 L 369.583 59.347 369.167 59.096 C 368.938 58.958,368.637 58.845,368.500 58.844 C 368.278 58.844,368.278 58.859,368.500 58.985 M379.500 59.417 C 379.087 59.638,378.809 59.822,378.882 59.826 C 379.059 59.836,380.333 59.181,380.333 59.080 C 380.333 58.970,380.340 58.967,379.500 59.417 M340.794 60.451 C 341.001 60.491,341.301 60.490,341.460 60.448 C 341.620 60.406,341.450 60.374,341.083 60.375 C 340.717 60.377,340.586 60.411,340.794 60.451 M382.361 61.491 C 382.264 61.771,382.219 62.000,382.263 62.000 C 382.375 62.000,382.690 61.134,382.607 61.052 C 382.569 61.014,382.459 61.212,382.361 61.491 M367.350 61.708 C 367.389 61.731,367.758 62.050,368.169 62.417 L 368.917 63.083 368.258 62.375 C 367.895 61.985,367.527 61.667,367.438 61.667 C 367.350 61.667,367.310 61.685,367.350 61.708 M380.658 63.943 L 380.083 64.554 380.708 64.090 C 381.052 63.836,381.333 63.561,381.333 63.480 C 381.333 63.250,381.269 63.294,380.658 63.943 M364.958 65.089 C 364.542 65.646,364.596 65.801,365.019 65.264 C 365.213 65.017,365.344 64.790,365.311 64.758 C 365.277 64.726,365.119 64.875,364.958 65.089 M364.089 66.264 C 363.934 66.502,363.835 66.724,363.870 66.759 C 363.906 66.794,364.066 66.600,364.227 66.328 C 364.586 65.720,364.478 65.670,364.089 66.264 M362.936 67.911 C 362.567 68.473,362.581 68.523,363.292 69.176 L 363.917 69.750 363.340 69.123 L 362.764 68.496 363.058 67.998 C 363.412 67.399,363.316 67.330,362.936 67.911 M389.162 69.952 C 388.935 70.108,388.657 70.327,388.542 70.439 C 388.428 70.550,387.922 70.878,387.417 71.166 C 386.913 71.455,386.500 71.730,386.500 71.778 C 386.500 71.903,387.946 71.051,388.875 70.378 C 389.566 69.878,389.787 69.667,389.620 69.667 C 389.595 69.667,389.389 69.795,389.162 69.952 M365.164 70.747 C 365.398 71.028,367.156 72.069,367.241 71.976 C 367.271 71.943,366.769 71.597,366.126 71.206 C 365.482 70.816,365.050 70.609,365.164 70.747 M378.167 73.833 C 378.167 74.042,378.344 74.042,378.667 73.833 C 378.869 73.703,378.845 73.671,378.542 73.669 C 378.335 73.668,378.167 73.742,378.167 73.833 " stroke="none" fill="#1c749f" fill-rule="evenodd"></path><path id="path4" d="" stroke="none" fill="#203464" fill-rule="evenodd"></path></g></svg>