<svg id="svg" version="1.1" xmlns="http://www.w3.org/2000/svg" xmlns:xlink="http://www.w3.org/1999/xlink" width="400" height="83.87096774193549" viewBox="0, 0, 400,83.87096774193549"><g id="svgg"><path id="path0" d="M49.083 7.558 C 47.549 8.066,45.500 9.522,45.500 10.105 C 45.500 10.230,45.435 10.333,45.356 10.333 C 44.845 10.333,44.250 12.439,44.250 14.250 C 44.250 21.752,54.175 23.953,57.402 17.167 C 59.875 11.965,54.506 5.763,49.083 7.558 M290.333 35.417 L 290.333 59.667 306.250 59.667 L 322.167 59.667 322.167 55.167 L 322.167 50.667 312.083 50.667 L 302.000 50.667 302.000 30.917 L 302.000 11.167 296.167 11.167 L 290.333 11.167 290.333 35.417 M339.583 23.105 C 336.437 23.394,333.995 24.080,332.000 25.234 C 330.618 26.034,328.167 27.814,328.167 28.019 C 328.167 28.090,327.788 28.649,327.326 29.260 C 323.458 34.369,322.489 42.943,324.996 49.855 C 325.718 51.848,328.322 55.949,328.891 55.990 C 328.969 55.995,329.352 56.281,329.743 56.625 C 331.063 57.785,334.477 59.471,336.083 59.755 C 336.267 59.788,336.904 59.904,337.500 60.014 C 338.982 60.288,342.800 60.319,344.146 60.068 C 344.753 59.954,345.475 59.824,345.750 59.777 C 351.552 58.800,356.981 52.910,357.926 46.569 C 358.110 45.332,358.124 45.250,358.159 45.250 C 358.208 45.250,358.344 42.740,358.344 41.833 C 358.344 40.927,358.208 38.417,358.159 38.417 C 358.140 38.417,358.105 38.267,358.082 38.083 C 357.643 34.640,356.581 31.927,354.649 29.313 C 354.200 28.706,353.833 28.141,353.833 28.058 C 353.833 27.905,353.236 27.333,353.075 27.333 C 352.941 27.333,350.766 25.648,350.628 25.437 C 350.560 25.334,350.504 25.305,350.503 25.373 C 350.501 25.440,349.917 25.201,349.204 24.842 C 347.869 24.169,345.923 23.539,344.750 23.401 C 344.383 23.357,343.981 23.286,343.857 23.243 C 343.541 23.132,340.392 23.031,339.583 23.105 M371.790 23.453 C 367.112 24.601,363.628 27.782,361.890 32.494 C 361.668 33.093,361.441 33.696,361.383 33.833 C 361.244 34.165,361.249 34.146,361.101 34.958 C 361.029 35.348,360.907 35.667,360.829 35.667 C 360.751 35.667,360.696 35.835,360.707 36.042 C 360.763 37.065,360.661 37.683,360.458 37.561 C 360.292 37.461,360.292 37.488,360.457 37.692 C 360.571 37.832,360.611 38.000,360.546 38.065 C 360.352 38.260,360.383 45.333,360.579 45.336 C 360.673 45.337,360.637 45.412,360.500 45.503 C 360.312 45.626,360.300 45.699,360.451 45.797 C 360.561 45.868,360.655 46.075,360.660 46.255 C 360.675 46.832,360.770 47.429,360.871 47.593 C 360.925 47.681,361.029 48.052,361.102 48.418 C 361.265 49.236,361.250 49.180,361.414 49.583 C 361.489 49.767,361.797 50.539,362.099 51.300 C 365.547 59.992,376.125 63.157,382.495 57.402 L 383.175 56.787 383.102 58.185 C 382.958 60.936,382.513 62.311,381.372 63.531 C 380.643 64.310,378.974 65.273,378.674 65.088 C 378.591 65.036,378.476 65.071,378.418 65.165 C 378.359 65.259,378.129 65.303,377.906 65.262 C 377.683 65.222,377.500 65.250,377.500 65.324 C 377.500 65.399,376.675 65.460,375.667 65.460 C 374.658 65.460,373.833 65.399,373.833 65.324 C 373.833 65.250,373.646 65.223,373.417 65.264 C 373.188 65.306,373.000 65.282,373.000 65.212 C 372.999 65.141,372.773 65.075,372.496 65.065 C 371.683 65.036,369.580 63.890,368.491 62.882 C 367.934 62.366,367.426 62.017,367.353 62.100 C 367.173 62.307,363.083 68.037,362.944 68.277 C 362.671 68.748,365.529 71.001,367.512 71.878 C 368.875 72.481,371.711 73.406,372.042 73.356 C 372.202 73.332,372.333 73.385,372.333 73.474 C 372.333 73.563,372.491 73.594,372.684 73.544 C 372.889 73.490,373.096 73.549,373.184 73.684 C 373.309 73.879,373.357 73.880,373.479 73.691 C 373.561 73.564,373.668 73.534,373.722 73.621 C 373.775 73.707,374.058 73.743,374.350 73.700 C 374.708 73.647,374.844 73.681,374.768 73.805 C 374.694 73.924,374.825 73.975,375.144 73.952 C 375.414 73.933,375.600 73.860,375.557 73.792 C 375.515 73.723,375.860 73.667,376.323 73.667 C 376.787 73.667,377.167 73.723,377.167 73.792 C 377.167 73.861,377.386 73.920,377.655 73.924 C 377.924 73.927,378.103 73.865,378.053 73.784 C 378.003 73.703,378.177 73.660,378.440 73.688 C 378.702 73.715,379.011 73.680,379.125 73.609 C 379.247 73.534,379.333 73.562,379.333 73.677 C 379.333 73.825,379.396 73.823,379.581 73.668 C 379.718 73.555,379.943 73.506,380.081 73.559 C 380.220 73.613,380.333 73.596,380.333 73.523 C 380.333 73.449,380.577 73.384,380.875 73.379 C 381.173 73.373,382.088 73.169,382.909 72.925 C 388.576 71.241,392.140 68.091,393.573 63.500 C 393.730 62.996,393.901 62.471,393.953 62.333 C 394.081 61.991,394.173 61.481,394.178 61.091 C 394.180 60.912,394.236 60.687,394.302 60.591 C 394.368 60.495,394.411 60.304,394.397 60.167 C 394.383 60.029,394.363 51.760,394.353 41.792 L 394.333 23.667 389.345 23.667 C 383.719 23.667,384.261 23.521,384.066 25.086 C 383.934 26.138,383.881 26.548,383.855 26.718 C 383.843 26.792,383.753 26.803,383.655 26.743 C 383.557 26.682,383.518 26.528,383.567 26.400 C 383.617 26.268,383.554 26.167,383.420 26.167 C 383.290 26.167,383.123 26.065,383.050 25.941 C 382.977 25.817,382.746 25.626,382.537 25.516 C 382.314 25.399,382.205 25.234,382.272 25.117 C 382.335 25.007,382.331 24.967,382.263 25.027 C 382.195 25.088,381.602 24.849,380.945 24.495 C 378.305 23.075,374.908 22.688,371.790 23.453 M342.610 31.931 C 345.167 32.597,346.807 35.157,346.898 38.625 C 346.908 39.014,346.958 39.333,347.008 39.333 C 347.058 39.333,347.101 40.421,347.103 41.750 C 347.105 43.079,347.064 44.167,347.012 44.167 C 346.959 44.167,346.909 44.486,346.900 44.875 C 346.720 52.623,337.326 54.416,335.355 47.079 C 334.469 43.778,334.787 37.355,335.961 34.864 C 337.159 32.322,339.740 31.183,342.610 31.931 M379.798 31.926 C 381.152 32.235,381.619 32.486,382.470 33.362 L 383.167 34.080 383.167 41.706 L 383.167 49.333 382.522 49.997 C 381.819 50.721,380.312 51.509,379.813 51.413 C 379.641 51.380,379.500 51.420,379.500 51.502 C 379.500 51.841,376.282 51.582,375.500 51.181 C 374.576 50.706,373.976 50.174,374.114 49.950 C 374.171 49.858,374.140 49.830,374.044 49.889 C 373.399 50.288,371.843 46.462,371.650 44.000 C 370.975 35.411,374.191 30.647,379.798 31.926 " stroke="none" fill="#049cdc" fill-rule="evenodd"></path><path id="path1" d="M20.500 10.370 C 20.500 10.453,20.175 10.472,19.770 10.411 C 19.354 10.349,18.997 10.371,18.940 10.462 C 18.886 10.550,18.652 10.586,18.421 10.542 C 18.171 10.494,18.000 10.538,18.000 10.650 C 18.000 10.769,17.845 10.801,17.583 10.735 C 17.316 10.668,17.167 10.701,17.167 10.826 C 17.167 10.947,17.038 10.982,16.833 10.917 C 16.635 10.854,16.500 10.887,16.500 10.999 C 16.500 11.102,16.425 11.140,16.333 11.083 C 16.242 11.027,16.073 11.039,15.958 11.111 C 15.844 11.182,15.675 11.247,15.583 11.254 C 15.089 11.294,14.222 11.637,12.500 12.475 C 11.446 12.988,10.508 13.384,10.417 13.356 C 10.325 13.328,10.303 13.358,10.367 13.422 C 10.431 13.487,10.056 13.856,9.533 14.244 C 9.011 14.632,8.442 15.109,8.269 15.304 C 8.097 15.499,7.889 15.618,7.807 15.567 C 7.725 15.517,7.679 15.548,7.704 15.636 C 7.729 15.725,7.593 15.936,7.401 16.107 C 7.209 16.277,6.962 16.588,6.851 16.796 C 6.740 17.005,6.580 17.133,6.494 17.079 C 6.408 17.026,6.378 17.089,6.428 17.220 C 6.478 17.350,6.398 17.504,6.249 17.561 C 6.100 17.618,6.026 17.740,6.083 17.832 C 6.140 17.924,6.102 18.000,6.000 18.000 C 5.898 18.000,5.860 18.075,5.917 18.167 C 5.973 18.258,5.936 18.333,5.833 18.333 C 5.731 18.333,5.690 18.402,5.742 18.487 C 5.794 18.571,5.718 18.758,5.573 18.903 C 5.428 19.048,5.344 19.167,5.387 19.167 C 5.430 19.167,5.284 19.736,5.063 20.432 C 4.502 22.197,4.386 24.215,4.742 26.000 C 4.897 26.779,5.038 27.529,5.054 27.667 C 5.070 27.804,5.180 28.018,5.297 28.143 C 5.415 28.267,5.466 28.511,5.411 28.685 C 5.346 28.888,5.404 29.038,5.571 29.102 C 5.714 29.157,5.790 29.269,5.739 29.351 C 5.688 29.433,5.731 29.500,5.833 29.500 C 5.936 29.500,5.973 29.575,5.917 29.667 C 5.860 29.758,5.893 29.833,5.990 29.833 C 6.087 29.833,6.167 29.946,6.167 30.083 C 6.167 30.221,6.242 30.333,6.333 30.333 C 6.425 30.333,6.501 30.427,6.502 30.542 C 6.506 30.895,8.805 33.584,8.966 33.423 C 9.013 33.376,9.247 33.543,9.487 33.794 C 9.727 34.045,9.959 34.258,10.003 34.268 C 10.047 34.278,10.633 34.642,11.304 35.076 C 12.659 35.952,17.499 38.354,17.682 38.241 C 17.746 38.201,17.848 38.297,17.908 38.455 C 18.002 38.700,18.040 38.706,18.173 38.495 C 18.288 38.314,18.329 38.307,18.331 38.468 C 18.332 38.588,18.403 38.643,18.488 38.590 C 18.574 38.538,18.691 38.572,18.750 38.667 C 18.809 38.761,18.926 38.796,19.012 38.743 C 19.097 38.690,19.167 38.734,19.167 38.841 C 19.167 38.948,19.279 38.992,19.417 38.940 C 19.554 38.887,19.667 38.914,19.667 39.000 C 19.667 39.086,19.779 39.113,19.917 39.060 C 20.058 39.006,20.167 39.056,20.167 39.177 C 20.167 39.293,20.212 39.344,20.267 39.288 C 20.453 39.102,23.553 40.262,25.772 41.347 C 27.236 42.063,28.951 43.509,28.740 43.850 C 28.662 43.975,28.685 44.008,28.800 43.937 C 29.289 43.635,29.683 46.583,29.326 47.871 C 29.107 48.660,28.140 49.924,27.779 49.894 C 27.628 49.881,27.542 49.934,27.590 50.010 C 27.695 50.181,27.086 50.530,26.939 50.383 C 26.881 50.325,26.833 50.370,26.833 50.482 C 26.833 50.594,26.765 50.644,26.681 50.592 C 26.597 50.540,26.490 50.592,26.444 50.707 C 26.376 50.875,26.357 50.875,26.346 50.707 C 26.337 50.553,26.245 50.542,26.000 50.665 C 25.817 50.758,25.535 50.894,25.375 50.968 C 25.215 51.042,24.146 51.075,23.000 51.041 C 20.200 50.958,20.000 50.940,20.000 50.773 C 20.000 50.693,19.855 50.666,19.677 50.712 C 19.477 50.765,19.316 50.695,19.252 50.528 C 19.163 50.295,19.128 50.292,18.994 50.505 C 18.879 50.686,18.838 50.693,18.836 50.532 C 18.834 50.412,18.760 50.359,18.671 50.414 C 18.582 50.469,18.383 50.368,18.230 50.188 C 18.077 50.009,17.862 49.897,17.754 49.938 C 16.720 50.335,14.643 46.135,14.947 44.264 L 15.044 43.667 9.124 43.667 L 3.204 43.667 3.093 44.257 C 3.032 44.582,3.021 44.976,3.068 45.132 C 3.115 45.289,3.191 45.717,3.237 46.083 C 3.313 46.693,3.358 46.924,3.572 47.792 C 3.869 49.004,4.741 50.987,5.366 51.874 C 5.543 52.125,5.634 52.418,5.568 52.525 C 5.498 52.637,5.521 52.673,5.622 52.611 C 5.717 52.552,5.898 52.630,6.023 52.784 C 6.179 52.977,6.185 53.025,6.042 52.939 C 5.650 52.704,5.833 53.005,6.437 53.592 C 7.270 54.401,9.307 56.054,9.960 56.451 C 10.256 56.631,10.443 56.835,10.374 56.903 C 10.306 56.972,10.325 57.013,10.417 56.994 C 10.789 56.919,11.013 57.011,10.901 57.192 C 10.834 57.300,10.854 57.340,10.947 57.283 C 11.038 57.227,11.453 57.362,11.869 57.583 C 12.285 57.805,12.672 57.939,12.729 57.882 C 12.786 57.825,12.833 57.870,12.833 57.982 C 12.833 58.094,12.908 58.140,13.000 58.083 C 13.092 58.027,13.167 58.068,13.167 58.175 C 13.167 58.282,13.279 58.326,13.417 58.273 C 13.554 58.220,13.667 58.262,13.667 58.366 C 13.667 58.470,13.716 58.507,13.775 58.447 C 13.835 58.387,13.990 58.469,14.121 58.628 C 14.251 58.787,14.311 58.823,14.253 58.708 C 14.194 58.594,14.226 58.500,14.323 58.500 C 14.421 58.500,14.500 58.583,14.500 58.684 C 14.500 58.786,14.612 58.826,14.750 58.773 C 14.887 58.720,15.000 58.758,15.000 58.856 C 15.000 58.955,15.112 58.992,15.250 58.940 C 15.387 58.887,15.500 58.921,15.500 59.015 C 15.500 59.109,15.562 59.148,15.638 59.101 C 15.715 59.054,16.183 59.124,16.680 59.257 C 20.269 60.218,26.053 60.232,29.917 59.289 C 30.742 59.088,31.510 58.932,31.625 58.943 C 31.740 58.954,31.833 58.896,31.833 58.815 C 31.833 58.733,31.913 58.667,32.010 58.667 C 32.107 58.667,32.139 58.760,32.081 58.875 C 32.023 58.990,32.088 58.945,32.227 58.775 C 32.365 58.605,32.558 58.516,32.656 58.576 C 32.753 58.637,32.833 58.602,32.833 58.500 C 32.833 58.398,32.908 58.360,33.000 58.417 C 33.092 58.473,33.167 58.436,33.167 58.333 C 33.167 58.231,33.235 58.189,33.319 58.241 C 33.403 58.293,33.510 58.241,33.556 58.126 C 33.618 57.973,33.644 57.980,33.654 58.151 C 33.663 58.322,33.745 58.298,33.958 58.063 C 34.119 57.887,34.469 57.646,34.738 57.528 C 35.600 57.149,37.981 55.333,38.281 54.825 C 38.441 54.555,38.626 54.333,38.691 54.333 C 38.757 54.333,38.858 54.183,38.917 54.000 C 38.975 53.817,39.122 53.667,39.243 53.667 C 39.364 53.667,39.453 53.535,39.440 53.375 C 39.427 53.213,39.515 53.104,39.637 53.129 C 39.759 53.154,39.812 53.101,39.756 53.010 C 39.700 52.920,39.844 52.472,40.075 52.016 C 41.618 48.971,41.658 44.346,40.170 41.063 C 39.910 40.492,39.741 39.981,39.794 39.929 C 39.846 39.876,39.793 39.833,39.677 39.833 C 39.557 39.833,39.506 39.725,39.560 39.585 C 39.612 39.449,39.601 39.355,39.536 39.377 C 39.470 39.399,39.403 39.354,39.386 39.276 C 39.369 39.199,39.227 39.042,39.069 38.927 C 38.910 38.810,38.836 38.630,38.904 38.521 C 38.973 38.409,38.941 38.345,38.830 38.371 C 38.723 38.396,38.549 38.283,38.443 38.120 C 38.098 37.591,36.533 36.000,36.357 36.000 C 36.263 36.000,36.067 35.831,35.923 35.625 C 35.778 35.419,35.568 35.247,35.455 35.242 C 35.342 35.238,35.269 35.145,35.292 35.034 C 35.315 34.924,35.214 34.833,35.067 34.833 C 34.921 34.833,34.602 34.694,34.359 34.523 C 33.117 33.652,27.753 31.113,26.750 30.922 C 26.567 30.887,26.379 30.844,26.333 30.826 C 26.287 30.808,26.194 30.803,26.125 30.814 C 26.056 30.824,26.000 30.750,26.000 30.649 C 26.000 30.547,25.887 30.508,25.750 30.560 C 25.613 30.613,25.500 30.576,25.500 30.477 C 25.500 30.378,25.387 30.341,25.250 30.394 C 25.113 30.446,25.000 30.409,25.000 30.310 C 25.000 30.212,24.887 30.174,24.750 30.227 C 24.613 30.280,24.500 30.253,24.500 30.167 C 24.500 30.081,24.387 30.054,24.250 30.106 C 24.112 30.159,24.000 30.115,24.000 30.008 C 24.000 29.901,23.930 29.857,23.845 29.910 C 23.644 30.033,21.448 29.161,19.790 28.300 C 16.763 26.727,15.587 24.570,16.537 22.333 C 17.039 21.152,19.387 19.339,20.074 19.603 C 20.217 19.658,20.333 19.630,20.333 19.541 C 20.333 19.452,20.521 19.415,20.750 19.459 C 20.979 19.503,21.167 19.474,21.167 19.394 C 21.167 19.315,21.917 19.250,22.833 19.250 C 23.750 19.250,24.500 19.298,24.500 19.356 C 24.500 19.414,24.650 19.500,24.834 19.548 C 25.017 19.596,25.125 19.568,25.074 19.484 C 25.022 19.401,25.060 19.333,25.157 19.333 C 25.254 19.333,25.333 19.415,25.333 19.514 C 25.333 19.613,25.427 19.661,25.542 19.621 C 26.860 19.153,29.183 21.972,29.479 24.398 L 29.583 25.250 35.354 25.294 L 41.124 25.338 41.225 24.835 C 41.363 24.141,40.924 21.755,40.405 20.385 C 40.169 19.761,39.969 19.156,39.960 19.042 C 39.951 18.927,39.874 18.833,39.788 18.833 C 39.702 18.833,39.674 18.722,39.726 18.586 C 39.782 18.440,39.685 18.266,39.489 18.161 C 39.307 18.063,39.201 17.912,39.255 17.825 C 39.309 17.738,39.266 17.667,39.159 17.667 C 39.052 17.667,39.007 17.557,39.058 17.422 C 39.110 17.287,39.069 17.126,38.967 17.063 C 38.847 16.989,38.829 17.025,38.917 17.167 C 39.006 17.311,38.986 17.345,38.859 17.266 C 38.753 17.201,38.667 17.052,38.667 16.936 C 38.667 16.820,38.482 16.552,38.257 16.340 C 38.032 16.129,37.864 15.875,37.882 15.777 C 37.901 15.679,37.804 15.592,37.667 15.583 C 37.529 15.575,37.442 15.459,37.472 15.326 C 37.503 15.192,37.476 15.135,37.413 15.198 C 37.350 15.261,36.805 14.904,36.200 14.406 C 35.596 13.908,35.037 13.500,34.958 13.500 C 34.878 13.500,34.861 13.423,34.919 13.329 C 34.977 13.235,34.963 13.169,34.887 13.182 C 34.532 13.244,34.325 13.149,34.433 12.974 C 34.498 12.868,34.481 12.826,34.394 12.879 C 34.308 12.933,33.573 12.646,32.762 12.242 C 31.951 11.839,31.223 11.548,31.144 11.597 C 31.065 11.646,31.000 11.599,31.000 11.492 C 31.000 11.385,30.887 11.341,30.750 11.394 C 30.613 11.446,30.500 11.409,30.500 11.310 C 30.500 11.212,30.387 11.174,30.250 11.227 C 30.113 11.280,30.000 11.245,30.000 11.150 C 30.000 11.053,29.854 11.024,29.667 11.083 C 29.467 11.147,29.333 11.113,29.333 11.000 C 29.333 10.887,29.200 10.853,29.000 10.917 C 28.800 10.980,28.667 10.947,28.667 10.833 C 28.667 10.720,28.533 10.687,28.333 10.750 C 28.132 10.814,28.000 10.780,28.000 10.665 C 28.000 10.539,27.829 10.511,27.500 10.583 C 27.167 10.656,27.000 10.628,27.000 10.499 C 27.000 10.364,26.795 10.339,26.333 10.417 C 25.967 10.479,25.667 10.464,25.667 10.383 C 25.667 10.303,24.504 10.233,23.083 10.228 C 21.647 10.223,20.500 10.286,20.500 10.370 M172.833 18.917 L 172.833 23.333 170.583 23.333 L 168.333 23.333 168.333 27.250 L 168.333 31.167 170.583 31.167 L 172.833 31.167 172.855 40.875 C 172.866 46.215,172.894 50.733,172.915 50.917 C 173.022 51.817,173.171 52.637,173.323 53.149 C 173.415 53.460,173.443 53.797,173.385 53.899 C 173.327 54.000,173.341 54.028,173.416 53.960 C 173.491 53.892,173.717 54.243,173.919 54.740 C 174.121 55.236,174.522 55.940,174.810 56.304 C 175.098 56.667,175.333 57.015,175.333 57.078 C 175.333 57.211,175.770 57.667,175.899 57.667 C 176.146 57.667,177.475 58.636,177.371 58.740 C 177.304 58.807,177.325 58.846,177.417 58.827 C 177.789 58.752,178.013 58.844,177.901 59.026 C 177.826 59.146,177.855 59.173,177.978 59.097 C 178.086 59.030,178.642 59.128,179.212 59.315 C 181.805 60.162,186.004 60.228,188.917 59.466 L 190.417 59.074 190.461 54.942 C 190.495 51.859,190.457 50.840,190.314 50.929 C 190.000 51.122,187.825 51.165,186.750 50.998 C 185.158 50.751,185.112 50.737,185.005 50.432 C 184.949 50.272,184.832 50.129,184.743 50.113 C 184.655 50.097,184.602 50.027,184.625 49.958 C 184.648 49.890,184.594 49.833,184.505 49.833 C 184.416 49.833,184.387 49.721,184.440 49.583 C 184.492 49.446,184.455 49.333,184.355 49.333 C 184.246 49.333,184.213 49.146,184.271 48.854 C 184.326 48.581,184.288 48.325,184.183 48.260 C 184.054 48.180,184.000 45.655,184.000 39.657 L 184.000 31.167 187.000 31.167 L 190.000 31.167 190.000 27.250 L 190.000 23.333 187.000 23.333 L 184.000 23.333 184.000 18.917 L 184.000 14.500 178.417 14.500 L 172.833 14.500 172.833 18.917 M73.797 22.759 C 73.762 22.793,73.475 22.858,73.159 22.903 C 72.842 22.947,72.396 23.034,72.167 23.096 C 71.938 23.157,71.587 23.217,71.389 23.229 C 71.190 23.240,71.061 23.283,71.101 23.323 C 71.141 23.364,70.732 23.563,70.192 23.766 C 69.652 23.969,68.889 24.338,68.496 24.586 C 68.103 24.834,67.683 25.052,67.562 25.069 C 67.442 25.087,67.285 25.166,67.213 25.244 C 67.142 25.323,67.196 25.331,67.333 25.262 C 67.471 25.194,67.397 25.289,67.169 25.474 C 66.941 25.659,66.725 25.781,66.689 25.744 C 66.652 25.708,66.476 25.864,66.298 26.091 C 66.119 26.318,65.886 26.453,65.778 26.392 C 65.671 26.330,65.638 26.340,65.704 26.413 C 65.770 26.487,65.465 27.005,65.026 27.565 C 63.807 29.120,63.182 30.212,62.254 32.417 C 62.099 32.783,61.943 33.227,61.907 33.402 C 61.871 33.578,61.722 34.082,61.575 34.524 C 61.429 34.965,61.356 35.403,61.414 35.496 C 61.472 35.590,61.432 35.667,61.324 35.667 C 61.204 35.667,61.159 35.831,61.208 36.087 C 61.252 36.319,61.217 36.552,61.129 36.606 C 61.042 36.661,61.018 36.959,61.076 37.269 C 61.147 37.647,61.118 37.833,60.988 37.833 C 60.848 37.833,60.826 38.174,60.910 39.066 C 60.986 39.885,60.965 40.335,60.846 40.409 C 60.611 40.554,60.614 41.947,60.849 42.093 C 60.972 42.169,60.994 42.630,60.915 43.519 C 60.831 44.466,60.852 44.833,60.990 44.833 C 61.118 44.833,61.146 45.022,61.076 45.398 C 61.012 45.738,61.042 46.006,61.152 46.074 C 61.253 46.137,61.289 46.368,61.233 46.594 C 61.168 46.851,61.202 47.000,61.325 47.000 C 61.432 47.000,61.482 47.060,61.437 47.134 C 61.391 47.208,61.426 47.564,61.515 47.926 C 61.604 48.287,61.710 48.727,61.750 48.902 C 62.059 50.229,63.833 53.600,64.926 54.937 C 65.235 55.315,65.434 55.677,65.369 55.742 C 65.303 55.808,65.325 55.836,65.417 55.806 C 65.508 55.775,65.597 55.821,65.613 55.908 C 65.629 55.996,65.802 56.126,65.998 56.199 C 66.211 56.277,66.307 56.409,66.235 56.524 C 66.165 56.638,66.187 56.673,66.290 56.610 C 66.386 56.551,66.639 56.721,66.852 56.989 C 67.065 57.256,67.287 57.446,67.345 57.409 C 67.404 57.373,67.623 57.526,67.833 57.750 C 68.043 57.974,68.279 58.117,68.358 58.068 C 68.436 58.020,68.500 58.060,68.500 58.157 C 68.500 58.254,68.612 58.333,68.750 58.333 C 68.887 58.333,69.000 58.413,69.000 58.510 C 69.000 58.607,69.075 58.640,69.167 58.583 C 69.258 58.527,69.333 58.564,69.333 58.667 C 69.333 58.769,69.400 58.812,69.483 58.761 C 69.565 58.710,69.673 58.776,69.724 58.908 C 69.774 59.040,69.951 59.142,70.116 59.135 C 70.281 59.128,71.017 59.301,71.750 59.520 C 73.678 60.093,77.395 60.090,79.000 59.512 C 79.596 59.298,80.177 59.120,80.292 59.117 C 80.406 59.114,80.500 59.051,80.500 58.977 C 80.500 58.904,80.625 58.892,80.777 58.950 C 80.958 59.020,81.015 58.992,80.939 58.870 C 80.816 58.670,81.388 58.277,81.557 58.446 C 81.613 58.502,81.706 58.424,81.764 58.274 C 81.822 58.123,81.930 58.000,82.004 58.000 C 82.134 58.000,82.692 57.568,83.362 56.947 C 83.686 56.647,83.837 58.878,83.529 59.411 C 83.478 59.499,83.410 59.836,83.377 60.161 C 83.238 61.531,81.220 64.425,80.649 64.072 C 80.529 63.998,80.492 64.019,80.557 64.123 C 80.679 64.322,80.217 64.551,79.985 64.407 C 79.902 64.356,79.833 64.398,79.833 64.500 C 79.833 64.602,79.758 64.640,79.667 64.583 C 79.575 64.527,79.500 64.560,79.500 64.657 C 79.500 64.754,79.421 64.833,79.323 64.833 C 79.226 64.833,79.193 64.758,79.250 64.667 C 79.407 64.413,79.223 64.468,78.929 64.762 C 78.785 64.906,78.667 64.946,78.667 64.850 C 78.667 64.649,78.148 64.808,77.946 65.071 C 77.857 65.186,77.783 65.191,77.738 65.083 C 77.694 64.980,77.079 64.950,76.125 65.003 C 75.274 65.051,74.535 65.022,74.475 64.938 C 74.416 64.854,74.210 64.827,74.017 64.877 C 73.824 64.928,73.667 64.892,73.667 64.798 C 73.667 64.705,73.517 64.667,73.333 64.715 C 73.150 64.763,73.000 64.726,73.000 64.633 C 73.000 64.540,72.887 64.508,72.750 64.560 C 72.612 64.613,72.500 64.586,72.500 64.500 C 72.500 64.414,72.406 64.378,72.292 64.421 C 71.982 64.535,69.709 63.219,69.399 62.746 C 69.251 62.521,69.067 62.375,68.989 62.423 C 68.911 62.471,68.717 62.302,68.558 62.047 C 68.398 61.792,68.251 61.559,68.231 61.528 C 68.138 61.385,67.500 61.874,67.500 62.089 C 67.500 62.223,67.425 62.333,67.333 62.333 C 67.242 62.333,67.167 62.446,67.167 62.583 C 67.167 62.721,67.092 62.833,67.000 62.833 C 66.908 62.833,66.833 62.946,66.833 63.083 C 66.833 63.221,66.767 63.333,66.686 63.333 C 66.605 63.333,66.498 63.491,66.447 63.683 C 66.388 63.909,66.282 63.988,66.150 63.906 C 66.005 63.817,65.976 63.863,66.052 64.062 C 66.120 64.238,66.067 64.382,65.914 64.441 C 65.778 64.493,65.667 64.606,65.667 64.692 C 65.667 64.778,65.148 65.572,64.513 66.457 L 63.359 68.066 63.777 68.562 C 64.006 68.835,64.469 69.279,64.805 69.548 C 65.142 69.817,65.396 70.109,65.371 70.198 C 65.346 70.286,65.402 70.311,65.496 70.253 C 65.590 70.194,65.667 70.239,65.667 70.351 C 65.667 70.464,65.712 70.510,65.768 70.454 C 65.824 70.398,66.162 70.537,66.519 70.762 C 68.038 71.721,70.884 72.925,71.187 72.737 C 71.268 72.688,71.333 72.730,71.333 72.831 C 71.333 72.932,71.427 72.996,71.542 72.972 C 71.656 72.949,71.919 73.023,72.125 73.138 C 72.401 73.290,72.500 73.294,72.500 73.152 C 72.500 73.010,72.563 73.012,72.742 73.160 C 72.875 73.270,73.138 73.312,73.325 73.253 C 73.540 73.184,73.667 73.218,73.667 73.345 C 73.667 73.487,73.886 73.515,74.417 73.443 C 74.866 73.381,75.167 73.405,75.167 73.503 C 75.167 73.600,75.884 73.667,76.917 73.667 C 78.011 73.667,78.667 73.602,78.667 73.494 C 78.667 73.384,78.966 73.362,79.500 73.432 C 80.063 73.507,80.333 73.483,80.333 73.359 C 80.333 73.243,80.519 73.212,80.833 73.275 C 81.156 73.339,81.333 73.307,81.333 73.184 C 81.333 73.066,81.486 73.032,81.732 73.094 C 81.951 73.149,82.178 73.116,82.237 73.021 C 82.296 72.926,82.447 72.887,82.572 72.935 C 82.697 72.983,82.850 72.941,82.911 72.842 C 82.973 72.743,83.093 72.704,83.178 72.757 C 83.264 72.810,83.427 72.794,83.542 72.723 C 83.656 72.651,83.900 72.573,84.083 72.548 C 84.475 72.495,85.740 71.964,86.917 71.360 C 87.375 71.124,87.918 70.853,88.124 70.757 C 88.329 70.662,88.498 70.527,88.499 70.458 C 88.499 70.390,88.606 70.333,88.736 70.333 C 88.866 70.333,88.997 70.277,89.028 70.208 C 89.147 69.939,90.630 68.853,90.735 68.957 C 90.796 69.019,90.890 68.904,90.942 68.703 C 90.995 68.502,91.104 68.378,91.185 68.428 C 91.266 68.478,91.418 68.329,91.524 68.098 C 91.629 67.866,91.779 67.717,91.858 67.765 C 91.936 67.813,92.000 67.703,92.000 67.520 C 92.000 67.336,92.081 67.136,92.180 67.075 C 92.441 66.914,93.556 65.136,93.556 64.881 C 93.556 64.763,93.622 64.667,93.704 64.667 C 93.786 64.667,93.807 64.592,93.750 64.500 C 93.693 64.408,93.731 64.333,93.833 64.333 C 93.936 64.333,93.978 64.266,93.927 64.184 C 93.877 64.102,93.964 63.986,94.121 63.925 C 94.366 63.831,94.372 63.793,94.162 63.660 C 93.970 63.539,93.966 63.505,94.143 63.503 C 94.269 63.501,94.329 63.396,94.278 63.264 C 94.228 63.134,94.312 62.980,94.464 62.921 C 94.702 62.830,94.707 62.794,94.495 62.660 C 94.301 62.537,94.297 62.505,94.478 62.503 C 94.623 62.501,94.674 62.379,94.618 62.167 C 94.570 61.984,94.602 61.790,94.689 61.736 C 94.776 61.683,94.801 61.495,94.746 61.319 C 94.690 61.144,94.722 61.000,94.817 61.000 C 94.934 61.000,94.992 55.030,94.997 42.167 L 95.005 23.333 89.930 23.333 C 85.241 23.333,84.849 23.355,84.771 23.625 C 84.725 23.785,84.636 24.426,84.573 25.049 C 84.470 26.082,84.436 26.160,84.188 25.936 C 84.039 25.801,83.842 25.666,83.750 25.637 C 83.658 25.607,83.602 25.527,83.625 25.458 C 83.648 25.390,83.550 25.333,83.407 25.333 C 83.246 25.333,83.193 25.254,83.267 25.125 C 83.333 25.010,83.331 24.967,83.262 25.029 C 83.193 25.090,82.686 24.849,82.135 24.492 C 81.242 23.915,79.776 23.258,78.958 23.068 C 78.798 23.031,78.498 22.954,78.292 22.897 C 77.873 22.783,73.895 22.660,73.797 22.759 M118.800 22.752 C 118.773 22.777,118.487 22.837,118.167 22.883 C 116.681 23.099,114.422 23.992,113.374 24.778 C 113.076 25.002,112.745 25.132,112.640 25.067 C 112.529 24.998,112.494 25.022,112.556 25.122 C 112.688 25.335,112.282 25.696,111.983 25.631 C 111.863 25.605,111.758 25.696,111.750 25.833 C 111.742 25.971,111.645 26.065,111.534 26.042 C 111.424 26.019,111.352 26.094,111.375 26.208 C 111.398 26.323,111.323 26.398,111.208 26.375 C 111.094 26.352,110.991 26.408,110.979 26.500 C 110.968 26.592,110.946 26.760,110.930 26.875 C 110.914 26.990,110.806 27.063,110.688 27.038 C 110.571 27.012,110.520 27.063,110.574 27.151 C 110.628 27.239,110.605 27.352,110.522 27.403 C 110.440 27.454,110.323 26.765,110.262 25.873 C 110.201 24.980,110.112 24.044,110.063 23.792 L 109.974 23.333 104.737 23.333 L 99.500 23.333 99.500 41.333 L 99.500 59.333 105.167 59.333 L 110.833 59.333 110.833 46.557 L 110.833 33.781 111.258 33.224 C 111.492 32.917,111.792 32.667,111.925 32.667 C 112.058 32.667,112.167 32.598,112.167 32.515 C 112.167 32.308,113.451 31.706,114.167 31.578 C 115.013 31.426,116.392 31.360,116.567 31.462 C 116.649 31.511,116.981 31.574,117.304 31.603 C 118.966 31.752,120.636 33.461,120.399 34.768 C 120.359 34.987,120.385 35.167,120.455 35.167 C 120.526 35.167,120.562 40.604,120.536 47.250 L 120.488 59.333 126.255 59.333 L 132.021 59.333 131.956 46.375 C 131.921 39.248,131.845 33.229,131.787 33.000 C 131.729 32.771,131.647 32.382,131.604 32.135 C 131.406 31.000,130.784 29.060,130.329 28.158 C 130.054 27.613,129.867 27.167,129.914 27.167 C 129.961 27.167,129.869 27.024,129.708 26.850 C 128.504 25.542,128.330 25.306,128.436 25.121 C 128.500 25.009,128.495 24.970,128.423 25.034 C 128.351 25.099,127.871 24.866,127.355 24.518 C 126.508 23.945,124.954 23.254,124.083 23.062 C 122.773 22.773,122.103 22.705,120.580 22.705 C 119.629 22.705,118.828 22.726,118.800 22.752 M149.144 22.740 C 149.110 22.770,148.708 22.841,148.250 22.897 C 147.792 22.953,147.192 23.047,146.917 23.105 C 146.642 23.163,146.267 23.219,146.083 23.230 C 145.900 23.241,145.712 23.290,145.667 23.338 C 145.621 23.386,145.133 23.564,144.583 23.733 C 143.516 24.061,141.877 24.835,141.125 25.366 C 140.873 25.544,140.664 25.628,140.662 25.553 C 140.659 25.478,140.580 25.548,140.487 25.708 C 140.393 25.869,140.208 26.000,140.075 26.000 C 139.942 26.000,139.833 26.075,139.833 26.167 C 139.833 26.258,139.768 26.333,139.689 26.333 C 139.530 26.333,138.212 27.623,137.870 28.112 C 137.196 29.076,136.591 30.063,136.638 30.119 C 136.669 30.155,136.573 30.368,136.426 30.592 C 136.279 30.816,136.207 31.000,136.267 31.000 C 136.326 31.000,136.281 31.113,136.167 31.250 C 136.053 31.387,136.015 31.500,136.083 31.500 C 136.152 31.500,136.122 31.603,136.018 31.729 C 135.913 31.855,135.871 32.072,135.925 32.212 C 135.979 32.352,135.942 32.516,135.844 32.577 C 135.737 32.643,135.707 32.941,135.768 33.322 C 135.830 33.714,135.798 34.002,135.685 34.072 C 135.093 34.438,135.898 34.500,141.229 34.500 L 146.957 34.500 147.071 33.641 C 147.348 31.550,148.462 30.667,150.819 30.667 C 153.854 30.667,154.994 31.932,155.134 35.458 L 155.209 37.333 152.396 37.358 C 148.932 37.389,147.529 37.479,146.138 37.759 C 145.924 37.802,145.563 37.873,145.333 37.917 C 144.504 38.076,144.231 38.147,143.083 38.507 C 142.442 38.707,141.392 39.140,140.750 39.468 C 140.108 39.797,139.482 40.045,139.358 40.021 C 139.234 39.997,139.177 40.049,139.231 40.137 C 139.285 40.224,139.218 40.388,139.081 40.502 C 138.945 40.615,138.833 40.646,138.833 40.572 C 138.833 40.497,138.723 40.582,138.589 40.760 C 138.454 40.938,138.342 41.012,138.339 40.925 C 138.331 40.700,137.000 42.026,137.000 42.258 C 137.000 42.363,136.852 42.582,136.671 42.746 C 136.489 42.910,136.382 43.110,136.431 43.190 C 136.481 43.270,136.404 43.381,136.262 43.435 C 136.119 43.490,136.043 43.602,136.094 43.684 C 136.145 43.766,136.102 43.833,136.000 43.833 C 135.898 43.833,135.856 43.902,135.908 43.986 C 135.960 44.070,135.908 44.170,135.793 44.208 C 135.678 44.246,135.572 44.459,135.558 44.681 C 135.543 44.902,135.406 45.496,135.252 46.000 C 134.811 47.444,134.771 50.508,135.176 51.737 C 135.355 52.278,135.467 52.755,135.425 52.797 C 135.383 52.839,135.459 52.983,135.593 53.117 C 135.727 53.251,135.794 53.429,135.742 53.513 C 135.690 53.598,135.745 53.668,135.865 53.669 C 136.024 53.671,136.015 53.716,135.833 53.833 C 135.621 53.970,135.629 53.995,135.885 53.997 C 136.051 53.999,136.140 54.075,136.083 54.167 C 136.027 54.258,136.060 54.333,136.157 54.333 C 136.254 54.333,136.333 54.432,136.333 54.552 C 136.333 54.672,136.472 54.919,136.641 55.101 C 136.811 55.283,136.980 55.510,137.016 55.605 C 137.076 55.759,137.864 56.480,139.222 57.624 C 139.467 57.830,139.669 57.942,139.672 57.874 C 139.675 57.806,139.787 57.896,139.922 58.074 C 140.057 58.251,140.167 58.334,140.167 58.256 C 140.167 58.179,140.317 58.289,140.500 58.500 C 140.716 58.749,140.834 58.802,140.836 58.651 C 140.837 58.511,140.888 58.484,140.961 58.583 C 141.028 58.675,141.458 58.889,141.917 59.059 C 145.257 60.296,149.120 60.309,151.781 59.091 C 152.287 58.859,152.781 58.717,152.877 58.777 C 152.973 58.836,153.003 58.806,152.943 58.710 C 152.847 58.553,153.191 58.302,153.555 58.264 C 153.631 58.256,153.795 58.111,153.919 57.942 C 154.043 57.772,154.225 57.683,154.323 57.744 C 154.422 57.805,154.550 57.718,154.609 57.552 C 154.861 56.839,155.884 56.019,155.715 56.667 C 155.666 56.853,155.710 57.000,155.814 57.000 C 155.916 57.000,156.000 57.079,156.000 57.177 C 156.000 57.274,155.906 57.306,155.792 57.247 C 155.677 57.189,155.702 57.241,155.848 57.363 C 155.994 57.484,156.081 57.677,156.042 57.792 C 156.004 57.906,156.051 58.000,156.148 58.000 C 156.244 58.000,156.280 58.112,156.227 58.250 C 156.171 58.396,156.225 58.501,156.357 58.503 C 156.532 58.505,156.526 58.542,156.333 58.667 C 156.152 58.784,156.143 58.829,156.302 58.831 C 156.421 58.832,156.478 58.900,156.427 58.983 C 156.238 59.289,156.995 59.333,162.416 59.333 C 168.577 59.333,168.316 59.388,167.813 58.208 C 167.648 57.819,167.565 57.499,167.631 57.497 C 167.696 57.496,167.652 57.433,167.533 57.357 C 167.414 57.282,167.211 56.769,167.083 56.219 C 166.954 55.668,166.798 55.000,166.735 54.734 C 166.623 54.256,166.554 50.669,166.439 39.250 C 166.407 36.042,166.328 33.154,166.265 32.833 C 166.078 31.894,165.650 30.643,165.224 29.792 C 165.006 29.356,164.863 29.000,164.906 29.000 C 164.949 29.000,164.802 28.803,164.578 28.562 C 164.355 28.322,164.209 28.066,164.254 27.993 C 164.299 27.921,164.279 27.837,164.209 27.806 C 164.140 27.775,163.797 27.394,163.447 26.958 C 163.097 26.523,162.710 26.167,162.586 26.167 C 162.462 26.167,162.336 26.110,162.306 26.041 C 162.275 25.972,161.725 25.580,161.083 25.170 C 160.442 24.759,159.862 24.347,159.794 24.254 C 159.727 24.160,159.671 24.142,159.669 24.213 C 159.668 24.284,159.460 24.236,159.208 24.107 C 158.758 23.876,156.500 23.202,155.727 23.068 C 155.510 23.031,155.127 22.955,154.875 22.900 C 154.382 22.793,149.244 22.649,149.144 22.740 M246.500 22.863 C 246.500 22.938,246.356 23.000,246.180 23.000 C 245.639 23.000,243.625 24.121,242.833 24.863 C 242.421 25.250,242.027 25.551,241.958 25.533 C 241.890 25.515,241.849 25.556,241.868 25.625 C 241.930 25.848,240.900 27.344,240.772 27.217 C 240.705 27.149,240.696 27.215,240.753 27.363 C 240.809 27.512,240.786 27.676,240.701 27.729 C 240.613 27.783,240.498 27.265,240.436 26.538 C 240.375 25.829,240.281 24.819,240.225 24.292 L 240.124 23.333 234.895 23.333 L 229.667 23.333 229.667 41.333 L 229.667 59.333 235.250 59.333 L 240.833 59.333 240.833 47.992 C 240.833 38.517,240.872 36.576,241.070 36.200 C 241.443 35.491,242.771 34.275,243.010 34.423 C 243.145 34.506,243.176 34.483,243.099 34.359 C 242.993 34.187,243.192 34.092,243.542 34.147 C 243.610 34.158,243.667 34.087,243.667 33.990 C 243.667 33.893,243.742 33.860,243.833 33.917 C 243.925 33.973,244.000 33.935,244.000 33.832 C 244.000 33.720,244.135 33.687,244.333 33.750 C 244.551 33.819,244.668 33.780,244.669 33.636 C 244.671 33.464,244.700 33.462,244.804 33.625 C 244.909 33.790,245.001 33.786,245.246 33.607 C 245.441 33.464,245.814 33.410,246.253 33.459 C 246.637 33.502,247.108 33.454,247.299 33.352 C 247.556 33.214,247.677 33.215,247.763 33.355 C 247.841 33.481,248.230 33.511,248.934 33.445 C 249.542 33.389,250.031 33.415,250.088 33.507 C 250.341 33.918,251.333 33.682,251.343 33.208 C 251.499 25.521,251.499 23.186,251.344 23.090 C 250.854 22.787,246.500 22.583,246.500 22.863 M267.136 22.753 C 267.106 22.783,266.745 22.849,266.333 22.900 C 265.920 22.951,265.396 23.033,265.167 23.081 C 264.938 23.130,264.600 23.201,264.417 23.240 C 263.617 23.408,261.842 24.075,260.799 24.600 C 260.177 24.914,259.634 25.151,259.591 25.127 C 259.549 25.103,259.401 25.233,259.262 25.417 C 259.124 25.600,259.008 25.682,259.005 25.599 C 259.002 25.517,258.860 25.610,258.689 25.808 C 258.518 26.005,258.293 26.167,258.189 26.167 C 258.085 26.167,258.000 26.242,258.000 26.333 C 258.000 26.425,257.934 26.481,257.854 26.458 C 257.699 26.414,256.674 27.496,256.669 27.708 C 256.668 27.777,256.554 27.833,256.417 27.833 C 256.279 27.833,256.167 27.946,256.167 28.083 C 256.167 28.221,256.092 28.333,256.000 28.333 C 255.908 28.333,255.850 28.390,255.871 28.458 C 255.920 28.625,254.899 30.010,254.800 29.911 C 254.757 29.868,254.720 29.927,254.718 30.042 C 254.715 30.156,254.365 30.954,253.940 31.815 C 253.211 33.292,252.968 33.949,252.593 35.458 C 252.108 37.412,251.946 38.991,251.954 41.667 C 251.962 44.311,252.045 45.833,252.181 45.833 C 252.234 45.833,252.284 45.927,252.291 46.042 C 252.390 47.629,253.847 51.080,255.154 52.822 C 255.528 53.320,255.833 53.830,255.833 53.957 C 255.833 54.083,255.904 54.143,255.989 54.090 C 256.075 54.037,256.394 54.303,256.698 54.681 C 257.299 55.429,260.223 57.667,260.600 57.667 C 260.728 57.667,260.833 57.746,260.833 57.843 C 260.833 57.940,260.908 57.973,261.000 57.917 C 261.092 57.860,261.168 57.949,261.169 58.115 C 261.171 58.371,261.196 58.379,261.333 58.167 C 261.451 57.985,261.496 57.976,261.497 58.135 C 261.499 58.255,261.575 58.307,261.667 58.250 C 261.758 58.193,261.833 58.231,261.833 58.333 C 261.833 58.436,261.908 58.473,262.000 58.417 C 262.092 58.360,262.167 58.391,262.167 58.485 C 262.167 58.579,262.279 58.613,262.417 58.560 C 262.554 58.508,262.667 58.552,262.667 58.659 C 262.667 58.766,262.742 58.807,262.833 58.750 C 262.925 58.693,263.000 58.724,263.000 58.818 C 263.000 58.912,263.112 58.946,263.250 58.894 C 263.392 58.839,263.500 58.890,263.500 59.010 C 263.500 59.127,263.541 59.181,263.592 59.130 C 263.643 59.079,264.221 59.176,264.877 59.345 C 268.099 60.173,272.424 60.199,275.417 59.406 C 276.333 59.163,277.255 58.954,277.464 58.941 C 277.674 58.927,277.906 58.819,277.979 58.700 C 278.053 58.581,278.275 58.471,278.473 58.456 C 278.671 58.441,278.833 58.375,278.833 58.309 C 278.833 58.178,279.508 57.914,279.708 57.967 C 279.777 57.985,279.833 57.925,279.833 57.833 C 279.833 57.742,279.924 57.667,280.034 57.667 C 280.587 57.667,283.877 55.055,284.261 54.311 C 284.400 54.042,284.586 53.867,284.674 53.921 C 284.762 53.975,284.833 53.903,284.833 53.760 C 284.833 53.617,284.754 53.500,284.657 53.500 C 284.560 53.500,284.534 53.406,284.600 53.292 C 284.666 53.177,284.659 53.139,284.584 53.207 C 284.397 53.376,283.977 53.005,284.111 52.789 C 284.170 52.693,284.141 52.663,284.046 52.722 C 283.951 52.780,283.686 52.548,283.456 52.206 C 283.226 51.863,282.795 51.340,282.499 51.042 C 282.203 50.744,282.026 50.498,282.105 50.495 C 282.185 50.492,282.117 50.413,281.955 50.318 C 281.792 50.224,281.710 50.064,281.772 49.964 C 281.836 49.861,281.809 49.829,281.710 49.890 C 281.614 49.949,281.107 49.473,280.582 48.832 C 279.449 47.447,279.641 47.483,278.691 48.472 C 277.885 49.310,277.061 49.943,276.659 50.032 C 276.530 50.060,276.323 50.178,276.199 50.293 C 276.075 50.409,275.904 50.460,275.820 50.408 C 275.736 50.356,275.666 50.412,275.664 50.532 C 275.662 50.693,275.621 50.686,275.506 50.505 C 275.373 50.293,275.337 50.298,275.245 50.536 C 275.187 50.688,275.033 50.772,274.903 50.722 C 274.773 50.672,274.667 50.699,274.667 50.782 C 274.667 50.865,274.498 50.943,274.292 50.955 C 274.085 50.967,273.692 51.017,273.417 51.066 C 271.944 51.328,270.364 51.308,269.213 51.012 C 268.556 50.843,267.976 50.746,267.926 50.797 C 267.875 50.847,267.833 50.797,267.833 50.685 C 267.833 50.572,267.758 50.527,267.667 50.583 C 267.575 50.640,267.500 50.594,267.500 50.482 C 267.500 50.370,267.450 50.327,267.390 50.388 C 267.329 50.448,267.172 50.344,267.041 50.157 C 266.910 49.969,266.715 49.848,266.609 49.888 C 266.327 49.994,264.843 48.503,264.951 48.221 C 265.005 48.080,264.950 48.006,264.812 48.035 C 264.686 48.062,264.602 47.990,264.625 47.875 C 264.648 47.760,264.579 47.667,264.472 47.667 C 264.365 47.667,264.324 47.620,264.381 47.563 C 264.438 47.507,264.375 47.351,264.241 47.217 C 264.107 47.083,264.040 46.904,264.092 46.820 C 264.144 46.736,264.102 46.667,264.000 46.667 C 263.898 46.667,263.847 46.610,263.887 46.542 C 263.928 46.473,263.885 46.229,263.792 46.000 C 263.699 45.771,263.601 45.415,263.573 45.208 L 263.523 44.833 274.617 44.833 L 285.711 44.833 285.618 40.875 C 285.551 38.050,285.445 36.583,285.248 35.750 C 285.096 35.108,284.966 34.377,284.958 34.125 C 284.951 33.873,284.874 33.667,284.788 33.667 C 284.702 33.667,284.674 33.554,284.727 33.417 C 284.780 33.279,284.742 33.167,284.644 33.167 C 284.545 33.167,284.508 33.054,284.560 32.917 C 284.613 32.779,284.579 32.667,284.485 32.667 C 284.391 32.667,284.357 32.597,284.410 32.512 C 284.462 32.426,284.428 32.309,284.333 32.250 C 284.239 32.191,284.204 32.074,284.257 31.988 C 284.310 31.903,284.269 31.833,284.167 31.833 C 284.064 31.833,284.027 31.758,284.083 31.667 C 284.140 31.575,284.102 31.500,284.000 31.500 C 283.898 31.500,283.860 31.425,283.917 31.333 C 283.973 31.242,283.936 31.167,283.833 31.167 C 283.731 31.167,283.689 31.098,283.741 31.014 C 283.793 30.930,283.741 30.824,283.626 30.777 C 283.460 30.710,283.459 30.690,283.625 30.680 C 283.765 30.671,283.738 30.565,283.542 30.355 C 283.381 30.184,282.800 29.388,282.250 28.587 C 281.666 27.736,280.955 26.927,280.542 26.640 C 280.152 26.371,279.833 26.079,279.833 25.992 C 279.833 25.905,279.754 25.833,279.658 25.833 C 279.561 25.833,279.055 25.544,278.533 25.191 C 277.050 24.187,275.022 23.344,273.500 23.100 C 273.179 23.048,272.729 22.959,272.500 22.902 C 272.064 22.794,267.230 22.659,267.136 22.753 M45.500 41.333 L 45.500 59.333 51.250 59.333 L 57.000 59.333 57.000 41.333 L 57.000 23.333 51.250 23.333 L 45.500 23.333 45.500 41.333 M192.543 36.375 C 192.579 43.548,192.654 49.576,192.708 49.771 C 192.762 49.965,192.852 50.415,192.908 50.771 C 193.147 52.285,194.174 54.652,195.154 55.944 C 195.513 56.417,195.756 56.855,195.695 56.916 C 195.634 56.978,195.696 57.003,195.833 56.972 C 195.972 56.941,196.063 57.015,196.038 57.137 C 196.012 57.259,196.063 57.314,196.149 57.261 C 196.236 57.207,196.453 57.349,196.631 57.576 C 196.810 57.803,197.001 57.943,197.057 57.887 C 197.113 57.831,197.206 57.908,197.264 58.059 C 197.321 58.209,197.433 58.292,197.511 58.243 C 197.590 58.194,197.807 58.307,197.994 58.494 C 198.181 58.681,198.334 58.777,198.336 58.708 C 198.337 58.640,198.406 58.690,198.488 58.820 C 198.571 58.950,198.813 59.075,199.027 59.097 C 199.241 59.119,199.942 59.307,200.583 59.513 C 202.346 60.080,206.760 60.079,208.333 59.513 C 208.929 59.298,209.510 59.120,209.625 59.117 C 209.740 59.114,209.833 59.044,209.833 58.962 C 209.833 58.881,209.908 58.860,210.000 58.917 C 210.092 58.973,210.167 58.936,210.167 58.833 C 210.167 58.731,210.242 58.693,210.333 58.750 C 210.425 58.807,210.500 58.769,210.500 58.667 C 210.500 58.564,210.575 58.527,210.667 58.583 C 210.758 58.640,210.833 58.602,210.833 58.500 C 210.833 58.398,210.909 58.360,211.001 58.417 C 211.093 58.474,211.214 58.404,211.269 58.262 C 211.323 58.119,211.431 58.041,211.507 58.088 C 211.584 58.135,211.707 58.078,211.781 57.961 C 211.856 57.844,212.217 57.525,212.583 57.252 C 212.950 56.980,213.448 56.541,213.691 56.277 L 214.131 55.798 214.224 56.441 C 214.275 56.794,214.364 57.590,214.422 58.208 L 214.527 59.333 219.763 59.333 L 225.000 59.333 225.000 41.333 L 225.000 23.333 219.417 23.333 L 213.833 23.333 213.832 35.958 L 213.831 48.583 213.144 49.385 C 212.743 49.853,212.363 50.150,212.231 50.099 C 212.106 50.051,212.022 50.093,212.044 50.192 C 212.078 50.348,210.907 50.853,209.917 51.108 C 209.028 51.337,207.364 51.279,206.410 50.985 C 205.442 50.687,204.359 49.863,204.609 49.613 C 204.671 49.551,204.630 49.500,204.518 49.500 C 204.406 49.500,204.360 49.425,204.417 49.333 C 204.473 49.242,204.436 49.167,204.333 49.167 C 204.231 49.167,204.193 49.092,204.250 49.000 C 204.307 48.908,204.269 48.833,204.165 48.833 C 204.053 48.833,204.020 48.699,204.083 48.500 C 204.142 48.317,204.128 48.167,204.053 48.167 C 203.978 48.167,203.937 42.579,203.961 35.750 L 204.006 23.333 198.241 23.333 L 192.476 23.333 192.543 36.375 M79.833 31.569 C 80.939 31.716,82.000 32.100,82.000 32.354 C 82.000 32.434,82.112 32.500,82.250 32.500 C 82.387 32.500,82.500 32.577,82.500 32.671 C 82.500 32.765,82.688 32.913,82.917 33.000 C 83.146 33.087,83.333 33.273,83.333 33.413 C 83.333 33.552,83.408 33.667,83.500 33.667 C 83.609 33.667,83.667 36.323,83.667 41.303 L 83.667 48.939 83.125 49.532 C 81.796 50.987,79.000 51.637,76.833 50.996 C 76.421 50.874,76.027 50.788,75.958 50.804 C 75.890 50.820,75.833 50.758,75.833 50.667 C 75.833 50.575,75.721 50.500,75.583 50.500 C 75.446 50.500,75.333 50.434,75.333 50.353 C 75.333 50.272,75.176 50.164,74.983 50.114 C 74.760 50.056,74.679 49.948,74.759 49.819 C 74.840 49.688,74.815 49.658,74.691 49.735 C 74.579 49.804,74.451 49.727,74.386 49.552 C 74.325 49.386,74.176 49.190,74.054 49.117 C 73.933 49.043,73.833 48.875,73.833 48.742 C 73.833 48.609,73.758 48.500,73.667 48.500 C 73.575 48.500,73.512 48.444,73.526 48.375 C 73.540 48.306,73.417 47.950,73.253 47.583 C 72.920 46.842,72.555 45.597,72.373 44.583 C 72.129 43.227,72.278 38.165,72.576 37.678 C 72.608 37.626,72.679 37.298,72.734 36.949 C 72.789 36.600,72.961 36.075,73.116 35.782 C 73.272 35.490,73.412 35.175,73.429 35.083 C 73.525 34.555,74.019 33.658,74.163 33.748 C 74.257 33.806,74.333 33.732,74.333 33.583 C 74.333 33.422,74.411 33.361,74.526 33.433 C 74.638 33.502,74.673 33.479,74.610 33.376 C 74.376 32.999,76.148 31.763,77.184 31.580 C 77.490 31.526,77.768 31.455,77.801 31.421 C 77.863 31.359,78.727 31.422,79.833 31.569 M270.917 31.586 C 273.052 31.999,274.436 33.850,274.624 36.542 L 274.714 37.833 269.130 37.833 L 263.545 37.833 263.674 37.126 C 263.745 36.738,263.771 36.368,263.732 36.305 C 263.693 36.241,263.743 36.139,263.842 36.078 C 263.941 36.017,263.982 35.861,263.933 35.733 C 263.884 35.605,263.914 35.500,264.000 35.500 C 264.086 35.500,264.113 35.387,264.060 35.250 C 264.008 35.112,264.052 35.000,264.159 35.000 C 264.266 35.000,264.307 34.925,264.250 34.833 C 264.193 34.742,264.231 34.667,264.333 34.667 C 264.436 34.667,264.473 34.592,264.417 34.500 C 264.360 34.408,264.398 34.333,264.500 34.333 C 264.602 34.333,264.640 34.258,264.583 34.167 C 264.527 34.075,264.564 34.000,264.667 34.000 C 264.769 34.000,264.814 33.938,264.767 33.861 C 264.527 33.472,266.837 31.759,267.841 31.582 C 268.152 31.527,268.435 31.454,268.469 31.420 C 268.547 31.342,270.249 31.457,270.917 31.586 M153.521 43.500 L 155.167 43.500 155.161 46.375 C 155.156 49.118,154.993 50.104,154.609 49.720 C 154.549 49.660,154.500 49.715,154.500 49.843 C 154.500 50.127,153.359 51.167,153.047 51.167 C 152.923 51.167,152.655 51.275,152.452 51.408 C 151.107 52.286,148.040 51.989,147.181 50.898 C 146.990 50.654,146.830 50.521,146.826 50.603 C 146.823 50.684,146.680 50.488,146.510 50.168 C 145.730 48.703,146.643 44.667,147.755 44.667 C 147.870 44.667,148.007 44.555,148.059 44.419 C 148.118 44.266,148.262 44.214,148.438 44.281 C 148.630 44.355,148.682 44.327,148.601 44.195 C 148.535 44.088,148.560 43.991,148.657 43.979 C 149.083 43.929,149.145 43.911,149.252 43.803 C 149.315 43.741,149.471 43.730,149.600 43.779 C 149.728 43.829,149.833 43.785,149.833 43.681 C 149.833 43.567,149.988 43.533,150.232 43.594 C 150.462 43.651,150.682 43.610,150.752 43.497 C 150.827 43.376,151.068 43.339,151.374 43.400 C 151.650 43.455,152.616 43.500,153.521 43.500 " stroke="none" fill="#fbfbfb" fill-rule="evenodd"></path><path id="path2" d="M290.248 35.417 C 290.248 48.800,290.268 54.300,290.292 47.638 C 290.316 40.976,290.316 30.026,290.292 23.305 C 290.268 16.583,290.248 22.033,290.248 35.417 M340.708 22.948 C 340.869 22.990,341.131 22.990,341.292 22.948 C 341.452 22.906,341.321 22.872,341.000 22.872 C 340.679 22.872,340.548 22.906,340.708 22.948 M336.975 23.261 C 333.977 23.803,330.263 25.613,328.916 27.189 C 328.544 27.624,328.738 27.509,329.833 26.643 C 332.407 24.609,335.641 23.437,339.583 23.111 C 340.007 23.076,339.885 23.051,339.250 23.043 C 338.700 23.036,337.676 23.134,336.975 23.261 M342.208 23.115 C 342.369 23.157,342.631 23.157,342.792 23.115 C 342.952 23.073,342.821 23.039,342.500 23.039 C 342.179 23.039,342.048 23.073,342.208 23.115 M343.500 23.146 C 344.144 23.352,345.285 23.505,345.000 23.347 C 344.863 23.271,344.375 23.164,343.917 23.110 C 343.400 23.049,343.242 23.063,343.500 23.146 M373.708 23.115 C 373.869 23.157,374.131 23.157,374.292 23.115 C 374.452 23.073,374.321 23.039,374.000 23.039 C 373.679 23.039,373.548 23.073,373.708 23.115 M378.202 23.423 C 380.138 23.954,382.587 25.235,383.050 25.958 C 383.123 26.073,383.268 26.167,383.371 26.167 C 383.659 26.167,382.852 25.378,382.182 25.006 C 380.277 23.946,379.220 23.469,378.292 23.251 C 376.656 22.865,376.595 22.982,378.202 23.423 M371.330 23.339 C 370.644 23.502,369.701 23.897,367.890 24.777 C 365.273 26.050,361.994 30.392,361.242 33.583 C 361.044 34.422,361.412 33.846,361.828 32.667 C 363.463 28.027,366.996 24.683,371.500 23.510 C 372.696 23.199,372.548 23.050,371.330 23.339 M345.352 23.407 C 345.407 23.463,346.005 23.661,346.680 23.848 C 347.355 24.035,348.491 24.483,349.204 24.842 C 349.917 25.201,350.500 25.427,350.500 25.343 C 350.500 25.260,350.069 24.992,349.542 24.750 C 348.144 24.106,345.063 23.119,345.352 23.407 M394.333 41.750 C 394.333 53.694,394.390 59.833,394.500 59.833 C 394.610 59.833,394.667 53.694,394.667 41.750 C 394.667 29.806,394.610 23.667,394.500 23.667 C 394.390 23.667,394.333 29.806,394.333 41.750 M350.689 25.462 C 350.775 25.691,353.010 27.379,353.103 27.286 C 353.189 27.200,351.845 26.066,351.106 25.601 C 350.843 25.436,350.655 25.373,350.689 25.462 M383.682 26.324 C 383.555 26.403,383.513 26.552,383.585 26.669 C 383.681 26.824,383.753 26.805,383.872 26.592 C 384.064 26.248,383.986 26.136,383.682 26.324 M327.168 29.113 C 325.546 31.137,323.097 37.652,323.723 38.279 C 323.763 38.319,323.884 37.847,323.991 37.230 C 324.475 34.451,325.811 31.261,327.334 29.249 C 328.443 27.784,328.316 27.680,327.168 29.113 M353.836 28.063 C 353.834 28.143,354.200 28.706,354.649 29.313 C 356.541 31.873,358.126 35.959,358.034 38.038 C 358.027 38.197,358.091 38.370,358.177 38.423 C 359.184 39.045,356.350 30.746,355.242 29.826 C 355.109 29.716,354.997 29.541,354.994 29.438 C 354.986 29.214,353.839 27.852,353.836 28.063 M339.021 32.022 C 336.963 32.674,334.932 35.798,335.013 38.191 C 335.021 38.407,335.130 38.096,335.256 37.500 C 335.940 34.270,337.417 32.557,340.083 31.900 C 340.546 31.786,340.731 31.693,340.500 31.690 C 340.271 31.688,339.606 31.837,339.021 32.022 M341.855 31.907 C 344.775 32.547,345.735 33.825,346.804 38.500 L 346.975 39.250 346.898 38.417 C 346.513 34.250,344.237 31.534,341.257 31.684 C 341.070 31.693,341.339 31.793,341.855 31.907 M376.622 31.848 C 374.099 32.443,372.374 34.928,371.775 38.833 C 371.634 39.752,371.922 38.929,372.231 37.530 C 372.897 34.522,374.495 32.595,376.833 31.981 C 377.938 31.690,377.762 31.579,376.622 31.848 M378.583 31.843 C 379.428 32.018,380.110 32.010,379.417 31.833 C 379.142 31.763,378.692 31.706,378.417 31.706 C 377.996 31.705,378.023 31.727,378.583 31.843 M380.750 32.442 C 381.208 32.676,381.902 33.176,382.292 33.552 L 383.000 34.236 383.000 41.772 L 383.000 49.307 382.303 49.904 C 381.920 50.232,381.245 50.663,380.803 50.863 C 379.955 51.247,379.677 51.614,380.458 51.319 C 381.308 50.999,382.259 50.365,382.714 49.815 L 383.167 49.269 383.167 41.674 L 383.167 34.080 382.458 33.348 C 381.773 32.640,380.681 32.003,380.167 32.011 C 380.029 32.014,380.292 32.207,380.750 32.442 M360.927 34.625 C 360.867 34.877,360.779 35.215,360.731 35.375 C 360.683 35.535,360.712 35.667,360.794 35.667 C 360.876 35.667,361.021 35.329,361.115 34.917 C 361.210 34.504,361.231 34.167,361.162 34.167 C 361.093 34.167,360.987 34.373,360.927 34.625 M360.481 36.542 C 360.471 36.840,360.434 37.340,360.398 37.653 C 360.362 37.966,360.385 38.171,360.448 38.107 C 360.512 38.043,360.585 37.825,360.611 37.621 C 360.636 37.417,360.698 36.969,360.747 36.625 C 360.801 36.255,360.768 36.000,360.669 36.000 C 360.576 36.000,360.492 36.244,360.481 36.542 M360.372 38.833 C 360.372 39.154,360.406 39.285,360.448 39.125 C 360.490 38.965,360.490 38.702,360.448 38.542 C 360.406 38.381,360.372 38.512,360.372 38.833 M323.545 39.833 C 323.545 40.246,323.578 40.415,323.618 40.208 C 323.657 40.002,323.657 39.665,323.618 39.458 C 323.578 39.252,323.545 39.421,323.545 39.833 M334.883 40.167 C 334.883 40.671,334.915 40.877,334.953 40.625 C 334.991 40.373,334.991 39.960,334.953 39.708 C 334.915 39.456,334.883 39.662,334.883 40.167 M346.836 39.958 C 346.838 40.423,346.880 40.519,347.000 40.333 C 347.212 40.005,347.212 39.333,347.000 39.333 C 346.908 39.333,346.834 39.615,346.836 39.958 M358.278 39.444 C 358.125 39.597,358.159 40.512,358.333 40.917 C 358.436 41.156,358.480 40.981,358.488 40.292 C 358.500 39.325,358.480 39.243,358.278 39.444 M371.705 40.000 C 371.705 40.321,371.740 40.452,371.782 40.292 C 371.823 40.131,371.823 39.869,371.782 39.708 C 371.740 39.548,371.705 39.679,371.705 40.000 M371.557 41.917 C 371.558 42.650,371.587 42.929,371.622 42.537 C 371.657 42.145,371.657 41.545,371.621 41.204 C 371.585 40.863,371.557 41.183,371.557 41.917 M323.542 41.583 C 323.544 41.950,323.578 42.080,323.618 41.873 C 323.658 41.666,323.656 41.366,323.615 41.206 C 323.573 41.047,323.540 41.217,323.542 41.583 M347.045 41.833 C 347.045 42.246,347.078 42.415,347.118 42.208 C 347.157 42.002,347.157 41.665,347.118 41.458 C 347.078 41.252,347.045 41.421,347.045 41.833 M358.272 42.875 C 358.117 43.451,358.148 44.136,358.333 44.250 C 358.437 44.314,358.500 44.002,358.500 43.427 C 358.500 42.435,358.433 42.273,358.272 42.875 M334.881 43.417 C 334.882 43.875,334.915 44.043,334.953 43.789 C 334.991 43.536,334.990 43.161,334.951 42.956 C 334.911 42.751,334.880 42.958,334.881 43.417 M323.542 43.417 C 323.544 43.783,323.578 43.914,323.618 43.706 C 323.658 43.499,323.656 43.199,323.615 43.040 C 323.573 42.880,323.540 43.050,323.542 43.417 M346.836 43.542 C 346.834 43.885,346.908 44.167,347.000 44.167 C 347.212 44.167,347.212 43.495,347.000 43.167 C 346.880 42.981,346.838 43.077,346.836 43.542 M360.372 44.500 C 360.372 44.821,360.406 44.952,360.448 44.792 C 360.490 44.631,360.490 44.369,360.448 44.208 C 360.406 44.048,360.372 44.179,360.372 44.500 M346.740 45.125 C 346.677 45.560,346.438 46.517,346.209 47.250 C 345.980 47.983,345.788 48.621,345.783 48.667 C 345.778 48.712,345.675 48.849,345.554 48.970 C 345.432 49.091,345.335 49.279,345.337 49.387 C 345.345 49.789,345.968 48.748,346.308 47.766 C 346.677 46.699,346.790 46.205,346.934 45.042 C 347.055 44.069,346.881 44.143,346.740 45.125 M371.667 44.612 C 371.667 47.736,374.472 51.370,377.055 51.593 L 377.917 51.667 376.960 51.421 C 374.373 50.756,373.068 49.259,372.158 45.917 C 371.809 44.634,371.667 44.255,371.667 44.612 M334.935 45.083 C 335.072 45.696,335.168 45.829,335.164 45.403 C 335.163 45.227,335.085 44.971,334.992 44.833 C 334.869 44.651,334.853 44.718,334.935 45.083 M358.145 45.181 C 358.123 45.252,358.092 45.450,357.926 46.569 C 357.058 52.396,352.737 57.573,347.265 59.341 C 346.650 59.539,346.173 59.729,346.206 59.762 C 346.239 59.794,346.637 59.704,347.091 59.561 C 347.545 59.418,348.153 59.243,348.442 59.172 C 350.931 58.558,354.801 54.926,356.412 51.690 C 357.428 49.648,358.600 45.544,358.263 45.207 C 358.210 45.154,358.157 45.142,358.145 45.181 M323.846 45.967 C 323.776 48.132,325.835 52.898,327.677 54.833 C 328.742 55.953,328.711 55.851,327.550 54.417 C 325.968 52.462,324.791 49.884,324.165 47.000 C 323.996 46.221,323.853 45.756,323.846 45.967 M335.273 46.757 C 336.032 49.664,337.767 51.390,340.127 51.585 L 341.083 51.664 340.028 51.423 C 337.659 50.882,336.324 49.582,335.572 47.083 C 335.175 45.763,334.949 45.518,335.273 46.757 M360.503 46.875 C 360.501 47.127,360.575 47.333,360.667 47.333 C 360.877 47.333,360.877 46.993,360.667 46.667 C 360.541 46.472,360.505 46.518,360.503 46.875 M360.667 47.560 C 360.667 47.917,361.057 49.167,361.169 49.167 C 361.323 49.167,361.016 47.819,360.810 47.592 C 360.731 47.505,360.667 47.490,360.667 47.560 M361.167 49.471 C 361.167 50.907,363.982 55.426,366.083 57.363 C 367.444 58.618,370.490 59.980,372.500 60.234 C 372.933 60.289,372.616 60.162,371.750 59.933 C 367.149 58.721,363.823 55.697,362.004 51.072 C 361.395 49.523,361.167 49.087,361.167 49.471 M344.734 50.017 C 344.232 50.572,343.152 51.138,342.075 51.410 L 341.083 51.660 342.000 51.560 C 343.255 51.423,346.245 49.667,345.224 49.667 C 345.129 49.667,344.909 49.824,344.734 50.017 M312.039 50.625 L 322.161 50.669 322.208 55.210 L 322.256 59.750 322.294 55.125 L 322.333 50.500 312.125 50.540 L 301.917 50.581 312.039 50.625 M378.500 51.501 C 377.946 51.620,377.956 51.625,378.708 51.619 C 379.144 51.616,379.500 51.550,379.500 51.473 C 379.500 51.317,379.346 51.321,378.500 51.501 M329.667 56.831 C 330.628 57.690,333.060 59.167,333.516 59.167 C 333.662 59.167,334.218 59.317,334.751 59.500 C 335.285 59.684,335.751 59.804,335.788 59.768 C 335.825 59.731,335.268 59.506,334.552 59.267 C 333.013 58.754,330.751 57.513,329.747 56.629 C 329.354 56.283,328.969 56.002,328.891 56.005 C 328.813 56.008,329.162 56.380,329.667 56.831 M382.654 57.264 C 381.459 58.539,378.667 59.895,376.724 60.145 C 375.884 60.253,375.759 60.296,376.250 60.310 C 377.875 60.355,380.527 59.344,382.063 58.093 C 382.928 57.388,382.983 57.367,383.050 57.715 C 383.093 57.935,383.130 57.831,383.144 57.458 C 383.171 56.715,383.169 56.715,382.654 57.264 M383.023 58.667 C 383.008 58.896,382.957 59.271,382.910 59.500 L 382.824 59.917 383.003 59.506 C 383.101 59.281,383.152 58.906,383.116 58.673 L 383.050 58.250 383.023 58.667 M336.000 59.836 C 336.000 59.956,338.663 60.392,338.766 60.290 C 338.802 60.254,338.194 60.113,337.416 59.977 C 336.637 59.841,336.000 59.778,336.000 59.836 M344.500 60.000 C 343.721 60.161,343.190 60.302,343.320 60.313 C 343.750 60.350,345.747 59.965,345.908 59.814 C 345.995 59.733,346.033 59.676,345.992 59.687 C 345.950 59.698,345.279 59.839,344.500 60.000 M382.778 60.111 C 382.717 60.172,382.667 60.358,382.667 60.523 C 382.667 61.764,380.894 64.045,379.516 64.578 C 378.827 64.845,378.401 65.167,378.736 65.167 C 379.526 65.167,381.646 63.522,382.162 62.507 C 382.690 61.471,383.130 59.759,382.778 60.111 M339.208 60.282 C 339.369 60.323,339.631 60.323,339.792 60.282 C 339.952 60.240,339.821 60.205,339.500 60.205 C 339.179 60.205,339.048 60.240,339.208 60.282 M340.794 60.451 C 341.001 60.491,341.301 60.490,341.460 60.448 C 341.620 60.406,341.450 60.374,341.083 60.375 C 340.717 60.377,340.586 60.411,340.794 60.451 M394.255 60.716 C 394.184 60.880,394.172 61.061,394.229 61.118 C 394.399 61.288,394.535 61.050,394.457 60.721 C 394.388 60.430,394.379 60.430,394.255 60.716 M394.116 61.566 C 394.048 61.739,394.031 61.920,394.079 61.968 C 394.231 62.120,394.365 61.871,394.301 61.555 C 394.243 61.265,394.234 61.265,394.116 61.566 M366.375 63.042 C 362.937 67.863,362.610 68.373,362.779 68.646 C 363.624 70.007,367.253 72.227,370.048 73.091 C 372.065 73.714,372.068 73.495,370.052 72.823 C 366.472 71.630,362.480 69.078,362.944 68.277 C 363.083 68.037,367.173 62.307,367.353 62.100 C 367.426 62.017,367.934 62.366,368.491 62.882 C 369.471 63.789,371.392 64.874,372.417 65.100 C 373.285 65.291,372.665 64.901,371.491 64.518 C 370.307 64.131,369.916 63.874,368.490 62.542 C 367.333 61.461,367.537 61.413,366.375 63.042 M393.949 62.333 C 393.900 62.471,393.732 62.996,393.576 63.500 C 393.135 64.923,392.093 66.816,391.072 68.046 C 390.561 68.662,390.242 69.124,390.363 69.073 C 391.431 68.623,394.446 63.174,394.116 62.291 C 394.060 62.141,394.014 62.153,393.949 62.333 M373.833 65.333 C 373.833 65.425,373.946 65.500,374.083 65.500 C 374.221 65.500,374.333 65.425,374.333 65.333 C 374.333 65.242,374.221 65.167,374.083 65.167 C 373.946 65.167,373.833 65.242,373.833 65.333 M377.000 65.333 C 377.000 65.425,377.113 65.500,377.250 65.500 C 377.387 65.500,377.500 65.425,377.500 65.333 C 377.500 65.242,377.387 65.167,377.250 65.167 C 377.113 65.167,377.000 65.242,377.000 65.333 M374.708 65.448 C 374.869 65.490,375.131 65.490,375.292 65.448 C 375.452 65.406,375.321 65.372,375.000 65.372 C 374.679 65.372,374.548 65.406,374.708 65.448 M376.042 65.448 C 376.202 65.490,376.465 65.490,376.625 65.448 C 376.785 65.406,376.654 65.372,376.333 65.372 C 376.012 65.372,375.881 65.406,376.042 65.448 M388.917 70.038 C 387.707 71.031,385.449 72.143,383.417 72.748 C 381.609 73.286,381.131 73.473,381.523 73.489 C 383.073 73.553,388.520 71.026,389.741 69.677 C 390.319 69.038,389.924 69.211,388.917 70.038 M371.833 73.500 C 371.833 73.592,371.946 73.667,372.083 73.667 C 372.221 73.667,372.333 73.592,372.333 73.500 C 372.333 73.408,372.221 73.333,372.083 73.333 C 371.946 73.333,371.833 73.408,371.833 73.500 M380.333 73.536 C 380.333 73.608,380.521 73.667,380.750 73.667 C 380.979 73.667,381.167 73.593,381.167 73.502 C 381.167 73.411,380.979 73.353,380.750 73.372 C 380.521 73.391,380.333 73.465,380.333 73.536 M372.667 73.667 C 372.990 73.875,373.167 73.875,373.167 73.667 C 373.167 73.575,372.998 73.501,372.792 73.503 C 372.488 73.505,372.465 73.536,372.667 73.667 M379.583 73.667 C 379.527 73.758,379.635 73.833,379.823 73.833 C 380.012 73.833,380.167 73.758,380.167 73.667 C 380.167 73.575,380.059 73.500,379.927 73.500 C 379.794 73.500,379.640 73.575,379.583 73.667 M374.000 73.833 C 374.000 73.925,374.146 74.000,374.323 74.000 C 374.501 74.000,374.693 73.925,374.750 73.833 C 374.808 73.739,374.668 73.667,374.427 73.667 C 374.192 73.667,374.000 73.742,374.000 73.833 M375.349 73.820 C 375.199 73.915,375.484 73.961,376.141 73.949 C 376.705 73.938,377.167 73.871,377.167 73.798 C 377.167 73.618,375.639 73.636,375.349 73.820 M377.939 73.798 C 377.894 73.870,378.036 73.944,378.254 73.962 C 378.472 73.980,378.696 73.921,378.752 73.831 C 378.808 73.740,378.667 73.667,378.436 73.667 C 378.207 73.667,377.983 73.726,377.939 73.798 " stroke="none" fill="#0f89be" fill-rule="evenodd"></path><path id="path3" d="M184.231 16.750 C 184.232 17.942,184.258 18.407,184.290 17.785 C 184.323 17.162,184.322 16.187,184.290 15.618 C 184.257 15.049,184.231 15.558,184.231 16.750 M120.375 22.615 C 120.535 22.657,120.798 22.657,120.958 22.615 C 121.119 22.573,120.987 22.539,120.667 22.539 C 120.346 22.539,120.215 22.573,120.375 22.615 M151.208 22.615 C 151.369 22.657,151.631 22.657,151.792 22.615 C 151.952 22.573,151.821 22.539,151.500 22.539 C 151.179 22.539,151.048 22.573,151.208 22.615 M269.042 22.615 C 269.202 22.657,269.465 22.657,269.625 22.615 C 269.785 22.573,269.654 22.539,269.333 22.539 C 269.012 22.539,268.881 22.573,269.042 22.615 M225.080 41.333 C 225.080 51.279,225.100 55.348,225.125 50.375 C 225.149 45.402,225.149 37.265,225.125 32.292 C 225.100 27.319,225.080 31.387,225.080 41.333 M251.550 24.500 C 251.550 25.004,251.581 25.210,251.619 24.958 C 251.658 24.706,251.658 24.294,251.619 24.042 C 251.581 23.790,251.550 23.996,251.550 24.500 M184.244 39.500 C 184.244 44.038,184.265 45.894,184.292 43.625 C 184.318 41.356,184.318 37.644,184.292 35.375 C 184.265 33.106,184.244 34.962,184.244 39.500 M240.912 48.000 C 240.912 54.279,240.933 56.848,240.958 53.708 C 240.984 50.569,240.984 45.431,240.958 42.292 C 240.933 39.152,240.912 41.721,240.912 48.000 M150.794 37.285 C 151.001 37.324,151.301 37.323,151.460 37.281 C 151.620 37.239,151.450 37.207,151.083 37.209 C 150.717 37.211,150.586 37.245,150.794 37.285 M266.198 37.791 C 267.727 37.819,270.277 37.819,271.864 37.791 C 273.451 37.764,272.200 37.742,269.083 37.741 C 265.967 37.741,264.668 37.764,266.198 37.791 M265.167 48.719 C 265.167 48.748,265.410 48.991,265.708 49.260 L 266.250 49.750 265.760 49.208 C 265.304 48.703,265.167 48.590,265.167 48.719 M166.539 52.167 C 166.539 52.487,166.573 52.619,166.615 52.458 C 166.657 52.298,166.657 52.035,166.615 51.875 C 166.573 51.715,166.539 51.846,166.539 52.167 M22.958 60.118 C 23.165 60.157,23.502 60.157,23.708 60.118 C 23.915 60.078,23.746 60.045,23.333 60.045 C 22.921 60.045,22.752 60.078,22.958 60.118 M146.708 60.115 C 146.869 60.157,147.131 60.157,147.292 60.115 C 147.452 60.073,147.321 60.039,147.000 60.039 C 146.679 60.039,146.548 60.073,146.708 60.115 M183.794 60.118 C 184.001 60.158,184.301 60.156,184.460 60.115 C 184.620 60.073,184.450 60.040,184.083 60.042 C 183.717 60.044,183.586 60.078,183.794 60.118 M270.294 60.118 C 270.501 60.158,270.801 60.156,270.960 60.115 C 271.120 60.073,270.950 60.040,270.583 60.042 C 270.217 60.044,270.086 60.078,270.294 60.118 " stroke="none" fill="#b4b4b4" fill-rule="evenodd"></path><path id="path4" d="M11.387 12.831 C 10.912 13.104,10.475 13.406,10.414 13.504 C 10.354 13.601,10.667 13.463,11.111 13.196 C 11.554 12.929,12.067 12.628,12.250 12.527 C 12.433 12.426,12.508 12.342,12.417 12.340 C 12.325 12.338,11.862 12.559,11.387 12.831 M33.514 12.561 C 33.745 12.763,35.000 13.490,35.000 13.421 C 35.000 13.319,33.718 12.500,33.559 12.500 C 33.496 12.500,33.476 12.527,33.514 12.561 M172.743 14.542 C 172.698 14.660,172.682 16.704,172.708 19.086 L 172.756 23.417 172.795 18.958 L 172.833 14.500 178.417 14.500 L 184.000 14.500 184.000 18.917 C 184.000 21.984,184.055 23.333,184.181 23.333 C 184.309 23.333,184.332 22.036,184.257 18.875 L 184.152 14.417 178.488 14.373 C 174.009 14.338,172.807 14.374,172.743 14.542 M7.919 15.406 C 7.463 15.813,7.126 16.180,7.170 16.222 C 7.214 16.264,7.625 15.932,8.083 15.484 C 9.124 14.467,9.025 14.420,7.919 15.406 M37.667 15.750 C 38.165 16.254,38.609 16.667,38.655 16.667 C 38.701 16.667,38.331 16.254,37.833 15.750 C 37.335 15.246,36.891 14.833,36.845 14.833 C 36.799 14.833,37.169 15.246,37.667 15.750 M6.500 17.000 C 6.304 17.275,6.208 17.500,6.286 17.500 C 6.364 17.500,6.561 17.275,6.723 17.000 C 6.886 16.725,6.982 16.500,6.937 16.500 C 6.893 16.500,6.696 16.725,6.500 17.000 M38.672 16.940 C 38.679 17.143,39.149 17.740,39.234 17.654 C 39.273 17.615,39.161 17.406,38.986 17.190 C 38.810 16.973,38.669 16.861,38.672 16.940 M19.333 19.750 C 19.104 19.881,18.992 19.988,19.083 19.988 C 19.175 19.988,19.438 19.881,19.667 19.750 C 19.896 19.619,20.008 19.512,19.917 19.512 C 19.825 19.512,19.563 19.619,19.333 19.750 M28.225 21.388 C 28.559 21.830,28.833 22.274,28.833 22.374 C 28.833 22.474,28.879 22.510,28.936 22.453 C 29.068 22.321,28.451 21.323,27.980 20.906 C 27.780 20.728,27.890 20.945,28.225 21.388 M16.783 21.823 C 16.627 22.086,16.500 22.365,16.501 22.442 C 16.501 22.520,16.655 22.331,16.843 22.023 C 17.031 21.715,17.158 21.436,17.125 21.403 C 17.093 21.370,16.939 21.559,16.783 21.823 M70.750 23.411 C 70.106 23.705,70.406 23.710,71.167 23.417 C 71.487 23.293,71.637 23.190,71.500 23.187 C 71.362 23.184,71.025 23.285,70.750 23.411 M168.245 27.292 L 168.250 31.250 170.457 31.296 L 172.664 31.343 172.708 40.296 L 172.753 49.250 172.793 40.208 L 172.833 31.167 170.586 31.167 L 168.339 31.167 168.290 27.250 L 168.241 23.333 168.245 27.292 M213.707 35.925 C 213.681 44.038,213.607 48.672,213.501 48.801 C 213.407 48.913,213.444 48.907,213.585 48.785 C 213.804 48.596,213.830 47.003,213.792 35.910 L 213.748 23.250 213.707 35.925 M229.580 41.333 C 229.580 51.279,229.600 55.348,229.625 50.375 C 229.649 45.402,229.649 37.265,229.625 32.292 C 229.600 27.319,229.580 31.387,229.580 41.333 M112.196 25.492 C 111.738 25.855,111.308 26.239,111.242 26.346 C 111.176 26.453,111.564 26.184,112.103 25.748 C 113.306 24.777,113.242 24.833,113.126 24.833 C 113.073 24.833,112.655 25.130,112.196 25.492 M278.167 24.891 C 278.167 24.975,279.463 25.833,279.590 25.833 C 279.643 25.833,279.639 25.757,279.582 25.664 C 279.474 25.490,278.167 24.776,278.167 24.891 M16.333 25.105 C 16.333 25.288,17.143 26.500,17.266 26.500 C 17.362 26.500,17.279 26.351,16.716 25.518 C 16.505 25.208,16.333 25.022,16.333 25.105 M67.083 25.431 L 66.583 25.861 67.125 25.502 C 67.423 25.305,67.667 25.112,67.667 25.072 C 67.667 24.947,67.596 24.991,67.083 25.431 M128.393 25.344 C 128.542 25.579,128.834 25.924,129.040 26.110 C 129.247 26.297,129.511 26.592,129.627 26.766 C 129.743 26.941,129.731 26.858,129.600 26.583 C 129.469 26.308,129.083 25.821,128.742 25.500 C 128.242 25.029,128.174 24.999,128.393 25.344 M140.929 25.254 C 140.752 25.387,140.641 25.530,140.681 25.570 C 140.722 25.611,140.941 25.501,141.169 25.326 C 141.397 25.151,141.508 25.008,141.417 25.009 C 141.325 25.010,141.105 25.120,140.929 25.254 M161.000 25.070 C 161.000 25.108,161.281 25.310,161.625 25.519 C 161.969 25.728,162.302 25.976,162.366 26.070 C 162.430 26.164,162.529 26.193,162.586 26.136 C 162.643 26.079,162.353 25.800,161.940 25.516 C 161.223 25.023,161.000 24.917,161.000 25.070 M241.813 25.686 C 241.504 26.064,241.220 26.457,241.183 26.561 C 241.147 26.665,241.072 26.787,241.017 26.833 C 240.824 26.994,240.478 27.700,240.554 27.776 C 240.596 27.818,240.864 27.445,241.150 26.946 C 241.435 26.447,241.785 25.943,241.927 25.825 C 242.187 25.609,242.569 25.000,242.444 25.000 C 242.407 25.000,242.123 25.309,241.813 25.686 M65.824 26.458 L 65.250 27.083 65.875 26.509 C 66.219 26.193,66.500 25.912,66.500 25.884 C 66.500 25.757,66.359 25.877,65.824 26.458 M279.833 26.061 C 279.833 26.106,280.058 26.304,280.333 26.500 C 280.608 26.696,280.833 26.819,280.833 26.773 C 280.833 26.727,280.608 26.529,280.333 26.333 C 280.058 26.138,279.833 26.015,279.833 26.061 M138.658 27.125 L 138.083 27.750 138.708 27.176 C 139.290 26.641,139.410 26.500,139.283 26.500 C 139.255 26.500,138.974 26.781,138.658 27.125 M18.062 27.220 C 18.575 27.657,19.833 28.407,19.833 28.275 C 19.833 28.231,19.440 27.945,18.958 27.639 C 17.710 26.846,17.518 26.756,18.062 27.220 M110.525 27.101 C 110.401 27.241,110.333 27.388,110.373 27.429 C 110.413 27.469,110.583 27.352,110.749 27.168 C 110.915 26.984,110.984 26.836,110.901 26.840 C 110.818 26.843,110.649 26.961,110.525 27.101 M256.667 27.417 C 256.451 27.646,256.345 27.831,256.429 27.828 C 256.572 27.823,257.259 27.000,257.120 27.000 C 257.086 27.000,256.882 27.188,256.667 27.417 M251.381 28.417 C 251.382 28.875,251.415 29.043,251.453 28.789 C 251.491 28.536,251.490 28.161,251.451 27.956 C 251.411 27.751,251.380 27.958,251.381 28.417 M137.583 28.287 C 137.002 29.060,136.941 29.272,137.473 28.667 C 137.755 28.346,137.990 28.027,137.993 27.958 C 138.004 27.762,137.940 27.813,137.583 28.287 M164.435 28.422 C 164.587 28.654,164.744 28.811,164.784 28.771 C 164.883 28.673,164.452 28.000,164.289 28.000 C 164.218 28.000,164.283 28.190,164.435 28.422 M255.482 28.875 C 255.286 29.248,255.287 29.248,255.642 28.933 C 256.040 28.580,256.076 28.500,255.839 28.500 C 255.751 28.500,255.590 28.669,255.482 28.875 M254.707 30.042 C 254.460 30.349,253.635 32.024,253.699 32.088 C 253.730 32.119,254.024 31.624,254.354 30.988 C 254.953 29.833,255.021 29.650,254.707 30.042 M136.264 30.441 C 136.105 30.854,136.280 30.911,136.492 30.514 C 136.595 30.323,136.609 30.167,136.524 30.167 C 136.439 30.167,136.322 30.290,136.264 30.441 M149.000 30.853 C 148.208 31.168,147.160 32.417,147.170 33.033 C 147.172 33.153,147.312 32.950,147.482 32.583 C 147.845 31.795,148.365 31.290,149.167 30.945 C 149.810 30.668,149.665 30.589,149.000 30.853 M28.000 31.363 C 29.202 31.935,30.560 32.496,30.613 32.442 C 30.689 32.366,28.567 31.416,28.000 31.271 L 27.583 31.165 28.000 31.363 M184.000 39.657 C 184.000 44.326,184.056 48.182,184.125 48.224 C 184.194 48.267,184.228 44.486,184.201 39.821 L 184.152 31.341 187.118 31.291 L 190.083 31.242 187.042 31.204 L 184.000 31.167 184.000 39.657 M251.385 32.083 C 251.386 32.633,251.417 32.838,251.454 32.539 C 251.491 32.239,251.490 31.789,251.452 31.539 C 251.414 31.288,251.384 31.533,251.385 32.083 M113.456 31.754 C 112.842 31.979,111.975 32.500,112.214 32.500 C 112.280 32.500,112.614 32.350,112.956 32.167 C 113.299 31.983,113.669 31.833,113.779 31.833 C 113.890 31.833,114.027 31.758,114.083 31.667 C 114.205 31.470,114.244 31.464,113.456 31.754 M271.916 32.090 C 272.374 32.332,272.804 32.617,272.872 32.724 C 272.964 32.868,272.996 32.868,272.997 32.725 C 273.000 32.510,272.084 31.927,271.479 31.759 C 271.261 31.699,271.458 31.848,271.916 32.090 M118.750 32.187 C 118.933 32.285,119.298 32.601,119.560 32.891 C 119.877 33.240,119.975 33.295,119.853 33.055 C 119.642 32.639,118.878 31.998,118.603 32.005 C 118.500 32.008,118.567 32.090,118.750 32.187 M265.417 33.000 C 264.965 33.458,264.639 33.833,264.691 33.833 C 264.743 33.833,265.161 33.458,265.619 33.000 C 266.077 32.542,266.404 32.167,266.345 32.167 C 266.286 32.167,265.868 32.542,265.417 33.000 M74.824 32.958 L 74.250 33.583 74.875 33.009 C 75.219 32.693,75.500 32.412,75.500 32.384 C 75.500 32.257,75.359 32.377,74.824 32.958 M111.235 33.255 C 110.624 34.056,110.787 34.090,111.478 33.304 C 111.786 32.954,111.959 32.667,111.861 32.667 C 111.764 32.667,111.482 32.931,111.235 33.255 M135.623 33.389 C 135.430 33.866,135.465 34.268,135.681 34.053 C 135.780 33.953,135.836 33.694,135.804 33.478 C 135.754 33.130,135.732 33.120,135.623 33.389 M9.032 33.512 C 9.099 33.714,9.833 34.284,9.833 34.134 C 9.833 34.093,9.637 33.890,9.398 33.681 C 9.158 33.473,8.993 33.397,9.032 33.512 M249.333 33.464 C 249.333 33.535,249.525 33.610,249.759 33.629 C 250.006 33.650,250.142 33.595,250.083 33.499 C 249.962 33.304,249.333 33.274,249.333 33.464 M273.796 33.823 C 273.951 34.092,274.100 34.289,274.128 34.261 C 274.218 34.171,273.785 33.333,273.648 33.333 C 273.575 33.333,273.642 33.553,273.796 33.823 M32.853 33.564 C 33.062 33.796,34.869 34.827,34.690 34.612 C 34.589 34.489,34.111 34.178,33.628 33.919 C 33.145 33.661,32.797 33.501,32.853 33.564 M73.847 33.975 C 73.575 34.483,73.631 34.625,73.934 34.193 C 74.081 33.983,74.162 33.773,74.114 33.725 C 74.066 33.677,73.946 33.790,73.847 33.975 M242.875 34.332 C 242.577 34.513,242.333 34.698,242.333 34.742 C 242.333 34.786,242.596 34.667,242.917 34.478 C 243.237 34.289,243.500 34.104,243.500 34.067 C 243.500 33.960,243.447 33.983,242.875 34.332 M10.197 34.428 C 10.351 34.605,10.726 34.892,11.030 35.065 C 11.683 35.438,11.511 35.253,10.583 34.585 C 10.196 34.306,10.034 34.240,10.197 34.428 M36.000 35.750 C 36.114 35.887,36.282 36.000,36.374 36.000 C 36.467 36.000,36.449 35.889,36.333 35.750 C 36.219 35.612,36.051 35.500,35.959 35.500 C 35.866 35.500,35.884 35.611,36.000 35.750 M12.500 35.916 C 12.500 36.028,14.520 37.035,14.595 36.961 C 14.628 36.927,14.171 36.660,13.578 36.368 C 12.985 36.076,12.500 35.872,12.500 35.916 M37.500 37.083 C 38.222 37.828,38.310 37.828,37.715 37.083 C 37.459 36.763,37.179 36.500,37.092 36.500 C 37.006 36.500,37.189 36.762,37.500 37.083 M152.548 37.290 C 153.078 37.323,153.903 37.323,154.381 37.289 C 154.859 37.256,154.425 37.229,153.417 37.229 C 152.408 37.229,152.017 37.257,152.548 37.290 M38.340 37.917 C 38.343 38.008,38.530 38.308,38.755 38.583 C 38.981 38.858,39.163 39.008,39.160 38.917 C 39.157 38.825,38.970 38.525,38.745 38.250 C 38.519 37.975,38.337 37.825,38.340 37.917 M60.778 39.725 C 60.705 40.078,60.686 40.408,60.735 40.458 C 60.886 40.609,61.028 40.057,60.968 39.556 C 60.914 39.116,60.901 39.127,60.778 39.725 M39.864 40.417 C 39.969 40.647,40.076 40.812,40.104 40.785 C 40.205 40.684,39.956 40.000,39.817 40.000 C 39.738 40.000,39.759 40.188,39.864 40.417 M72.205 41.000 C 72.205 41.321,72.240 41.452,72.282 41.292 C 72.323 41.131,72.323 40.869,72.282 40.708 C 72.240 40.548,72.205 40.679,72.205 41.000 M25.917 41.453 C 26.237 41.761,27.707 42.682,27.773 42.616 C 27.810 42.579,27.557 42.362,27.212 42.134 C 26.454 41.635,25.686 41.231,25.917 41.453 M60.706 42.738 C 60.730 43.156,60.806 43.499,60.875 43.499 C 61.065 43.500,61.024 42.201,60.831 42.082 C 60.724 42.016,60.678 42.256,60.706 42.738 M72.205 42.667 C 72.205 42.987,72.240 43.119,72.282 42.958 C 72.323 42.798,72.323 42.535,72.282 42.375 C 72.240 42.215,72.205 42.346,72.205 42.667 M28.504 43.458 C 28.506 43.527,28.660 43.771,28.847 44.000 L 29.187 44.417 28.922 43.875 C 28.671 43.360,28.496 43.185,28.504 43.458 M150.750 43.500 C 150.628 43.697,150.791 43.697,151.250 43.500 C 151.571 43.362,151.570 43.356,151.218 43.345 C 151.017 43.339,150.807 43.408,150.750 43.500 M3.023 43.958 C 3.042 44.348,3.056 44.361,3.117 44.044 L 3.189 43.671 9.136 43.625 L 15.083 43.579 9.042 43.539 L 3.000 43.500 3.023 43.958 M60.833 45.083 C 60.833 45.221,60.908 45.333,61.000 45.333 C 61.092 45.333,61.167 45.221,61.167 45.083 C 61.167 44.946,61.092 44.833,61.000 44.833 C 60.908 44.833,60.833 44.946,60.833 45.083 M263.500 44.958 C 263.500 45.072,271.690 45.070,281.833 44.955 C 283.987 44.930,280.744 44.893,274.625 44.872 C 268.506 44.851,263.500 44.890,263.500 44.958 M41.209 46.417 C 41.211 46.783,41.245 46.914,41.285 46.706 C 41.324 46.499,41.323 46.199,41.281 46.040 C 41.239 45.880,41.207 46.050,41.209 46.417 M192.542 47.750 C 192.544 48.117,192.578 48.247,192.618 48.040 C 192.658 47.832,192.656 47.532,192.615 47.373 C 192.573 47.214,192.540 47.383,192.542 47.750 M27.801 49.726 C 26.934 50.306,26.705 50.693,27.510 50.218 C 27.945 49.961,28.863 49.132,28.654 49.185 C 28.615 49.194,28.231 49.438,27.801 49.726 M212.667 49.689 C 212.346 49.970,211.873 50.275,211.616 50.369 C 211.360 50.462,211.185 50.574,211.228 50.617 C 211.373 50.762,212.449 50.155,212.924 49.659 C 213.531 49.026,213.411 49.040,212.667 49.689 M74.333 49.457 C 74.333 49.649,74.973 50.249,75.073 50.149 C 75.112 50.110,74.961 49.903,74.739 49.688 C 74.516 49.474,74.333 49.370,74.333 49.457 M281.000 49.385 C 281.000 49.414,281.244 49.658,281.542 49.927 L 282.083 50.417 281.594 49.875 C 281.138 49.370,281.000 49.257,281.000 49.385 M82.514 49.943 C 82.297 50.094,81.849 50.359,81.518 50.532 C 81.107 50.746,81.049 50.812,81.333 50.740 C 81.760 50.632,83.000 49.894,83.000 49.748 C 83.000 49.621,82.936 49.647,82.514 49.943 M205.039 50.230 C 205.382 50.562,205.757 50.829,205.873 50.824 C 205.991 50.818,205.946 50.727,205.769 50.615 C 205.597 50.506,205.222 50.239,204.936 50.022 C 204.510 49.698,204.529 49.736,205.039 50.230 M276.671 49.827 C 276.537 49.912,276.467 50.023,276.517 50.073 C 276.567 50.122,276.752 50.054,276.929 49.920 C 277.280 49.654,277.067 49.577,276.671 49.827 M153.731 50.514 C 152.915 51.162,152.911 51.167,153.109 51.167 C 153.199 51.167,153.568 50.904,153.928 50.583 C 154.738 49.863,154.609 49.817,153.731 50.514 M282.417 50.958 C 282.671 51.210,283.157 51.792,283.497 52.250 C 284.096 53.058,284.667 53.640,284.667 53.446 C 284.667 53.393,284.498 53.163,284.292 52.934 C 284.085 52.705,283.546 52.064,283.094 51.509 C 282.641 50.954,282.200 50.500,282.113 50.500 C 282.026 50.500,282.162 50.706,282.417 50.958 M147.249 50.974 C 147.431 51.189,147.730 51.441,147.915 51.536 C 148.269 51.717,148.217 51.661,147.418 50.998 C 146.937 50.598,146.931 50.597,147.249 50.974 M187.625 51.118 C 187.831 51.157,188.169 51.157,188.375 51.118 C 188.581 51.078,188.412 51.045,188.000 51.045 C 187.588 51.045,187.419 51.078,187.625 51.118 M151.875 51.505 C 151.317 51.730,151.421 51.843,152.000 51.642 C 152.275 51.546,152.500 51.437,152.500 51.400 C 152.500 51.301,152.297 51.336,151.875 51.505 M63.300 52.760 C 63.578 53.315,63.926 53.869,64.072 53.991 C 64.218 54.112,64.044 53.708,63.685 53.094 C 62.834 51.638,62.664 51.490,63.300 52.760 M5.333 52.135 C 5.333 52.284,5.964 53.000,6.095 53.000 C 6.140 53.000,6.010 52.775,5.807 52.500 C 5.421 51.977,5.333 51.910,5.333 52.135 M193.180 52.250 C 193.179 52.433,193.286 52.771,193.417 53.000 C 193.721 53.532,193.722 53.418,193.421 52.583 C 193.289 52.217,193.181 52.067,193.180 52.250 M39.620 52.860 C 39.457 53.145,39.353 53.408,39.389 53.444 C 39.491 53.546,40.028 52.666,39.969 52.494 C 39.940 52.410,39.783 52.574,39.620 52.860 M254.984 52.750 C 255.079 52.933,255.314 53.271,255.506 53.500 C 255.745 53.784,255.801 53.811,255.683 53.583 C 255.587 53.400,255.352 53.063,255.160 52.833 C 254.922 52.549,254.866 52.523,254.984 52.750 M256.331 54.418 C 256.995 55.217,257.050 55.269,256.869 54.915 C 256.775 54.730,256.522 54.431,256.307 54.249 C 255.930 53.931,255.931 53.937,256.331 54.418 M7.985 55.056 C 8.229 55.359,9.167 56.074,9.167 55.956 C 9.167 55.919,8.848 55.636,8.458 55.326 C 8.069 55.017,7.856 54.895,7.985 55.056 M65.284 55.578 C 65.449 55.804,65.653 55.992,65.737 55.995 C 65.822 55.998,65.715 55.813,65.500 55.583 C 65.000 55.051,64.899 55.049,65.284 55.578 M257.667 55.736 C 257.667 55.853,259.678 57.378,259.741 57.309 C 259.771 57.277,259.317 56.892,258.731 56.454 C 258.146 56.017,257.667 55.694,257.667 55.736 M282.235 56.221 C 280.695 57.417,280.627 57.484,281.590 56.857 C 282.144 56.497,282.697 56.081,282.819 55.934 C 283.130 55.559,283.017 55.615,282.235 56.221 M138.308 56.958 C 138.810 57.440,139.294 57.833,139.383 57.833 C 139.472 57.833,139.329 57.671,139.064 57.472 C 138.800 57.274,138.316 56.880,137.989 56.597 C 137.662 56.315,137.806 56.477,138.308 56.958 M66.271 56.660 C 66.527 56.931,66.771 57.118,66.813 57.076 C 66.914 56.975,66.153 56.167,65.957 56.167 C 65.873 56.167,66.015 56.389,66.271 56.660 M155.073 56.875 L 154.583 57.417 155.166 56.917 C 155.486 56.642,155.780 56.398,155.819 56.375 C 155.857 56.352,155.815 56.333,155.726 56.333 C 155.636 56.333,155.342 56.577,155.073 56.875 M195.333 56.395 C 195.333 56.584,196.653 57.903,196.747 57.808 C 196.791 57.765,196.490 57.400,196.080 56.997 C 195.669 56.594,195.333 56.323,195.333 56.395 M154.250 57.628 C 154.158 57.695,153.973 57.900,153.838 58.083 C 153.657 58.329,153.712 58.311,154.047 58.013 C 154.455 57.649,154.579 57.495,154.458 57.503 C 154.435 57.504,154.342 57.560,154.250 57.628 M176.167 58.006 C 176.660 58.399,178.118 59.167,178.372 59.167 C 178.470 59.167,178.184 58.972,177.738 58.735 C 177.291 58.498,176.725 58.160,176.479 57.985 C 175.888 57.564,175.634 57.581,176.167 58.006 M279.208 58.037 C 278.692 58.286,278.732 58.539,279.250 58.303 C 279.479 58.199,279.667 58.050,279.667 57.973 C 279.667 57.809,279.686 57.806,279.208 58.037 M152.583 58.681 C 151.624 59.231,151.822 59.341,152.828 58.817 C 153.311 58.565,153.864 58.011,153.458 58.185 C 153.435 58.194,153.042 58.418,152.583 58.681 M31.083 59.000 C 30.762 59.138,30.763 59.144,31.115 59.155 C 31.316 59.161,31.527 59.092,31.583 59.000 C 31.705 58.803,31.542 58.803,31.083 59.000 M141.333 59.000 C 141.471 59.089,141.696 59.162,141.833 59.162 C 142.056 59.162,142.056 59.144,141.833 59.000 C 141.696 58.911,141.471 58.838,141.333 58.838 C 141.111 58.838,141.111 58.856,141.333 59.000 M276.917 59.000 C 276.595 59.138,276.596 59.144,276.948 59.155 C 277.149 59.161,277.360 59.092,277.417 59.000 C 277.539 58.803,277.375 58.803,276.917 59.000 M82.538 62.056 C 82.238 62.621,82.113 62.933,82.259 62.750 C 82.585 62.343,83.210 61.154,83.137 61.081 C 83.107 61.052,82.838 61.491,82.538 62.056 M68.477 61.949 C 68.689 62.354,69.000 62.604,69.000 62.369 C 69.000 62.286,68.839 62.075,68.642 61.901 C 68.287 61.586,68.286 61.586,68.477 61.949 M81.573 63.350 C 81.511 63.450,81.117 63.750,80.697 64.016 C 80.278 64.282,80.013 64.500,80.109 64.500 C 80.314 64.500,81.584 63.602,81.743 63.344 C 81.804 63.247,81.816 63.167,81.770 63.167 C 81.724 63.167,81.635 63.249,81.573 63.350 M65.193 65.243 C 65.001 65.568,64.874 65.833,64.911 65.833 C 65.041 65.833,65.701 64.813,65.622 64.733 C 65.578 64.689,65.385 64.918,65.193 65.243 M63.872 67.125 C 63.441 67.748,63.300 68.000,63.385 68.000 C 63.424 68.000,63.654 67.700,63.897 67.333 C 64.390 66.588,64.369 66.408,63.872 67.125 M92.249 67.001 C 92.083 67.185,91.986 67.375,92.034 67.423 C 92.082 67.471,92.246 67.321,92.398 67.089 C 92.730 66.582,92.664 66.543,92.249 67.001 M63.333 68.282 C 63.333 68.373,63.483 68.584,63.667 68.750 C 63.850 68.916,64.000 68.977,64.000 68.885 C 64.000 68.793,63.850 68.583,63.667 68.417 C 63.483 68.251,63.333 68.190,63.333 68.282 M90.134 69.239 C 89.887 69.457,89.517 69.753,89.311 69.897 C 89.105 70.041,88.975 70.197,89.022 70.245 C 89.069 70.292,89.477 69.996,89.929 69.587 C 90.381 69.179,90.712 68.844,90.667 68.844 C 90.621 68.844,90.381 69.022,90.134 69.239 M65.917 70.501 C 66.033 70.688,67.835 71.721,67.909 71.643 C 67.940 71.610,67.484 71.307,66.896 70.970 C 66.308 70.632,65.868 70.421,65.917 70.501 M87.250 71.181 C 86.311 71.720,86.348 71.842,87.298 71.340 C 88.094 70.919,88.461 70.668,88.250 70.687 C 88.158 70.696,87.708 70.918,87.250 71.181 M78.667 73.500 C 78.667 73.709,78.844 73.709,79.167 73.500 C 79.369 73.369,79.345 73.338,79.042 73.336 C 78.835 73.334,78.667 73.408,78.667 73.500 " stroke="none" fill="#bcbcbc" fill-rule="evenodd"></path></g></svg>