<?xml version="1.0" standalone="no"?>
<!DOCTYPE svg PUBLIC "-//W3C//DTD SVG 20010904//EN"
 "http://www.w3.org/TR/2001/REC-SVG-20010904/DTD/svg10.dtd">
<svg version="1.0" xmlns="http://www.w3.org/2000/svg"
 width="4960.000000pt" height="1040.000000pt" viewBox="0 0 4960.000000 1040.000000"
 preserveAspectRatio="xMidYMid meet">

<g transform="translate(0.000000,1040.000000) scale(0.100000,-0.100000)"
fill="#000000" stroke="none">
<path d="M35860 6145 l0 -2765 1580 0 1580 0 0 550 0 550 -950 0 -950 0 0
2215 0 2215 -630 0 -630 0 0 -2765z"/>
<path d="M41380 6913 c-582 -16 -1096 -225 -1475 -600 -107 -105 -125 -126
-192 -218 -153 -211 -245 -441 -290 -720 -22 -138 -21 -446 1 -580 73 -437
281 -795 616 -1061 301 -240 636 -373 1080 -430 153 -20 536 -22 660 -4 47 6
98 14 115 16 68 9 195 37 275 62 47 14 90 27 97 28 7 1 58 21 115 44 341 139
655 388 852 679 49 72 163 288 170 324 2 7 6 19 9 27 3 8 17 51 31 95 71 231
89 495 54 775 -68 549 -401 1008 -949 1308 -78 43 -275 129 -312 136 -12 3
-48 14 -79 25 -52 18 -222 56 -293 65 -192 26 -323 33 -485 29z m276 -1028
c142 -32 254 -93 362 -198 175 -170 250 -368 239 -629 -9 -233 -80 -401 -229
-544 -151 -146 -304 -211 -523 -221 -403 -19 -718 198 -816 563 -47 175 -35
405 32 572 64 162 207 315 374 399 145 74 381 98 561 58z"/>
<path d="M45415 6909 c-475 -27 -865 -229 -1174 -607 -351 -431 -487 -1024
-370 -1622 79 -406 308 -791 619 -1039 320 -256 626 -356 1085 -355 223 1 401
20 558 60 207 52 344 120 472 233 l50 44 3 -174 c4 -188 -6 -270 -44 -381 -68
-200 -231 -350 -486 -448 -228 -88 -618 -59 -873 64 -134 65 -250 165 -335
287 -13 19 -25 35 -26 37 -1 2 -73 -32 -161 -76 -87 -43 -303 -150 -480 -237
-178 -87 -323 -162 -323 -167 0 -14 59 -127 103 -198 174 -278 412 -476 731
-609 77 -32 174 -65 221 -75 6 -2 28 -8 50 -14 22 -6 51 -13 65 -16 14 -2 32
-7 40 -10 34 -13 204 -38 350 -51 283 -27 647 -13 886 34 103 20 291 68 309
79 6 4 12 7 15 7 36 4 165 59 295 126 275 142 534 393 663 644 109 211 166
439 182 720 5 88 9 946 10 1908 l0 1747 -595 0 -595 0 0 -155 c0 -105 -4 -155
-11 -155 -6 0 -43 26 -82 59 -314 256 -690 367 -1152 340z m672 -1025 c136
-30 241 -87 352 -190 156 -144 234 -318 248 -547 20 -338 -140 -631 -426 -776
-208 -107 -540 -106 -756 2 -132 65 -267 203 -336 342 -98 197 -106 494 -21
708 70 173 203 316 377 405 146 74 379 97 562 56z"/>
</g>
</svg>
